<mxfile host="app.diagrams.net" modified="2021-12-05T08:11:23.812Z" agent="5.0 (Windows)" etag="jYSU7PMs2tS8cRP5nrUc" version="15.7.4" type="github">
  <diagram id="nk0luuRGH92HJ7iizfKi" name="Page-1">
    <mxGraphModel dx="1038" dy="1705" grid="1" gridSize="10" guides="1" tooltips="1" connect="1" arrows="1" fold="1" page="1" pageScale="1" pageWidth="827" pageHeight="1169" math="0" shadow="0">
      <root>
        <mxCell id="0" />
        <mxCell id="1" parent="0" />
        <mxCell id="fps1EA-GcfaW138LZgcH-22" value="&lt;table style=&quot;border-collapse: collapse ; width: 100.0000% ; border: none&quot; cellspacing=&quot;0&quot; border=&quot;0&quot;&gt;&lt;tbody&gt;&lt;tr style=&quot;height: 63.7000pt&quot;&gt;&lt;td style=&quot;width: 13.7500pt ; padding: 0.0000pt 5.4000pt 0.0000pt 5.4000pt ; border-left: 1.0000pt solid ; border-right: 1.0000pt solid ; border-top: 1.0000pt solid ; border-bottom: 1.0000pt solid&quot; width=&quot;22&quot; valign=&quot;center&quot;&gt;&lt;p class=&quot;MsoNormal&quot;&gt;&lt;span style=&quot;color: rgb(0 , 0 , 0) ; font-style: normal ; font-size: 9.0000pt&quot;&gt;&lt;/span&gt;&lt;/p&gt;&lt;br&gt;&lt;/td&gt;&lt;td style=&quot;width: 19.5500pt ; padding: 0.0000pt 5.4000pt 0.0000pt 5.4000pt ; border-left: none ; border-right: 1.0000pt solid ; border-top: 1.0000pt solid ; border-bottom: 1.0000pt solid&quot; width=&quot;32&quot; valign=&quot;center&quot;&gt;&lt;p class=&quot;MsoNormal&quot; style=&quot;text-align: left ; vertical-align: middle&quot;&gt;&lt;span style=&quot;font-family: &amp;#34;calibri&amp;#34; ; font-size: 10.5000pt&quot;&gt;&lt;/span&gt;&lt;span style=&quot;color: rgb(0 , 0 , 0) ; font-style: normal ; font-size: 9.0000pt&quot;&gt; &lt;br&gt;&lt;/span&gt;&lt;/p&gt;&lt;/td&gt;&lt;td style=&quot;width: 28.1000pt ; padding: 0.0000pt 5.4000pt 0.0000pt 5.4000pt ; border-left: none ; border-right: 1.0000pt solid ; border-top: 1.0000pt solid ; border-bottom: 1.0000pt solid ; background: rgb(255 , 255 , 0)&quot; width=&quot;46&quot; valign=&quot;center&quot;&gt;&lt;p class=&quot;MsoNormal&quot; style=&quot;text-align: center ; vertical-align: middle&quot; align=&quot;center&quot;&gt;&lt;span style=&quot;color: rgb(0 , 0 , 0) ; font-style: normal ; font-size: 9.0000pt&quot;&gt;&lt;font face=&quot;宋体&quot;&gt;按钮形状&lt;/font&gt;&lt;/span&gt;&lt;span style=&quot;color: rgb(0 , 0 , 0) ; font-style: normal ; font-size: 9.0000pt&quot;&gt;&lt;/span&gt;&lt;/p&gt;&lt;/td&gt;&lt;td style=&quot;width: 20.2500pt ; padding: 0.0000pt 5.4000pt 0.0000pt 5.4000pt ; border-left: none ; border-right: 1.0000pt solid ; border-top: 1.0000pt solid ; border-bottom: 1.0000pt solid ; background: rgb(255 , 255 , 0)&quot; width=&quot;33&quot; valign=&quot;center&quot;&gt;&lt;p class=&quot;MsoNormal&quot; style=&quot;text-align: center ; vertical-align: middle&quot; align=&quot;center&quot;&gt;&lt;span style=&quot;color: rgb(0 , 0 , 0) ; font-style: normal ; font-size: 9.0000pt&quot;&gt;&lt;font face=&quot;宋体&quot;&gt;按钮大小&lt;/font&gt;&lt;/span&gt;&lt;span style=&quot;color: rgb(0 , 0 , 0) ; font-style: normal ; font-size: 9.0000pt&quot;&gt;&lt;/span&gt;&lt;/p&gt;&lt;/td&gt;&lt;td style=&quot;width: 20.2500pt ; padding: 0.0000pt 5.4000pt 0.0000pt 5.4000pt ; border-left: none ; border-right: 1.0000pt solid ; border-top: 1.0000pt solid ; border-bottom: 1.0000pt solid ; background: rgb(255 , 255 , 0)&quot; width=&quot;33&quot; valign=&quot;center&quot;&gt;&lt;p class=&quot;MsoNormal&quot; style=&quot;text-align: center ; vertical-align: middle&quot; align=&quot;center&quot;&gt;&lt;span style=&quot;color: rgb(0 , 0 , 0) ; font-style: normal ; font-size: 9.0000pt&quot;&gt;&lt;font face=&quot;宋体&quot;&gt;按钮位置&lt;/font&gt;&lt;/span&gt;&lt;span style=&quot;color: rgb(0 , 0 , 0) ; font-style: normal ; font-size: 9.0000pt&quot;&gt;&lt;/span&gt;&lt;/p&gt;&lt;/td&gt;&lt;td style=&quot;width: 20.2500pt ; padding: 0.0000pt 5.4000pt 0.0000pt 5.4000pt ; border-left: none ; border-right: 1.0000pt solid ; border-top: 1.0000pt solid ; border-bottom: 1.0000pt solid ; background: rgb(255 , 255 , 0)&quot; width=&quot;33&quot; valign=&quot;center&quot;&gt;&lt;p class=&quot;MsoNormal&quot; style=&quot;text-align: center ; vertical-align: middle&quot; align=&quot;center&quot;&gt;&lt;span style=&quot;color: rgb(0 , 0 , 0) ; font-style: normal ; font-size: 9.0000pt&quot;&gt;&lt;font face=&quot;宋体&quot;&gt;按钮密度&lt;/font&gt;&lt;/span&gt;&lt;span style=&quot;color: rgb(0 , 0 , 0) ; font-style: normal ; font-size: 9.0000pt&quot;&gt;&lt;/span&gt;&lt;/p&gt;&lt;/td&gt;&lt;td style=&quot;width: 20.2500pt ; padding: 0.0000pt 5.4000pt 0.0000pt 5.4000pt ; border-left: none ; border-right: 1.0000pt solid ; border-top: 1.0000pt solid ; border-bottom: 1.0000pt solid ; background: rgb(255 , 255 , 0)&quot; width=&quot;33&quot; valign=&quot;center&quot;&gt;&lt;p class=&quot;MsoNormal&quot; style=&quot;text-align: center ; vertical-align: middle&quot; align=&quot;center&quot;&gt;&lt;span style=&quot;color: rgb(0 , 0 , 0) ; font-style: normal ; font-size: 9.0000pt&quot;&gt;&lt;font face=&quot;宋体&quot;&gt;按钮数量&lt;/font&gt;&lt;/span&gt;&lt;span style=&quot;color: rgb(0 , 0 , 0) ; font-style: normal ; font-size: 9.0000pt&quot;&gt;&lt;/span&gt;&lt;/p&gt;&lt;/td&gt;&lt;td style=&quot;width: 18.6500pt ; padding: 0.0000pt 5.4000pt 0.0000pt 5.4000pt ; border-left: none ; border-right: 1.0000pt solid ; border-top: 1.0000pt solid ; border-bottom: 1.0000pt solid ; background: rgb(255 , 255 , 0)&quot; width=&quot;31&quot; valign=&quot;center&quot;&gt;&lt;p class=&quot;MsoNormal&quot; style=&quot;text-align: center ; vertical-align: middle&quot; align=&quot;center&quot;&gt;&lt;span style=&quot;color: rgb(0 , 0 , 0) ; font-style: normal ; font-size: 9.0000pt&quot;&gt;&lt;font face=&quot;宋体&quot;&gt;按钮色彩&lt;/font&gt;&lt;/span&gt;&lt;span style=&quot;color: rgb(0 , 0 , 0) ; font-style: normal ; font-size: 9.0000pt&quot;&gt;&lt;/span&gt;&lt;/p&gt;&lt;/td&gt;&lt;td style=&quot;width: 18.6500pt ; padding: 0.0000pt 5.4000pt 0.0000pt 5.4000pt ; border-left: none ; border-right: 1.0000pt solid ; border-top: 1.0000pt solid ; border-bottom: 1.0000pt solid ; background: rgb(255 , 255 , 0)&quot; width=&quot;31&quot; valign=&quot;center&quot;&gt;&lt;p class=&quot;MsoNormal&quot; style=&quot;text-align: center ; vertical-align: middle&quot; align=&quot;center&quot;&gt;&lt;span style=&quot;color: rgb(0 , 0 , 0) ; font-style: normal ; font-size: 9.0000pt&quot;&gt;&lt;font face=&quot;宋体&quot;&gt;按钮类型&lt;/font&gt;&lt;/span&gt;&lt;span style=&quot;color: rgb(0 , 0 , 0) ; font-style: normal ; font-size: 9.0000pt&quot;&gt;&lt;/span&gt;&lt;/p&gt;&lt;/td&gt;&lt;td style=&quot;width: 28.1000pt ; padding: 0.0000pt 5.4000pt 0.0000pt 5.4000pt ; border-left: none ; border-right: 1.0000pt solid ; border-top: 1.0000pt solid ; border-bottom: 1.0000pt solid ; background: rgb(252 , 228 , 214)&quot; width=&quot;46&quot; valign=&quot;center&quot;&gt;&lt;p class=&quot;MsoNormal&quot; style=&quot;text-align: center ; vertical-align: middle&quot; align=&quot;center&quot;&gt;&lt;span style=&quot;color: rgb(0 , 0 , 0) ; font-style: normal ; font-size: 9.0000pt&quot;&gt;&lt;font face=&quot;宋体&quot;&gt;外壳造型&lt;/font&gt;&lt;/span&gt;&lt;span style=&quot;color: rgb(0 , 0 , 0) ; font-style: normal ; font-size: 9.0000pt&quot;&gt;&lt;/span&gt;&lt;/p&gt;&lt;/td&gt;&lt;td style=&quot;width: 20.2500pt ; padding: 0.0000pt 5.4000pt 0.0000pt 5.4000pt ; border-left: none ; border-right: 1.0000pt solid ; border-top: 1.0000pt solid ; border-bottom: 1.0000pt solid ; background: rgb(252 , 228 , 214)&quot; width=&quot;33&quot; valign=&quot;center&quot;&gt;&lt;p class=&quot;MsoNormal&quot; style=&quot;text-align: center ; vertical-align: middle&quot; align=&quot;center&quot;&gt;&lt;span style=&quot;color: rgb(0 , 0 , 0) ; font-style: normal ; font-size: 9.0000pt&quot;&gt;&lt;font face=&quot;宋体&quot;&gt;外壳材质&lt;/font&gt;&lt;/span&gt;&lt;span style=&quot;color: rgb(0 , 0 , 0) ; font-style: normal ; font-size: 9.0000pt&quot;&gt;&lt;/span&gt;&lt;/p&gt;&lt;/td&gt;&lt;td style=&quot;width: 20.2500pt ; padding: 0.0000pt 5.4000pt 0.0000pt 5.4000pt ; border-left: none ; border-right: 1.0000pt solid ; border-top: 1.0000pt solid ; border-bottom: 1.0000pt solid ; background: rgb(252 , 228 , 214)&quot; width=&quot;33&quot; valign=&quot;center&quot;&gt;&lt;p class=&quot;MsoNormal&quot; style=&quot;text-align: center ; vertical-align: middle&quot; align=&quot;center&quot;&gt;&lt;span style=&quot;color: rgb(0 , 0 , 0) ; font-style: normal ; font-size: 9.0000pt&quot;&gt;&lt;font face=&quot;宋体&quot;&gt;外壳色彩&lt;/font&gt;&lt;/span&gt;&lt;span style=&quot;color: rgb(0 , 0 , 0) ; font-style: normal ; font-size: 9.0000pt&quot;&gt;&lt;/span&gt;&lt;/p&gt;&lt;/td&gt;&lt;td style=&quot;width: 28.1000pt ; padding: 0.0000pt 5.4000pt 0.0000pt 5.4000pt ; border-left: none ; border-right: 1.0000pt solid ; border-top: 1.0000pt solid ; border-bottom: 1.0000pt solid ; background: rgb(189 , 215 , 238)&quot; width=&quot;46&quot; valign=&quot;center&quot;&gt;&lt;p class=&quot;MsoNormal&quot; style=&quot;text-align: center ; vertical-align: middle&quot; align=&quot;center&quot;&gt;&lt;span style=&quot;color: rgb(0 , 0 , 0) ; font-style: normal ; font-size: 9.0000pt&quot;&gt;&lt;font face=&quot;宋体&quot;&gt;显示屏大小&lt;/font&gt;&lt;/span&gt;&lt;span style=&quot;color: rgb(0 , 0 , 0) ; font-style: normal ; font-size: 9.0000pt&quot;&gt;&lt;/span&gt;&lt;/p&gt;&lt;/td&gt;&lt;td style=&quot;width: 20.2500pt ; padding: 0.0000pt 5.4000pt 0.0000pt 5.4000pt ; border-left: none ; border-right: 1.0000pt solid ; border-top: 1.0000pt solid ; border-bottom: 1.0000pt solid ; background: rgb(189 , 215 , 238)&quot; width=&quot;33&quot; valign=&quot;center&quot;&gt;&lt;p class=&quot;MsoNormal&quot; style=&quot;text-align: center ; vertical-align: middle&quot; align=&quot;center&quot;&gt;&lt;span style=&quot;color: rgb(0 , 0 , 0) ; font-style: normal ; font-size: 9.0000pt&quot;&gt;&lt;font face=&quot;宋体&quot;&gt;显示屏位置&lt;/font&gt;&lt;/span&gt;&lt;span style=&quot;color: rgb(0 , 0 , 0) ; font-style: normal ; font-size: 9.0000pt&quot;&gt;&lt;/span&gt;&lt;/p&gt;&lt;/td&gt;&lt;td style=&quot;width: 20.2500pt ; padding: 0.0000pt 5.4000pt 0.0000pt 5.4000pt ; border-left: none ; border-right: 1.0000pt solid ; border-top: 1.0000pt solid ; border-bottom: 1.0000pt solid ; background: rgb(189 , 215 , 238)&quot; width=&quot;33&quot; valign=&quot;center&quot;&gt;&lt;p class=&quot;MsoNormal&quot; style=&quot;text-align: center ; vertical-align: middle&quot; align=&quot;center&quot;&gt;&lt;span style=&quot;color: rgb(0 , 0 , 0) ; font-style: normal ; font-size: 9.0000pt&quot;&gt;&lt;font face=&quot;宋体&quot;&gt;显示屏周围留白&lt;/font&gt;&lt;/span&gt;&lt;span style=&quot;color: rgb(0 , 0 , 0) ; font-style: normal ; font-size: 9.0000pt&quot;&gt;&lt;/span&gt;&lt;/p&gt;&lt;/td&gt;&lt;td style=&quot;width: 20.2500pt ; padding: 0.0000pt 5.4000pt 0.0000pt 5.4000pt ; border-left: none ; border-right: 1.0000pt solid ; border-top: 1.0000pt solid ; border-bottom: 1.0000pt solid ; background: rgb(189 , 215 , 238)&quot; width=&quot;33&quot; valign=&quot;center&quot;&gt;&lt;p class=&quot;MsoNormal&quot; style=&quot;text-align: center ; vertical-align: middle&quot; align=&quot;center&quot;&gt;&lt;span style=&quot;color: rgb(0 , 0 , 0) ; font-style: normal ; font-size: 9.0000pt&quot;&gt;&lt;font face=&quot;宋体&quot;&gt;显示屏类型&lt;/font&gt;&lt;/span&gt;&lt;span style=&quot;color: rgb(0 , 0 , 0) ; font-style: normal ; font-size: 9.0000pt&quot;&gt;&lt;/span&gt;&lt;/p&gt;&lt;/td&gt;&lt;td style=&quot;width: 28.1000pt ; padding: 0.0000pt 5.4000pt 0.0000pt 5.4000pt ; border-left: none ; border-right: 1.0000pt solid ; border-top: 1.0000pt solid ; border-bottom: 1.0000pt solid ; background: rgb(255 , 242 , 204)&quot; width=&quot;46&quot; valign=&quot;center&quot;&gt;&lt;p class=&quot;MsoNormal&quot; style=&quot;text-align: center ; vertical-align: middle&quot; align=&quot;center&quot;&gt;&lt;span style=&quot;color: rgb(0 , 0 , 0) ; font-style: normal ; font-size: 9.0000pt&quot;&gt;&lt;font face=&quot;宋体&quot;&gt;把手大小&lt;/font&gt;&lt;/span&gt;&lt;span style=&quot;color: rgb(0 , 0 , 0) ; font-style: normal ; font-size: 9.0000pt&quot;&gt;&lt;/span&gt;&lt;/p&gt;&lt;/td&gt;&lt;td style=&quot;width: 20.2500pt ; padding: 0.0000pt 5.4000pt 0.0000pt 5.4000pt ; border-left: none ; border-right: 1.0000pt solid ; border-top: 1.0000pt solid ; border-bottom: 1.0000pt solid ; background: rgb(255 , 242 , 204)&quot; width=&quot;33&quot; valign=&quot;center&quot;&gt;&lt;p class=&quot;MsoNormal&quot; style=&quot;text-align: center ; vertical-align: middle&quot; align=&quot;center&quot;&gt;&lt;span style=&quot;color: rgb(0 , 0 , 0) ; font-style: normal ; font-size: 9.0000pt&quot;&gt;&lt;font face=&quot;宋体&quot;&gt;把手材质&lt;/font&gt;&lt;/span&gt;&lt;span style=&quot;color: rgb(0 , 0 , 0) ; font-style: normal ; font-size: 9.0000pt&quot;&gt;&lt;/span&gt;&lt;/p&gt;&lt;/td&gt;&lt;td style=&quot;width: 20.2500pt ; padding: 0.0000pt 5.4000pt 0.0000pt 5.4000pt ; border-left: none ; border-right: 1.0000pt solid ; border-top: 1.0000pt solid ; border-bottom: 1.0000pt solid ; background: rgb(255 , 242 , 204)&quot; width=&quot;33&quot; valign=&quot;center&quot;&gt;&lt;p class=&quot;MsoNormal&quot; style=&quot;text-align: center ; vertical-align: middle&quot; align=&quot;center&quot;&gt;&lt;span style=&quot;color: rgb(0 , 0 , 0) ; font-style: normal ; font-size: 9.0000pt&quot;&gt;&lt;font face=&quot;宋体&quot;&gt;把手造型&lt;/font&gt;&lt;/span&gt;&lt;span style=&quot;color: rgb(0 , 0 , 0) ; font-style: normal ; font-size: 9.0000pt&quot;&gt;&lt;/span&gt;&lt;/p&gt;&lt;/td&gt;&lt;td style=&quot;width: 20.3500pt ; padding: 0.0000pt 5.4000pt 0.0000pt 5.4000pt ; border-left: none ; border-right: 1.0000pt solid ; border-top: 1.0000pt solid ; border-bottom: 1.0000pt solid ; background: rgb(255 , 242 , 204)&quot; width=&quot;33&quot; valign=&quot;center&quot;&gt;&lt;p class=&quot;MsoNormal&quot; style=&quot;text-align: center ; vertical-align: middle&quot; align=&quot;center&quot;&gt;&lt;span style=&quot;color: rgb(0 , 0 , 0) ; font-style: normal ; font-size: 9.0000pt&quot;&gt;&lt;font face=&quot;宋体&quot;&gt;把手色彩&lt;/font&gt;&lt;/span&gt;&lt;span style=&quot;color: rgb(0 , 0 , 0) ; font-style: normal ; font-size: 9.0000pt&quot;&gt;&lt;/span&gt;&lt;/p&gt;&lt;/td&gt;&lt;/tr&gt;&lt;tr style=&quot;height: 28.8000pt&quot;&gt;&lt;td style=&quot;width: 13.7500pt ; padding: 0.0000pt 5.4000pt 0.0000pt 5.4000pt ; border-left: 1.0000pt solid ; border-right: 1.0000pt solid ; border-top: none ; border-bottom: 1.0000pt solid&quot; width=&quot;22&quot; valign=&quot;center&quot;&gt;&lt;p class=&quot;MsoNormal&quot; style=&quot;text-align: justify ; vertical-align: middle&quot; align=&quot;justify&quot;&gt;&lt;span class=&quot;15&quot; style=&quot;color: rgb(0 , 0 , 0) ; font-style: normal ; font-size: 9.0000pt&quot;&gt;&lt;font face=&quot;Calibri&quot;&gt;CN1&lt;/font&gt;&lt;/span&gt;&lt;span style=&quot;font-family: &amp;#34;calibri&amp;#34; ; color: rgb(0 , 0 , 0) ; font-style: normal ; font-size: 9.0000pt&quot;&gt;&lt;/span&gt;&lt;/p&gt;&lt;/td&gt;&lt;td style=&quot;width: 19.5500pt ; padding: 0.0000pt 5.4000pt 0.0000pt 5.4000pt ; border-left: none ; border-right: 1.0000pt solid ; border-top: none ; border-bottom: 1.0000pt solid&quot; width=&quot;32&quot; valign=&quot;bottom&quot;&gt;&lt;p class=&quot;MsoNormal&quot; style=&quot;text-align: right ; vertical-align: bottom&quot; align=&quot;right&quot;&gt;&lt;span style=&quot;font-family: &amp;#34;arial&amp;#34; ; color: rgb(0 , 0 , 0) ; font-style: normal ; font-size: 9.0000pt&quot;&gt;0.1252&lt;/span&gt;&lt;span style=&quot;font-family: &amp;#34;arial&amp;#34; ; color: rgb(0 , 0 , 0) ; font-style: normal ; font-size: 9.0000pt&quot;&gt;&lt;/span&gt;&lt;/p&gt;&lt;/td&gt;&lt;td style=&quot;width: 28.1000pt ; padding: 0.0000pt 5.4000pt 0.0000pt 5.4000pt ; border-left: none ; border-right: 1.0000pt solid ; border-top: none ; border-bottom: 1.0000pt solid&quot; width=&quot;46&quot; valign=&quot;center&quot;&gt;&lt;p class=&quot;MsoNormal&quot;&gt;&lt;span style=&quot;color: rgb(0 , 0 , 0) ; font-style: normal ; font-size: 9.0000pt&quot;&gt;&amp;nbsp;&lt;/span&gt;&lt;/p&gt;&lt;/td&gt;&lt;td style=&quot;width: 20.2500pt ; padding: 0.0000pt 5.4000pt 0.0000pt 5.4000pt ; border-left: none ; border-right: 1.0000pt solid ; border-top: none ; border-bottom: 1.0000pt solid&quot; width=&quot;33&quot; valign=&quot;center&quot;&gt;&lt;p class=&quot;MsoNormal&quot;&gt;&lt;span style=&quot;color: rgb(0 , 0 , 0) ; font-style: normal ; font-size: 9.0000pt&quot;&gt;&amp;nbsp;&lt;/span&gt;&lt;/p&gt;&lt;/td&gt;&lt;td style=&quot;width: 20.2500pt ; padding: 0.0000pt 5.4000pt 0.0000pt 5.4000pt ; border-left: none ; border-right: 1.0000pt solid ; border-top: none ; border-bottom: 1.0000pt solid&quot; width=&quot;33&quot; valign=&quot;center&quot;&gt;&lt;p class=&quot;MsoNormal&quot;&gt;&lt;span style=&quot;color: rgb(0 , 0 , 0) ; font-style: normal ; font-size: 9.0000pt&quot;&gt;&amp;nbsp;&lt;/span&gt;&lt;/p&gt;&lt;/td&gt;&lt;td style=&quot;width: 20.2500pt ; padding: 0.0000pt 5.4000pt 0.0000pt 5.4000pt ; border-left: none ; border-right: 1.0000pt solid ; border-top: none ; border-bottom: 1.0000pt solid&quot; width=&quot;33&quot; valign=&quot;center&quot;&gt;&lt;p class=&quot;MsoNormal&quot;&gt;&lt;span style=&quot;color: rgb(0 , 0 , 0) ; font-style: normal ; font-size: 9.0000pt&quot;&gt;&amp;nbsp;&lt;/span&gt;&lt;/p&gt;&lt;/td&gt;&lt;td style=&quot;width: 20.2500pt ; padding: 0.0000pt 5.4000pt 0.0000pt 5.4000pt ; border-left: none ; border-right: 1.0000pt solid ; border-top: none ; border-bottom: 1.0000pt solid&quot; width=&quot;33&quot; valign=&quot;center&quot;&gt;&lt;p class=&quot;MsoNormal&quot;&gt;&lt;span style=&quot;color: rgb(0 , 0 , 0) ; font-style: normal ; font-size: 9.0000pt&quot;&gt;&amp;nbsp;&lt;/span&gt;&lt;/p&gt;&lt;/td&gt;&lt;td style=&quot;width: 18.6500pt ; padding: 0.0000pt 5.4000pt 0.0000pt 5.4000pt ; border-left: none ; border-right: 1.0000pt solid ; border-top: none ; border-bottom: 1.0000pt solid&quot; width=&quot;31&quot; valign=&quot;center&quot;&gt;&lt;p class=&quot;MsoNormal&quot;&gt;&lt;span style=&quot;color: rgb(0 , 0 , 0) ; font-style: normal ; font-size: 9.0000pt&quot;&gt;&amp;nbsp;&lt;/span&gt;&lt;/p&gt;&lt;/td&gt;&lt;td style=&quot;width: 18.6500pt ; padding: 0.0000pt 5.4000pt 0.0000pt 5.4000pt ; border-left: none ; border-right: 1.0000pt solid ; border-top: none ; border-bottom: 1.0000pt solid&quot; width=&quot;31&quot; valign=&quot;center&quot;&gt;&lt;p class=&quot;MsoNormal&quot; style=&quot;text-align: right ; vertical-align: middle&quot; align=&quot;right&quot;&gt;&lt;span style=&quot;color: rgb(0 , 0 , 0) ; font-style: normal ; font-size: 9.0000pt&quot;&gt;&lt;font face=&quot;宋体&quot;&gt;1&lt;/font&gt;&lt;/span&gt;&lt;span style=&quot;color: rgb(0 , 0 , 0) ; font-style: normal ; font-size: 9.0000pt&quot;&gt;&lt;/span&gt;&lt;/p&gt;&lt;/td&gt;&lt;td style=&quot;width: 28.1000pt ; padding: 0.0000pt 5.4000pt 0.0000pt 5.4000pt ; border-left: none ; border-right: 1.0000pt solid ; border-top: none ; border-bottom: 1.0000pt solid&quot; width=&quot;46&quot; valign=&quot;center&quot;&gt;&lt;p class=&quot;MsoNormal&quot; style=&quot;text-align: right ; vertical-align: middle&quot; align=&quot;right&quot;&gt;&lt;span style=&quot;color: rgb(0 , 0 , 0) ; font-style: normal ; font-size: 9.0000pt&quot;&gt;&lt;font face=&quot;宋体&quot;&gt;3&lt;/font&gt;&lt;/span&gt;&lt;span style=&quot;color: rgb(0 , 0 , 0) ; font-style: normal ; font-size: 9.0000pt&quot;&gt;&lt;/span&gt;&lt;/p&gt;&lt;/td&gt;&lt;td style=&quot;width: 20.2500pt ; padding: 0.0000pt 5.4000pt 0.0000pt 5.4000pt ; border-left: none ; border-right: 1.0000pt solid ; border-top: none ; border-bottom: 1.0000pt solid&quot; width=&quot;33&quot; valign=&quot;center&quot;&gt;&lt;p class=&quot;MsoNormal&quot; style=&quot;text-align: right ; vertical-align: middle&quot; align=&quot;right&quot;&gt;&lt;span style=&quot;color: rgb(0 , 0 , 0) ; font-style: normal ; font-size: 9.0000pt&quot;&gt;&lt;font face=&quot;宋体&quot;&gt;3&lt;/font&gt;&lt;/span&gt;&lt;span style=&quot;color: rgb(0 , 0 , 0) ; font-style: normal ; font-size: 9.0000pt&quot;&gt;&lt;/span&gt;&lt;/p&gt;&lt;/td&gt;&lt;td style=&quot;width: 20.2500pt ; padding: 0.0000pt 5.4000pt 0.0000pt 5.4000pt ; border-left: none ; border-right: 1.0000pt solid ; border-top: none ; border-bottom: 1.0000pt solid&quot; width=&quot;33&quot; valign=&quot;center&quot;&gt;&lt;p class=&quot;MsoNormal&quot;&gt;&lt;span style=&quot;color: rgb(0 , 0 , 0) ; font-style: normal ; font-size: 9.0000pt&quot;&gt;&amp;nbsp;&lt;/span&gt;&lt;/p&gt;&lt;/td&gt;&lt;td style=&quot;width: 28.1000pt ; padding: 0.0000pt 5.4000pt 0.0000pt 5.4000pt ; border-left: none ; border-right: 1.0000pt solid ; border-top: none ; border-bottom: 1.0000pt solid&quot; width=&quot;46&quot; valign=&quot;center&quot;&gt;&lt;p class=&quot;MsoNormal&quot;&gt;&lt;span style=&quot;color: rgb(0 , 0 , 0) ; font-style: normal ; font-size: 9.0000pt&quot;&gt;&amp;nbsp;&lt;/span&gt;&lt;/p&gt;&lt;/td&gt;&lt;td style=&quot;width: 20.2500pt ; padding: 0.0000pt 5.4000pt 0.0000pt 5.4000pt ; border-left: none ; border-right: 1.0000pt solid ; border-top: none ; border-bottom: 1.0000pt solid&quot; width=&quot;33&quot; valign=&quot;center&quot;&gt;&lt;p class=&quot;MsoNormal&quot;&gt;&lt;span style=&quot;color: rgb(0 , 0 , 0) ; font-style: normal ; font-size: 9.0000pt&quot;&gt;&amp;nbsp;&lt;/span&gt;&lt;/p&gt;&lt;/td&gt;&lt;td style=&quot;width: 20.2500pt ; padding: 0.0000pt 5.4000pt 0.0000pt 5.4000pt ; border-left: none ; border-right: 1.0000pt solid ; border-top: none ; border-bottom: 1.0000pt solid&quot; width=&quot;33&quot; valign=&quot;center&quot;&gt;&lt;p class=&quot;MsoNormal&quot;&gt;&lt;span style=&quot;color: rgb(0 , 0 , 0) ; font-style: normal ; font-size: 9.0000pt&quot;&gt;&amp;nbsp;&lt;/span&gt;&lt;/p&gt;&lt;/td&gt;&lt;td style=&quot;width: 20.2500pt ; padding: 0.0000pt 5.4000pt 0.0000pt 5.4000pt ; border-left: none ; border-right: 1.0000pt solid ; border-top: none ; border-bottom: 1.0000pt solid&quot; width=&quot;33&quot; valign=&quot;center&quot;&gt;&lt;p class=&quot;MsoNormal&quot;&gt;&lt;span style=&quot;color: rgb(0 , 0 , 0) ; font-style: normal ; font-size: 9.0000pt&quot;&gt;&amp;nbsp;&lt;/span&gt;&lt;/p&gt;&lt;/td&gt;&lt;td style=&quot;width: 28.1000pt ; padding: 0.0000pt 5.4000pt 0.0000pt 5.4000pt ; border-left: none ; border-right: 1.0000pt solid ; border-top: none ; border-bottom: 1.0000pt solid&quot; width=&quot;46&quot; valign=&quot;center&quot;&gt;&lt;p class=&quot;MsoNormal&quot;&gt;&lt;span style=&quot;color: rgb(0 , 0 , 0) ; font-style: normal ; font-size: 9.0000pt&quot;&gt;&amp;nbsp;&lt;/span&gt;&lt;/p&gt;&lt;/td&gt;&lt;td style=&quot;width: 20.2500pt ; padding: 0.0000pt 5.4000pt 0.0000pt 5.4000pt ; border-left: none ; border-right: 1.0000pt solid ; border-top: none ; border-bottom: 1.0000pt solid&quot; width=&quot;33&quot; valign=&quot;center&quot;&gt;&lt;p class=&quot;MsoNormal&quot; style=&quot;text-align: right ; vertical-align: middle&quot; align=&quot;right&quot;&gt;&lt;span style=&quot;color: rgb(0 , 0 , 0) ; font-style: normal ; font-size: 9.0000pt&quot;&gt;&lt;font face=&quot;宋体&quot;&gt;3&lt;/font&gt;&lt;/span&gt;&lt;span style=&quot;color: rgb(0 , 0 , 0) ; font-style: normal ; font-size: 9.0000pt&quot;&gt;&lt;/span&gt;&lt;/p&gt;&lt;/td&gt;&lt;td style=&quot;width: 20.2500pt ; padding: 0.0000pt 5.4000pt 0.0000pt 5.4000pt ; border-left: none ; border-right: 1.0000pt solid ; border-top: none ; border-bottom: 1.0000pt solid&quot; width=&quot;33&quot; valign=&quot;center&quot;&gt;&lt;p class=&quot;MsoNormal&quot; style=&quot;text-align: right ; vertical-align: middle&quot; align=&quot;right&quot;&gt;&lt;span style=&quot;color: rgb(0 , 0 , 0) ; font-style: normal ; font-size: 9.0000pt&quot;&gt;&lt;font face=&quot;宋体&quot;&gt;1&lt;/font&gt;&lt;/span&gt;&lt;span style=&quot;color: rgb(0 , 0 , 0) ; font-style: normal ; font-size: 9.0000pt&quot;&gt;&lt;/span&gt;&lt;/p&gt;&lt;/td&gt;&lt;td style=&quot;width: 20.3500pt ; padding: 0.0000pt 5.4000pt 0.0000pt 5.4000pt ; border-left: none ; border-right: 1.0000pt solid ; border-top: none ; border-bottom: 1.0000pt solid&quot; width=&quot;33&quot; valign=&quot;center&quot;&gt;&lt;p class=&quot;MsoNormal&quot;&gt;&lt;span style=&quot;color: rgb(0 , 0 , 0) ; font-style: normal ; font-size: 9.0000pt&quot;&gt;&amp;nbsp;&lt;/span&gt;&lt;/p&gt;&lt;/td&gt;&lt;/tr&gt;&lt;tr style=&quot;height: 28.8000pt&quot;&gt;&lt;td style=&quot;width: 13.7500pt ; padding: 0.0000pt 5.4000pt 0.0000pt 5.4000pt ; border-left: 1.0000pt solid ; border-right: 1.0000pt solid ; border-top: none ; border-bottom: 1.0000pt solid&quot; width=&quot;22&quot; valign=&quot;center&quot;&gt;&lt;p class=&quot;MsoNormal&quot; style=&quot;text-align: justify ; vertical-align: middle&quot; align=&quot;justify&quot;&gt;&lt;span class=&quot;15&quot; style=&quot;color: rgb(0 , 0 , 0) ; font-style: normal ; font-size: 9.0000pt&quot;&gt;&lt;font face=&quot;Calibri&quot;&gt;CN2&lt;/font&gt;&lt;/span&gt;&lt;span style=&quot;font-family: &amp;#34;calibri&amp;#34; ; color: rgb(0 , 0 , 0) ; font-style: normal ; font-size: 9.0000pt&quot;&gt;&lt;/span&gt;&lt;/p&gt;&lt;/td&gt;&lt;td style=&quot;width: 19.5500pt ; padding: 0.0000pt 5.4000pt 0.0000pt 5.4000pt ; border-left: none ; border-right: 1.0000pt solid ; border-top: none ; border-bottom: 1.0000pt solid&quot; width=&quot;32&quot; valign=&quot;bottom&quot;&gt;&lt;p class=&quot;MsoNormal&quot; style=&quot;text-align: right ; vertical-align: bottom&quot; align=&quot;right&quot;&gt;&lt;span style=&quot;font-family: &amp;#34;arial&amp;#34; ; color: rgb(0 , 0 , 0) ; font-style: normal ; font-size: 9.0000pt&quot;&gt;0.3107&lt;/span&gt;&lt;span style=&quot;font-family: &amp;#34;arial&amp;#34; ; color: rgb(0 , 0 , 0) ; font-style: normal ; font-size: 9.0000pt&quot;&gt;&lt;/span&gt;&lt;/p&gt;&lt;/td&gt;&lt;td style=&quot;width: 28.1000pt ; padding: 0.0000pt 5.4000pt 0.0000pt 5.4000pt ; border-left: none ; border-right: 1.0000pt solid ; border-top: none ; border-bottom: 1.0000pt solid&quot; width=&quot;46&quot; valign=&quot;center&quot;&gt;&lt;p class=&quot;MsoNormal&quot;&gt;&lt;span style=&quot;color: rgb(0 , 0 , 0) ; font-style: normal ; font-size: 9.0000pt&quot;&gt;&amp;nbsp;&lt;/span&gt;&lt;/p&gt;&lt;/td&gt;&lt;td style=&quot;width: 20.2500pt ; padding: 0.0000pt 5.4000pt 0.0000pt 5.4000pt ; border-left: none ; border-right: 1.0000pt solid ; border-top: none ; border-bottom: 1.0000pt solid&quot; width=&quot;33&quot; valign=&quot;center&quot;&gt;&lt;p class=&quot;MsoNormal&quot;&gt;&lt;span style=&quot;color: rgb(0 , 0 , 0) ; font-style: normal ; font-size: 9.0000pt&quot;&gt;&amp;nbsp;&lt;/span&gt;&lt;/p&gt;&lt;/td&gt;&lt;td style=&quot;width: 20.2500pt ; padding: 0.0000pt 5.4000pt 0.0000pt 5.4000pt ; border-left: none ; border-right: 1.0000pt solid ; border-top: none ; border-bottom: 1.0000pt solid&quot; width=&quot;33&quot; valign=&quot;center&quot;&gt;&lt;p class=&quot;MsoNormal&quot;&gt;&lt;span style=&quot;color: rgb(0 , 0 , 0) ; font-style: normal ; font-size: 9.0000pt&quot;&gt;&amp;nbsp;&lt;/span&gt;&lt;/p&gt;&lt;/td&gt;&lt;td style=&quot;width: 20.2500pt ; padding: 0.0000pt 5.4000pt 0.0000pt 5.4000pt ; border-left: none ; border-right: 1.0000pt solid ; border-top: none ; border-bottom: 1.0000pt solid&quot; width=&quot;33&quot; valign=&quot;center&quot;&gt;&lt;p class=&quot;MsoNormal&quot;&gt;&lt;span style=&quot;color: rgb(0 , 0 , 0) ; font-style: normal ; font-size: 9.0000pt&quot;&gt;&amp;nbsp;&lt;/span&gt;&lt;/p&gt;&lt;/td&gt;&lt;td style=&quot;width: 20.2500pt ; padding: 0.0000pt 5.4000pt 0.0000pt 5.4000pt ; border-left: none ; border-right: 1.0000pt solid ; border-top: none ; border-bottom: 1.0000pt solid&quot; width=&quot;33&quot; valign=&quot;center&quot;&gt;&lt;p class=&quot;MsoNormal&quot;&gt;&lt;span style=&quot;color: rgb(0 , 0 , 0) ; font-style: normal ; font-size: 9.0000pt&quot;&gt;&amp;nbsp;&lt;/span&gt;&lt;/p&gt;&lt;/td&gt;&lt;td style=&quot;width: 18.6500pt ; padding: 0.0000pt 5.4000pt 0.0000pt 5.4000pt ; border-left: none ; border-right: 1.0000pt solid ; border-top: none ; border-bottom: 1.0000pt solid&quot; width=&quot;31&quot; valign=&quot;center&quot;&gt;&lt;p class=&quot;MsoNormal&quot;&gt;&lt;span style=&quot;color: rgb(0 , 0 , 0) ; font-style: normal ; font-size: 9.0000pt&quot;&gt;&amp;nbsp;&lt;/span&gt;&lt;/p&gt;&lt;/td&gt;&lt;td style=&quot;width: 18.6500pt ; padding: 0.0000pt 5.4000pt 0.0000pt 5.4000pt ; border-left: none ; border-right: 1.0000pt solid ; border-top: none ; border-bottom: 1.0000pt solid&quot; width=&quot;31&quot; valign=&quot;center&quot;&gt;&lt;p class=&quot;MsoNormal&quot;&gt;&lt;span style=&quot;color: rgb(0 , 0 , 0) ; font-style: normal ; font-size: 9.0000pt&quot;&gt;&amp;nbsp;&lt;/span&gt;&lt;/p&gt;&lt;/td&gt;&lt;td style=&quot;width: 28.1000pt ; padding: 0.0000pt 5.4000pt 0.0000pt 5.4000pt ; border-left: none ; border-right: 1.0000pt solid ; border-top: none ; border-bottom: 1.0000pt solid&quot; width=&quot;46&quot; valign=&quot;center&quot;&gt;&lt;p class=&quot;MsoNormal&quot;&gt;&lt;span style=&quot;color: rgb(0 , 0 , 0) ; font-style: normal ; font-size: 9.0000pt&quot;&gt;&amp;nbsp;&lt;/span&gt;&lt;/p&gt;&lt;/td&gt;&lt;td style=&quot;width: 20.2500pt ; padding: 0.0000pt 5.4000pt 0.0000pt 5.4000pt ; border-left: none ; border-right: 1.0000pt solid ; border-top: none ; border-bottom: 1.0000pt solid&quot; width=&quot;33&quot; valign=&quot;center&quot;&gt;&lt;p class=&quot;MsoNormal&quot;&gt;&lt;span style=&quot;color: rgb(0 , 0 , 0) ; font-style: normal ; font-size: 9.0000pt&quot;&gt;&amp;nbsp;&lt;/span&gt;&lt;/p&gt;&lt;/td&gt;&lt;td style=&quot;width: 20.2500pt ; padding: 0.0000pt 5.4000pt 0.0000pt 5.4000pt ; border-left: none ; border-right: 1.0000pt solid ; border-top: none ; border-bottom: 1.0000pt solid&quot; width=&quot;33&quot; valign=&quot;center&quot;&gt;&lt;p class=&quot;MsoNormal&quot;&gt;&lt;span style=&quot;color: rgb(0 , 0 , 0) ; font-style: normal ; font-size: 9.0000pt&quot;&gt;&amp;nbsp;&lt;/span&gt;&lt;/p&gt;&lt;/td&gt;&lt;td style=&quot;width: 28.1000pt ; padding: 0.0000pt 5.4000pt 0.0000pt 5.4000pt ; border-left: none ; border-right: 1.0000pt solid ; border-top: none ; border-bottom: 1.0000pt solid&quot; width=&quot;46&quot; valign=&quot;center&quot;&gt;&lt;p class=&quot;MsoNormal&quot;&gt;&lt;span style=&quot;color: rgb(0 , 0 , 0) ; font-style: normal ; font-size: 9.0000pt&quot;&gt;&amp;nbsp;&lt;/span&gt;&lt;/p&gt;&lt;/td&gt;&lt;td style=&quot;width: 20.2500pt ; padding: 0.0000pt 5.4000pt 0.0000pt 5.4000pt ; border-left: none ; border-right: 1.0000pt solid ; border-top: none ; border-bottom: 1.0000pt solid&quot; width=&quot;33&quot; valign=&quot;center&quot;&gt;&lt;p class=&quot;MsoNormal&quot;&gt;&lt;span style=&quot;color: rgb(0 , 0 , 0) ; font-style: normal ; font-size: 9.0000pt&quot;&gt;&amp;nbsp;&lt;/span&gt;&lt;/p&gt;&lt;/td&gt;&lt;td style=&quot;width: 20.2500pt ; padding: 0.0000pt 5.4000pt 0.0000pt 5.4000pt ; border-left: none ; border-right: 1.0000pt solid ; border-top: none ; border-bottom: 1.0000pt solid&quot; width=&quot;33&quot; valign=&quot;center&quot;&gt;&lt;p class=&quot;MsoNormal&quot;&gt;&lt;span style=&quot;color: rgb(0 , 0 , 0) ; font-style: normal ; font-size: 9.0000pt&quot;&gt;&amp;nbsp;&lt;/span&gt;&lt;/p&gt;&lt;/td&gt;&lt;td style=&quot;width: 20.2500pt ; padding: 0.0000pt 5.4000pt 0.0000pt 5.4000pt ; border-left: none ; border-right: 1.0000pt solid ; border-top: none ; border-bottom: 1.0000pt solid&quot; width=&quot;33&quot; valign=&quot;center&quot;&gt;&lt;p class=&quot;MsoNormal&quot;&gt;&lt;span style=&quot;color: rgb(0 , 0 , 0) ; font-style: normal ; font-size: 9.0000pt&quot;&gt;&amp;nbsp;&lt;/span&gt;&lt;/p&gt;&lt;/td&gt;&lt;td style=&quot;width: 28.1000pt ; padding: 0.0000pt 5.4000pt 0.0000pt 5.4000pt ; border-left: none ; border-right: 1.0000pt solid ; border-top: none ; border-bottom: 1.0000pt solid&quot; width=&quot;46&quot; valign=&quot;center&quot;&gt;&lt;p class=&quot;MsoNormal&quot; style=&quot;text-align: right ; vertical-align: middle&quot; align=&quot;right&quot;&gt;&lt;span style=&quot;color: rgb(0 , 0 , 0) ; font-style: normal ; font-size: 9.0000pt&quot;&gt;&lt;font face=&quot;宋体&quot;&gt;1&lt;/font&gt;&lt;/span&gt;&lt;span style=&quot;color: rgb(0 , 0 , 0) ; font-style: normal ; font-size: 9.0000pt&quot;&gt;&lt;/span&gt;&lt;/p&gt;&lt;/td&gt;&lt;td style=&quot;width: 20.2500pt ; padding: 0.0000pt 5.4000pt 0.0000pt 5.4000pt ; border-left: none ; border-right: 1.0000pt solid ; border-top: none ; border-bottom: 1.0000pt solid&quot; width=&quot;33&quot; valign=&quot;center&quot;&gt;&lt;p class=&quot;MsoNormal&quot; style=&quot;text-align: right ; vertical-align: middle&quot; align=&quot;right&quot;&gt;&lt;span style=&quot;color: rgb(0 , 0 , 0) ; font-style: normal ; font-size: 9.0000pt&quot;&gt;&lt;font face=&quot;宋体&quot;&gt;1&lt;/font&gt;&lt;/span&gt;&lt;span style=&quot;color: rgb(0 , 0 , 0) ; font-style: normal ; font-size: 9.0000pt&quot;&gt;&lt;/span&gt;&lt;/p&gt;&lt;/td&gt;&lt;td style=&quot;width: 20.2500pt ; padding: 0.0000pt 5.4000pt 0.0000pt 5.4000pt ; border-left: none ; border-right: 1.0000pt solid ; border-top: none ; border-bottom: 1.0000pt solid&quot; width=&quot;33&quot; valign=&quot;center&quot;&gt;&lt;p class=&quot;MsoNormal&quot; style=&quot;text-align: right ; vertical-align: middle&quot; align=&quot;right&quot;&gt;&lt;span style=&quot;color: rgb(0 , 0 , 0) ; font-style: normal ; font-size: 9.0000pt&quot;&gt;&lt;font face=&quot;宋体&quot;&gt;3&lt;/font&gt;&lt;/span&gt;&lt;span style=&quot;color: rgb(0 , 0 , 0) ; font-style: normal ; font-size: 9.0000pt&quot;&gt;&lt;/span&gt;&lt;/p&gt;&lt;/td&gt;&lt;td style=&quot;width: 20.3500pt ; padding: 0.0000pt 5.4000pt 0.0000pt 5.4000pt ; border-left: none ; border-right: 1.0000pt solid ; border-top: none ; border-bottom: 1.0000pt solid&quot; width=&quot;33&quot; valign=&quot;center&quot;&gt;&lt;p class=&quot;MsoNormal&quot;&gt;&lt;span style=&quot;color: rgb(0 , 0 , 0) ; font-style: normal ; font-size: 9.0000pt&quot;&gt;&amp;nbsp;&lt;/span&gt;&lt;/p&gt;&lt;/td&gt;&lt;/tr&gt;&lt;tr style=&quot;height: 28.8000pt&quot;&gt;&lt;td style=&quot;width: 13.7500pt ; padding: 0.0000pt 5.4000pt 0.0000pt 5.4000pt ; border-left: 1.0000pt solid ; border-right: 1.0000pt solid ; border-top: none ; border-bottom: 1.0000pt solid&quot; width=&quot;22&quot; valign=&quot;center&quot;&gt;&lt;p class=&quot;MsoNormal&quot; style=&quot;text-align: justify ; vertical-align: middle&quot; align=&quot;justify&quot;&gt;&lt;span class=&quot;15&quot; style=&quot;color: rgb(0 , 0 , 0) ; font-style: normal ; font-size: 9.0000pt&quot;&gt;&lt;font face=&quot;Calibri&quot;&gt;CN3&lt;/font&gt;&lt;/span&gt;&lt;span style=&quot;font-family: &amp;#34;calibri&amp;#34; ; color: rgb(0 , 0 , 0) ; font-style: normal ; font-size: 9.0000pt&quot;&gt;&lt;/span&gt;&lt;/p&gt;&lt;/td&gt;&lt;td style=&quot;width: 19.5500pt ; padding: 0.0000pt 5.4000pt 0.0000pt 5.4000pt ; border-left: none ; border-right: 1.0000pt solid ; border-top: none ; border-bottom: 1.0000pt solid&quot; width=&quot;32&quot; valign=&quot;bottom&quot;&gt;&lt;p class=&quot;MsoNormal&quot; style=&quot;text-align: right ; vertical-align: bottom&quot; align=&quot;right&quot;&gt;&lt;span style=&quot;font-family: &amp;#34;arial&amp;#34; ; color: rgb(0 , 0 , 0) ; font-style: normal ; font-size: 9.0000pt&quot;&gt;0.1524&lt;/span&gt;&lt;span style=&quot;font-family: &amp;#34;arial&amp;#34; ; color: rgb(0 , 0 , 0) ; font-style: normal ; font-size: 9.0000pt&quot;&gt;&lt;/span&gt;&lt;/p&gt;&lt;/td&gt;&lt;td style=&quot;width: 28.1000pt ; padding: 0.0000pt 5.4000pt 0.0000pt 5.4000pt ; border-left: none ; border-right: 1.0000pt solid ; border-top: none ; border-bottom: 1.0000pt solid&quot; width=&quot;46&quot; valign=&quot;center&quot;&gt;&lt;p class=&quot;MsoNormal&quot;&gt;&lt;span style=&quot;color: rgb(0 , 0 , 0) ; font-style: normal ; font-size: 9.0000pt&quot;&gt;&amp;nbsp;&lt;/span&gt;&lt;/p&gt;&lt;/td&gt;&lt;td style=&quot;width: 20.2500pt ; padding: 0.0000pt 5.4000pt 0.0000pt 5.4000pt ; border-left: none ; border-right: 1.0000pt solid ; border-top: none ; border-bottom: 1.0000pt solid&quot; width=&quot;33&quot; valign=&quot;center&quot;&gt;&lt;p class=&quot;MsoNormal&quot;&gt;&lt;span style=&quot;color: rgb(0 , 0 , 0) ; font-style: normal ; font-size: 9.0000pt&quot;&gt;&amp;nbsp;&lt;/span&gt;&lt;/p&gt;&lt;/td&gt;&lt;td style=&quot;width: 20.2500pt ; padding: 0.0000pt 5.4000pt 0.0000pt 5.4000pt ; border-left: none ; border-right: 1.0000pt solid ; border-top: none ; border-bottom: 1.0000pt solid&quot; width=&quot;33&quot; valign=&quot;center&quot;&gt;&lt;p class=&quot;MsoNormal&quot; style=&quot;text-align: right ; vertical-align: middle&quot; align=&quot;right&quot;&gt;&lt;span style=&quot;color: rgb(0 , 0 , 0) ; font-style: normal ; font-size: 9.0000pt&quot;&gt;&lt;font face=&quot;宋体&quot;&gt;5&lt;/font&gt;&lt;/span&gt;&lt;span style=&quot;color: rgb(0 , 0 , 0) ; font-style: normal ; font-size: 9.0000pt&quot;&gt;&lt;/span&gt;&lt;/p&gt;&lt;/td&gt;&lt;td style=&quot;width: 20.2500pt ; padding: 0.0000pt 5.4000pt 0.0000pt 5.4000pt ; border-left: none ; border-right: 1.0000pt solid ; border-top: none ; border-bottom: 1.0000pt solid&quot; width=&quot;33&quot; valign=&quot;center&quot;&gt;&lt;p class=&quot;MsoNormal&quot;&gt;&lt;span style=&quot;color: rgb(0 , 0 , 0) ; font-style: normal ; font-size: 9.0000pt&quot;&gt;&amp;nbsp;&lt;/span&gt;&lt;/p&gt;&lt;/td&gt;&lt;td style=&quot;width: 20.2500pt ; padding: 0.0000pt 5.4000pt 0.0000pt 5.4000pt ; border-left: none ; border-right: 1.0000pt solid ; border-top: none ; border-bottom: 1.0000pt solid&quot; width=&quot;33&quot; valign=&quot;center&quot;&gt;&lt;p class=&quot;MsoNormal&quot;&gt;&lt;span style=&quot;color: rgb(0 , 0 , 0) ; font-style: normal ; font-size: 9.0000pt&quot;&gt;&amp;nbsp;&lt;/span&gt;&lt;/p&gt;&lt;/td&gt;&lt;td style=&quot;width: 18.6500pt ; padding: 0.0000pt 5.4000pt 0.0000pt 5.4000pt ; border-left: none ; border-right: 1.0000pt solid ; border-top: none ; border-bottom: 1.0000pt solid&quot; width=&quot;31&quot; valign=&quot;center&quot;&gt;&lt;p class=&quot;MsoNormal&quot;&gt;&lt;span style=&quot;color: rgb(0 , 0 , 0) ; font-style: normal ; font-size: 9.0000pt&quot;&gt;&amp;nbsp;&lt;/span&gt;&lt;/p&gt;&lt;/td&gt;&lt;td style=&quot;width: 18.6500pt ; padding: 0.0000pt 5.4000pt 0.0000pt 5.4000pt ; border-left: none ; border-right: 1.0000pt solid ; border-top: none ; border-bottom: 1.0000pt solid&quot; width=&quot;31&quot; valign=&quot;center&quot;&gt;&lt;p class=&quot;MsoNormal&quot;&gt;&lt;span style=&quot;color: rgb(0 , 0 , 0) ; font-style: normal ; font-size: 9.0000pt&quot;&gt;&amp;nbsp;&lt;/span&gt;&lt;/p&gt;&lt;/td&gt;&lt;td style=&quot;width: 28.1000pt ; padding: 0.0000pt 5.4000pt 0.0000pt 5.4000pt ; border-left: none ; border-right: 1.0000pt solid ; border-top: none ; border-bottom: 1.0000pt solid&quot; width=&quot;46&quot; valign=&quot;center&quot;&gt;&lt;p class=&quot;MsoNormal&quot;&gt;&lt;span style=&quot;color: rgb(0 , 0 , 0) ; font-style: normal ; font-size: 9.0000pt&quot;&gt;&amp;nbsp;&lt;/span&gt;&lt;/p&gt;&lt;/td&gt;&lt;td style=&quot;width: 20.2500pt ; padding: 0.0000pt 5.4000pt 0.0000pt 5.4000pt ; border-left: none ; border-right: 1.0000pt solid ; border-top: none ; border-bottom: 1.0000pt solid&quot; width=&quot;33&quot; valign=&quot;center&quot;&gt;&lt;p class=&quot;MsoNormal&quot;&gt;&lt;span style=&quot;color: rgb(0 , 0 , 0) ; font-style: normal ; font-size: 9.0000pt&quot;&gt;&amp;nbsp;&lt;/span&gt;&lt;/p&gt;&lt;/td&gt;&lt;td style=&quot;width: 20.2500pt ; padding: 0.0000pt 5.4000pt 0.0000pt 5.4000pt ; border-left: none ; border-right: 1.0000pt solid ; border-top: none ; border-bottom: 1.0000pt solid&quot; width=&quot;33&quot; valign=&quot;center&quot;&gt;&lt;p class=&quot;MsoNormal&quot;&gt;&lt;span style=&quot;color: rgb(0 , 0 , 0) ; font-style: normal ; font-size: 9.0000pt&quot;&gt;&amp;nbsp;&lt;/span&gt;&lt;/p&gt;&lt;/td&gt;&lt;td style=&quot;width: 28.1000pt ; padding: 0.0000pt 5.4000pt 0.0000pt 5.4000pt ; border-left: none ; border-right: 1.0000pt solid ; border-top: none ; border-bottom: 1.0000pt solid&quot; width=&quot;46&quot; valign=&quot;center&quot;&gt;&lt;p class=&quot;MsoNormal&quot; style=&quot;text-align: right ; vertical-align: middle&quot; align=&quot;right&quot;&gt;&lt;span style=&quot;color: rgb(0 , 0 , 0) ; font-style: normal ; font-size: 9.0000pt&quot;&gt;&lt;font face=&quot;宋体&quot;&gt;1&lt;/font&gt;&lt;/span&gt;&lt;span style=&quot;color: rgb(0 , 0 , 0) ; font-style: normal ; font-size: 9.0000pt&quot;&gt;&lt;/span&gt;&lt;/p&gt;&lt;/td&gt;&lt;td style=&quot;width: 20.2500pt ; padding: 0.0000pt 5.4000pt 0.0000pt 5.4000pt ; border-left: none ; border-right: 1.0000pt solid ; border-top: none ; border-bottom: 1.0000pt solid&quot; width=&quot;33&quot; valign=&quot;center&quot;&gt;&lt;p class=&quot;MsoNormal&quot; style=&quot;text-align: right ; vertical-align: middle&quot; align=&quot;right&quot;&gt;&lt;span style=&quot;color: rgb(0 , 0 , 0) ; font-style: normal ; font-size: 9.0000pt&quot;&gt;&lt;font face=&quot;宋体&quot;&gt;5&lt;/font&gt;&lt;/span&gt;&lt;span style=&quot;color: rgb(0 , 0 , 0) ; font-style: normal ; font-size: 9.0000pt&quot;&gt;&lt;/span&gt;&lt;/p&gt;&lt;/td&gt;&lt;td style=&quot;width: 20.2500pt ; padding: 0.0000pt 5.4000pt 0.0000pt 5.4000pt ; border-left: none ; border-right: 1.0000pt solid ; border-top: none ; border-bottom: 1.0000pt solid&quot; width=&quot;33&quot; valign=&quot;center&quot;&gt;&lt;p class=&quot;MsoNormal&quot;&gt;&lt;span style=&quot;color: rgb(0 , 0 , 0) ; font-style: normal ; font-size: 9.0000pt&quot;&gt;&amp;nbsp;&lt;/span&gt;&lt;/p&gt;&lt;/td&gt;&lt;td style=&quot;width: 20.2500pt ; padding: 0.0000pt 5.4000pt 0.0000pt 5.4000pt ; border-left: none ; border-right: 1.0000pt solid ; border-top: none ; border-bottom: 1.0000pt solid&quot; width=&quot;33&quot; valign=&quot;center&quot;&gt;&lt;p class=&quot;MsoNormal&quot;&gt;&lt;span style=&quot;color: rgb(0 , 0 , 0) ; font-style: normal ; font-size: 9.0000pt&quot;&gt;&amp;nbsp;&lt;/span&gt;&lt;/p&gt;&lt;/td&gt;&lt;td style=&quot;width: 28.1000pt ; padding: 0.0000pt 5.4000pt 0.0000pt 5.4000pt ; border-left: none ; border-right: 1.0000pt solid ; border-top: none ; border-bottom: 1.0000pt solid&quot; width=&quot;46&quot; valign=&quot;center&quot;&gt;&lt;p class=&quot;MsoNormal&quot;&gt;&lt;span style=&quot;color: rgb(0 , 0 , 0) ; font-style: normal ; font-size: 9.0000pt&quot;&gt;&amp;nbsp;&lt;/span&gt;&lt;/p&gt;&lt;/td&gt;&lt;td style=&quot;width: 20.2500pt ; padding: 0.0000pt 5.4000pt 0.0000pt 5.4000pt ; border-left: none ; border-right: 1.0000pt solid ; border-top: none ; border-bottom: 1.0000pt solid&quot; width=&quot;33&quot; valign=&quot;center&quot;&gt;&lt;p class=&quot;MsoNormal&quot;&gt;&lt;span style=&quot;color: rgb(0 , 0 , 0) ; font-style: normal ; font-size: 9.0000pt&quot;&gt;&amp;nbsp;&lt;/span&gt;&lt;/p&gt;&lt;/td&gt;&lt;td style=&quot;width: 20.2500pt ; padding: 0.0000pt 5.4000pt 0.0000pt 5.4000pt ; border-left: none ; border-right: 1.0000pt solid ; border-top: none ; border-bottom: 1.0000pt solid&quot; width=&quot;33&quot; valign=&quot;center&quot;&gt;&lt;p class=&quot;MsoNormal&quot;&gt;&lt;span style=&quot;color: rgb(0 , 0 , 0) ; font-style: normal ; font-size: 9pt ; line-height: 1.3&quot;&gt;&amp;nbsp;&lt;/span&gt;&lt;/p&gt;&lt;/td&gt;&lt;td style=&quot;width: 20.3500pt ; padding: 0.0000pt 5.4000pt 0.0000pt 5.4000pt ; border-left: none ; border-right: 1.0000pt solid ; border-top: none ; border-bottom: 1.0000pt solid&quot; width=&quot;33&quot; valign=&quot;center&quot;&gt;&lt;p class=&quot;MsoNormal&quot;&gt;&lt;span style=&quot;color: rgb(0 , 0 , 0) ; font-style: normal ; font-size: 9.0000pt&quot;&gt;&amp;nbsp;&lt;/span&gt;&lt;/p&gt;&lt;/td&gt;&lt;/tr&gt;&lt;tr style=&quot;height: 28.8000pt&quot;&gt;&lt;td style=&quot;width: 13.7500pt ; padding: 0.0000pt 5.4000pt 0.0000pt 5.4000pt ; border-left: 1.0000pt solid ; border-right: 1.0000pt solid ; border-top: none ; border-bottom: 1.0000pt solid&quot; width=&quot;22&quot; valign=&quot;center&quot;&gt;&lt;p class=&quot;MsoNormal&quot; style=&quot;text-align: justify ; vertical-align: middle&quot; align=&quot;justify&quot;&gt;&lt;span class=&quot;15&quot; style=&quot;color: rgb(0 , 0 , 0) ; font-style: normal ; font-size: 9.0000pt&quot;&gt;&lt;font face=&quot;Calibri&quot;&gt;CN4&lt;/font&gt;&lt;/span&gt;&lt;span style=&quot;font-family: &amp;#34;calibri&amp;#34; ; color: rgb(0 , 0 , 0) ; font-style: normal ; font-size: 9.0000pt&quot;&gt;&lt;/span&gt;&lt;/p&gt;&lt;/td&gt;&lt;td style=&quot;width: 19.5500pt ; padding: 0.0000pt 5.4000pt 0.0000pt 5.4000pt ; border-left: none ; border-right: 1.0000pt solid ; border-top: none ; border-bottom: 1.0000pt solid&quot; width=&quot;32&quot; valign=&quot;bottom&quot;&gt;&lt;p class=&quot;MsoNormal&quot; style=&quot;text-align: right ; vertical-align: bottom&quot; align=&quot;right&quot;&gt;&lt;span style=&quot;font-family: &amp;#34;arial&amp;#34; ; color: rgb(0 , 0 , 0) ; font-style: normal ; font-size: 9.0000pt&quot;&gt;0.1503&lt;/span&gt;&lt;span style=&quot;font-family: &amp;#34;arial&amp;#34; ; color: rgb(0 , 0 , 0) ; font-style: normal ; font-size: 9.0000pt&quot;&gt;&lt;/span&gt;&lt;/p&gt;&lt;/td&gt;&lt;td style=&quot;width: 28.1000pt ; padding: 0.0000pt 5.4000pt 0.0000pt 5.4000pt ; border-left: none ; border-right: 1.0000pt solid ; border-top: none ; border-bottom: 1.0000pt solid&quot; width=&quot;46&quot; valign=&quot;center&quot;&gt;&lt;p class=&quot;MsoNormal&quot; style=&quot;text-align: right ; vertical-align: middle&quot; align=&quot;right&quot;&gt;&lt;span style=&quot;color: rgb(0 , 0 , 0) ; font-style: normal ; font-size: 9.0000pt&quot;&gt;&lt;font face=&quot;宋体&quot;&gt;3&lt;/font&gt;&lt;/span&gt;&lt;span style=&quot;color: rgb(0 , 0 , 0) ; font-style: normal ; font-size: 9.0000pt&quot;&gt;&lt;/span&gt;&lt;/p&gt;&lt;/td&gt;&lt;td style=&quot;width: 20.2500pt ; padding: 0.0000pt 5.4000pt 0.0000pt 5.4000pt ; border-left: none ; border-right: 1.0000pt solid ; border-top: none ; border-bottom: 1.0000pt solid&quot; width=&quot;33&quot; valign=&quot;center&quot;&gt;&lt;p class=&quot;MsoNormal&quot; style=&quot;text-align: right ; vertical-align: middle&quot; align=&quot;right&quot;&gt;&lt;span style=&quot;color: rgb(0 , 0 , 0) ; font-style: normal ; font-size: 9.0000pt&quot;&gt;&lt;font face=&quot;宋体&quot;&gt;5&lt;/font&gt;&lt;/span&gt;&lt;span style=&quot;color: rgb(0 , 0 , 0) ; font-style: normal ; font-size: 9.0000pt&quot;&gt;&lt;/span&gt;&lt;/p&gt;&lt;/td&gt;&lt;td style=&quot;width: 20.2500pt ; padding: 0.0000pt 5.4000pt 0.0000pt 5.4000pt ; border-left: none ; border-right: 1.0000pt solid ; border-top: none ; border-bottom: 1.0000pt solid&quot; width=&quot;33&quot; valign=&quot;center&quot;&gt;&lt;p class=&quot;MsoNormal&quot; style=&quot;text-align: right ; vertical-align: middle&quot; align=&quot;right&quot;&gt;&lt;span style=&quot;color: rgb(0 , 0 , 0) ; font-style: normal ; font-size: 9.0000pt&quot;&gt;&lt;font face=&quot;宋体&quot;&gt;5&lt;/font&gt;&lt;/span&gt;&lt;span style=&quot;color: rgb(0 , 0 , 0) ; font-style: normal ; font-size: 9.0000pt&quot;&gt;&lt;/span&gt;&lt;/p&gt;&lt;/td&gt;&lt;td style=&quot;width: 20.2500pt ; padding: 0.0000pt 5.4000pt 0.0000pt 5.4000pt ; border-left: none ; border-right: 1.0000pt solid ; border-top: none ; border-bottom: 1.0000pt solid&quot; width=&quot;33&quot; valign=&quot;center&quot;&gt;&lt;p class=&quot;MsoNormal&quot; style=&quot;text-align: right ; vertical-align: middle&quot; align=&quot;right&quot;&gt;&lt;span style=&quot;color: rgb(0 , 0 , 0) ; font-style: normal ; font-size: 9.0000pt&quot;&gt;&lt;font face=&quot;宋体&quot;&gt;5&lt;/font&gt;&lt;/span&gt;&lt;span style=&quot;color: rgb(0 , 0 , 0) ; font-style: normal ; font-size: 9.0000pt&quot;&gt;&lt;/span&gt;&lt;/p&gt;&lt;/td&gt;&lt;td style=&quot;width: 20.2500pt ; padding: 0.0000pt 5.4000pt 0.0000pt 5.4000pt ; border-left: none ; border-right: 1.0000pt solid ; border-top: none ; border-bottom: 1.0000pt solid&quot; width=&quot;33&quot; valign=&quot;center&quot;&gt;&lt;p class=&quot;MsoNormal&quot; style=&quot;text-align: right ; vertical-align: middle&quot; align=&quot;right&quot;&gt;&lt;span style=&quot;color: rgb(0 , 0 , 0) ; font-style: normal ; font-size: 9.0000pt&quot;&gt;&lt;font face=&quot;宋体&quot;&gt;5&lt;/font&gt;&lt;/span&gt;&lt;span style=&quot;color: rgb(0 , 0 , 0) ; font-style: normal ; font-size: 9.0000pt&quot;&gt;&lt;/span&gt;&lt;/p&gt;&lt;/td&gt;&lt;td style=&quot;width: 18.6500pt ; padding: 0.0000pt 5.4000pt 0.0000pt 5.4000pt ; border-left: none ; border-right: 1.0000pt solid ; border-top: none ; border-bottom: 1.0000pt solid&quot; width=&quot;31&quot; valign=&quot;center&quot;&gt;&lt;p class=&quot;MsoNormal&quot; style=&quot;text-align: right ; vertical-align: middle&quot; align=&quot;right&quot;&gt;&lt;span style=&quot;color: rgb(0 , 0 , 0) ; font-style: normal ; font-size: 9.0000pt&quot;&gt;&lt;font face=&quot;宋体&quot;&gt;1&lt;/font&gt;&lt;/span&gt;&lt;span style=&quot;color: rgb(0 , 0 , 0) ; font-style: normal ; font-size: 9.0000pt&quot;&gt;&lt;/span&gt;&lt;/p&gt;&lt;/td&gt;&lt;td style=&quot;width: 18.6500pt ; padding: 0.0000pt 5.4000pt 0.0000pt 5.4000pt ; border-left: none ; border-right: 1.0000pt solid ; border-top: none ; border-bottom: 1.0000pt solid&quot; width=&quot;31&quot; valign=&quot;center&quot;&gt;&lt;p class=&quot;MsoNormal&quot; style=&quot;text-align: right ; vertical-align: middle&quot; align=&quot;right&quot;&gt;&lt;span style=&quot;color: rgb(0 , 0 , 0) ; font-style: normal ; font-size: 9.0000pt&quot;&gt;&lt;font face=&quot;宋体&quot;&gt;3&lt;/font&gt;&lt;/span&gt;&lt;span style=&quot;color: rgb(0 , 0 , 0) ; font-style: normal ; font-size: 9.0000pt&quot;&gt;&lt;/span&gt;&lt;/p&gt;&lt;/td&gt;&lt;td style=&quot;width: 28.1000pt ; padding: 0.0000pt 5.4000pt 0.0000pt 5.4000pt ; border-left: none ; border-right: 1.0000pt solid ; border-top: none ; border-bottom: 1.0000pt solid&quot; width=&quot;46&quot; valign=&quot;center&quot;&gt;&lt;p class=&quot;MsoNormal&quot;&gt;&lt;span style=&quot;color: rgb(0 , 0 , 0) ; font-style: normal ; font-size: 9.0000pt&quot;&gt;&amp;nbsp;&lt;/span&gt;&lt;/p&gt;&lt;/td&gt;&lt;td style=&quot;width: 20.2500pt ; padding: 0.0000pt 5.4000pt 0.0000pt 5.4000pt ; border-left: none ; border-right: 1.0000pt solid ; border-top: none ; border-bottom: 1.0000pt solid&quot; width=&quot;33&quot; valign=&quot;center&quot;&gt;&lt;p class=&quot;MsoNormal&quot;&gt;&lt;span style=&quot;color: rgb(0 , 0 , 0) ; font-style: normal ; font-size: 9.0000pt&quot;&gt;&amp;nbsp;&lt;/span&gt;&lt;/p&gt;&lt;/td&gt;&lt;td style=&quot;width: 20.2500pt ; padding: 0.0000pt 5.4000pt 0.0000pt 5.4000pt ; border-left: none ; border-right: 1.0000pt solid ; border-top: none ; border-bottom: 1.0000pt solid&quot; width=&quot;33&quot; valign=&quot;center&quot;&gt;&lt;p class=&quot;MsoNormal&quot;&gt;&lt;span style=&quot;color: rgb(0 , 0 , 0) ; font-style: normal ; font-size: 9.0000pt&quot;&gt;&amp;nbsp;&lt;/span&gt;&lt;/p&gt;&lt;/td&gt;&lt;td style=&quot;width: 28.1000pt ; padding: 0.0000pt 5.4000pt 0.0000pt 5.4000pt ; border-left: none ; border-right: 1.0000pt solid ; border-top: none ; border-bottom: 1.0000pt solid&quot; width=&quot;46&quot; valign=&quot;center&quot;&gt;&lt;p class=&quot;MsoNormal&quot;&gt;&lt;span style=&quot;color: rgb(0 , 0 , 0) ; font-style: normal ; font-size: 9.0000pt&quot;&gt;&amp;nbsp;&lt;/span&gt;&lt;/p&gt;&lt;/td&gt;&lt;td style=&quot;width: 20.2500pt ; padding: 0.0000pt 5.4000pt 0.0000pt 5.4000pt ; border-left: none ; border-right: 1.0000pt solid ; border-top: none ; border-bottom: 1.0000pt solid&quot; width=&quot;33&quot; valign=&quot;center&quot;&gt;&lt;p class=&quot;MsoNormal&quot;&gt;&lt;span style=&quot;color: rgb(0 , 0 , 0) ; font-style: normal ; font-size: 9.0000pt&quot;&gt;&amp;nbsp;&lt;/span&gt;&lt;/p&gt;&lt;/td&gt;&lt;td style=&quot;width: 20.2500pt ; padding: 0.0000pt 5.4000pt 0.0000pt 5.4000pt ; border-left: none ; border-right: 1.0000pt solid ; border-top: none ; border-bottom: 1.0000pt solid&quot; width=&quot;33&quot; valign=&quot;center&quot;&gt;&lt;p class=&quot;MsoNormal&quot;&gt;&lt;span style=&quot;color: rgb(0 , 0 , 0) ; font-style: normal ; font-size: 9.0000pt&quot;&gt;&amp;nbsp;&lt;/span&gt;&lt;/p&gt;&lt;/td&gt;&lt;td style=&quot;width: 20.2500pt ; padding: 0.0000pt 5.4000pt 0.0000pt 5.4000pt ; border-left: none ; border-right: 1.0000pt solid ; border-top: none ; border-bottom: 1.0000pt solid&quot; width=&quot;33&quot; valign=&quot;center&quot;&gt;&lt;p class=&quot;MsoNormal&quot;&gt;&lt;span style=&quot;color: rgb(0 , 0 , 0) ; font-style: normal ; font-size: 9.0000pt&quot;&gt;&amp;nbsp;&lt;/span&gt;&lt;/p&gt;&lt;/td&gt;&lt;td style=&quot;width: 28.1000pt ; padding: 0.0000pt 5.4000pt 0.0000pt 5.4000pt ; border-left: none ; border-right: 1.0000pt solid ; border-top: none ; border-bottom: 1.0000pt solid&quot; width=&quot;46&quot; valign=&quot;center&quot;&gt;&lt;p class=&quot;MsoNormal&quot;&gt;&lt;span style=&quot;color: rgb(0 , 0 , 0) ; font-style: normal ; font-size: 9.0000pt&quot;&gt;&amp;nbsp;&lt;/span&gt;&lt;/p&gt;&lt;/td&gt;&lt;td style=&quot;width: 20.2500pt ; padding: 0.0000pt 5.4000pt 0.0000pt 5.4000pt ; border-left: none ; border-right: 1.0000pt solid ; border-top: none ; border-bottom: 1.0000pt solid&quot; width=&quot;33&quot; valign=&quot;center&quot;&gt;&lt;p class=&quot;MsoNormal&quot;&gt;&lt;span style=&quot;color: rgb(0 , 0 , 0) ; font-style: normal ; font-size: 9.0000pt&quot;&gt;&amp;nbsp;&lt;/span&gt;&lt;/p&gt;&lt;/td&gt;&lt;td style=&quot;width: 20.2500pt ; padding: 0.0000pt 5.4000pt 0.0000pt 5.4000pt ; border-left: none ; border-right: 1.0000pt solid ; border-top: none ; border-bottom: 1.0000pt solid&quot; width=&quot;33&quot; valign=&quot;center&quot;&gt;&lt;p class=&quot;MsoNormal&quot;&gt;&lt;span style=&quot;color: rgb(0 , 0 , 0) ; font-style: normal ; font-size: 9.0000pt&quot;&gt;&amp;nbsp;&lt;/span&gt;&lt;/p&gt;&lt;/td&gt;&lt;td style=&quot;width: 20.3500pt ; padding: 0.0000pt 5.4000pt 0.0000pt 5.4000pt ; border-left: none ; border-right: 1.0000pt solid ; border-top: none ; border-bottom: 1.0000pt solid&quot; width=&quot;33&quot; valign=&quot;center&quot;&gt;&lt;p class=&quot;MsoNormal&quot;&gt;&lt;span style=&quot;color: rgb(0 , 0 , 0) ; font-style: normal ; font-size: 9.0000pt&quot;&gt;&amp;nbsp;&lt;/span&gt;&lt;/p&gt;&lt;/td&gt;&lt;/tr&gt;&lt;tr style=&quot;height: 28.8000pt&quot;&gt;&lt;td style=&quot;width: 13.7500pt ; padding: 0.0000pt 5.4000pt 0.0000pt 5.4000pt ; border-left: 1.0000pt solid ; border-right: 1.0000pt solid ; border-top: none ; border-bottom: 1.0000pt solid&quot; width=&quot;22&quot; valign=&quot;center&quot;&gt;&lt;p class=&quot;MsoNormal&quot; style=&quot;text-align: justify ; vertical-align: middle&quot; align=&quot;justify&quot;&gt;&lt;span class=&quot;15&quot; style=&quot;color: rgb(0 , 0 , 0) ; font-style: normal ; font-size: 9.0000pt&quot;&gt;&lt;font face=&quot;Calibri&quot;&gt;CN5&lt;/font&gt;&lt;/span&gt;&lt;span style=&quot;font-family: &amp;#34;calibri&amp;#34; ; color: rgb(0 , 0 , 0) ; font-style: normal ; font-size: 9.0000pt&quot;&gt;&lt;/span&gt;&lt;/p&gt;&lt;/td&gt;&lt;td style=&quot;width: 19.5500pt ; padding: 0.0000pt 5.4000pt 0.0000pt 5.4000pt ; border-left: none ; border-right: 1.0000pt solid ; border-top: none ; border-bottom: 1.0000pt solid&quot; width=&quot;32&quot; valign=&quot;bottom&quot;&gt;&lt;p class=&quot;MsoNormal&quot; style=&quot;text-align: right ; vertical-align: bottom&quot; align=&quot;right&quot;&gt;&lt;span style=&quot;font-family: &amp;#34;arial&amp;#34; ; color: rgb(0 , 0 , 0) ; font-style: normal ; font-size: 9.0000pt&quot;&gt;0.1635&lt;/span&gt;&lt;span style=&quot;font-family: &amp;#34;arial&amp;#34; ; color: rgb(0 , 0 , 0) ; font-style: normal ; font-size: 9.0000pt&quot;&gt;&lt;/span&gt;&lt;/p&gt;&lt;/td&gt;&lt;td style=&quot;width: 28.1000pt ; padding: 0.0000pt 5.4000pt 0.0000pt 5.4000pt ; border-left: none ; border-right: 1.0000pt solid ; border-top: none ; border-bottom: 1.0000pt solid&quot; width=&quot;46&quot; valign=&quot;center&quot;&gt;&lt;p class=&quot;MsoNormal&quot;&gt;&lt;span style=&quot;color: rgb(0 , 0 , 0) ; font-style: normal ; font-size: 9.0000pt&quot;&gt;&amp;nbsp;&lt;/span&gt;&lt;/p&gt;&lt;/td&gt;&lt;td style=&quot;width: 20.2500pt ; padding: 0.0000pt 5.4000pt 0.0000pt 5.4000pt ; border-left: none ; border-right: 1.0000pt solid ; border-top: none ; border-bottom: 1.0000pt solid&quot; width=&quot;33&quot; valign=&quot;center&quot;&gt;&lt;p class=&quot;MsoNormal&quot;&gt;&lt;span style=&quot;color: rgb(0 , 0 , 0) ; font-style: normal ; font-size: 9.0000pt&quot;&gt;&amp;nbsp;&lt;/span&gt;&lt;/p&gt;&lt;/td&gt;&lt;td style=&quot;width: 20.2500pt ; padding: 0.0000pt 5.4000pt 0.0000pt 5.4000pt ; border-left: none ; border-right: 1.0000pt solid ; border-top: none ; border-bottom: 1.0000pt solid&quot; width=&quot;33&quot; valign=&quot;center&quot;&gt;&lt;p class=&quot;MsoNormal&quot;&gt;&lt;span style=&quot;color: rgb(0 , 0 , 0) ; font-style: normal ; font-size: 9.0000pt&quot;&gt;&amp;nbsp;&lt;/span&gt;&lt;/p&gt;&lt;/td&gt;&lt;td style=&quot;width: 20.2500pt ; padding: 0.0000pt 5.4000pt 0.0000pt 5.4000pt ; border-left: none ; border-right: 1.0000pt solid ; border-top: none ; border-bottom: 1.0000pt solid&quot; width=&quot;33&quot; valign=&quot;center&quot;&gt;&lt;p class=&quot;MsoNormal&quot;&gt;&lt;span style=&quot;color: rgb(0 , 0 , 0) ; font-style: normal ; font-size: 9.0000pt&quot;&gt;&amp;nbsp;&lt;/span&gt;&lt;/p&gt;&lt;/td&gt;&lt;td style=&quot;width: 20.2500pt ; padding: 0.0000pt 5.4000pt 0.0000pt 5.4000pt ; border-left: none ; border-right: 1.0000pt solid ; border-top: none ; border-bottom: 1.0000pt solid&quot; width=&quot;33&quot; valign=&quot;center&quot;&gt;&lt;p class=&quot;MsoNormal&quot;&gt;&lt;span style=&quot;color: rgb(0 , 0 , 0) ; font-style: normal ; font-size: 9.0000pt&quot;&gt;&amp;nbsp;&lt;/span&gt;&lt;/p&gt;&lt;/td&gt;&lt;td style=&quot;width: 18.6500pt ; padding: 0.0000pt 5.4000pt 0.0000pt 5.4000pt ; border-left: none ; border-right: 1.0000pt solid ; border-top: none ; border-bottom: 1.0000pt solid&quot; width=&quot;31&quot; valign=&quot;center&quot;&gt;&lt;p class=&quot;MsoNormal&quot;&gt;&lt;span style=&quot;color: rgb(0 , 0 , 0) ; font-style: normal ; font-size: 9.0000pt&quot;&gt;&amp;nbsp;&lt;/span&gt;&lt;/p&gt;&lt;/td&gt;&lt;td style=&quot;width: 18.6500pt ; padding: 0.0000pt 5.4000pt 0.0000pt 5.4000pt ; border-left: none ; border-right: 1.0000pt solid ; border-top: none ; border-bottom: 1.0000pt solid&quot; width=&quot;31&quot; valign=&quot;center&quot;&gt;&lt;p class=&quot;MsoNormal&quot;&gt;&lt;span style=&quot;color: rgb(0 , 0 , 0) ; font-style: normal ; font-size: 9.0000pt&quot;&gt;&amp;nbsp;&lt;/span&gt;&lt;/p&gt;&lt;/td&gt;&lt;td style=&quot;width: 28.1000pt ; padding: 0.0000pt 5.4000pt 0.0000pt 5.4000pt ; border-left: none ; border-right: 1.0000pt solid ; border-top: none ; border-bottom: 1.0000pt solid&quot; width=&quot;46&quot; valign=&quot;center&quot;&gt;&lt;p class=&quot;MsoNormal&quot;&gt;&lt;span style=&quot;color: rgb(0 , 0 , 0) ; font-style: normal ; font-size: 9.0000pt&quot;&gt;&amp;nbsp;&lt;/span&gt;&lt;/p&gt;&lt;/td&gt;&lt;td style=&quot;width: 20.2500pt ; padding: 0.0000pt 5.4000pt 0.0000pt 5.4000pt ; border-left: none ; border-right: 1.0000pt solid ; border-top: none ; border-bottom: 1.0000pt solid&quot; width=&quot;33&quot; valign=&quot;center&quot;&gt;&lt;p class=&quot;MsoNormal&quot;&gt;&lt;span style=&quot;color: rgb(0 , 0 , 0) ; font-style: normal ; font-size: 9.0000pt&quot;&gt;&amp;nbsp;&lt;/span&gt;&lt;/p&gt;&lt;/td&gt;&lt;td style=&quot;width: 20.2500pt ; padding: 0.0000pt 5.4000pt 0.0000pt 5.4000pt ; border-left: none ; border-right: 1.0000pt solid ; border-top: none ; border-bottom: 1.0000pt solid&quot; width=&quot;33&quot; valign=&quot;center&quot;&gt;&lt;p class=&quot;MsoNormal&quot;&gt;&lt;span style=&quot;color: rgb(0 , 0 , 0) ; font-style: normal ; font-size: 9.0000pt&quot;&gt;&amp;nbsp;&lt;/span&gt;&lt;/p&gt;&lt;/td&gt;&lt;td style=&quot;width: 28.1000pt ; padding: 0.0000pt 5.4000pt 0.0000pt 5.4000pt ; border-left: none ; border-right: 1.0000pt solid ; border-top: none ; border-bottom: 1.0000pt solid&quot; width=&quot;46&quot; valign=&quot;center&quot;&gt;&lt;p class=&quot;MsoNormal&quot; style=&quot;text-align: right ; vertical-align: middle&quot; align=&quot;right&quot;&gt;&lt;span style=&quot;color: rgb(0 , 0 , 0) ; font-style: normal ; font-size: 9.0000pt&quot;&gt;&lt;font face=&quot;宋体&quot;&gt;5&lt;/font&gt;&lt;/span&gt;&lt;span style=&quot;color: rgb(0 , 0 , 0) ; font-style: normal ; font-size: 9.0000pt&quot;&gt;&lt;/span&gt;&lt;/p&gt;&lt;/td&gt;&lt;td style=&quot;width: 20.2500pt ; padding: 0.0000pt 5.4000pt 0.0000pt 5.4000pt ; border-left: none ; border-right: 1.0000pt solid ; border-top: none ; border-bottom: 1.0000pt solid&quot; width=&quot;33&quot; valign=&quot;center&quot;&gt;&lt;p class=&quot;MsoNormal&quot; style=&quot;text-align: right ; vertical-align: middle&quot; align=&quot;right&quot;&gt;&lt;span style=&quot;color: rgb(0 , 0 , 0) ; font-style: normal ; font-size: 9.0000pt&quot;&gt;&lt;font face=&quot;宋体&quot;&gt;5&lt;/font&gt;&lt;/span&gt;&lt;span style=&quot;color: rgb(0 , 0 , 0) ; font-style: normal ; font-size: 9.0000pt&quot;&gt;&lt;/span&gt;&lt;/p&gt;&lt;/td&gt;&lt;td style=&quot;width: 20.2500pt ; padding: 0.0000pt 5.4000pt 0.0000pt 5.4000pt ; border-left: none ; border-right: 1.0000pt solid ; border-top: none ; border-bottom: 1.0000pt solid&quot; width=&quot;33&quot; valign=&quot;center&quot;&gt;&lt;p class=&quot;MsoNormal&quot; style=&quot;text-align: right ; vertical-align: middle&quot; align=&quot;right&quot;&gt;&lt;span style=&quot;color: rgb(0 , 0 , 0) ; font-style: normal ; font-size: 9.0000pt&quot;&gt;&lt;font face=&quot;宋体&quot;&gt;1&lt;/font&gt;&lt;/span&gt;&lt;span style=&quot;color: rgb(0 , 0 , 0) ; font-style: normal ; font-size: 9.0000pt&quot;&gt;&lt;/span&gt;&lt;/p&gt;&lt;/td&gt;&lt;td style=&quot;width: 20.2500pt ; padding: 0.0000pt 5.4000pt 0.0000pt 5.4000pt ; border-left: none ; border-right: 1.0000pt solid ; border-top: none ; border-bottom: 1.0000pt solid&quot; width=&quot;33&quot; valign=&quot;center&quot;&gt;&lt;p class=&quot;MsoNormal&quot; style=&quot;text-align: right ; vertical-align: middle&quot; align=&quot;right&quot;&gt;&lt;span style=&quot;color: rgb(0 , 0 , 0) ; font-style: normal ; font-size: 9.0000pt&quot;&gt;&lt;font face=&quot;宋体&quot;&gt;3&lt;/font&gt;&lt;/span&gt;&lt;span style=&quot;color: rgb(0 , 0 , 0) ; font-style: normal ; font-size: 9.0000pt&quot;&gt;&lt;/span&gt;&lt;/p&gt;&lt;/td&gt;&lt;td style=&quot;width: 28.1000pt ; padding: 0.0000pt 5.4000pt 0.0000pt 5.4000pt ; border-left: none ; border-right: 1.0000pt solid ; border-top: none ; border-bottom: 1.0000pt solid&quot; width=&quot;46&quot; valign=&quot;center&quot;&gt;&lt;p class=&quot;MsoNormal&quot;&gt;&lt;span style=&quot;color: rgb(0 , 0 , 0) ; font-style: normal ; font-size: 9.0000pt&quot;&gt;&amp;nbsp;&lt;/span&gt;&lt;/p&gt;&lt;/td&gt;&lt;td style=&quot;width: 20.2500pt ; padding: 0.0000pt 5.4000pt 0.0000pt 5.4000pt ; border-left: none ; border-right: 1.0000pt solid ; border-top: none ; border-bottom: 1.0000pt solid&quot; width=&quot;33&quot; valign=&quot;center&quot;&gt;&lt;p class=&quot;MsoNormal&quot;&gt;&lt;span style=&quot;color: rgb(0 , 0 , 0) ; font-style: normal ; font-size: 9.0000pt&quot;&gt;&amp;nbsp;&lt;/span&gt;&lt;/p&gt;&lt;/td&gt;&lt;td style=&quot;width: 20.2500pt ; padding: 0.0000pt 5.4000pt 0.0000pt 5.4000pt ; border-left: none ; border-right: 1.0000pt solid ; border-top: none ; border-bottom: 1.0000pt solid&quot; width=&quot;33&quot; valign=&quot;center&quot;&gt;&lt;p class=&quot;MsoNormal&quot;&gt;&lt;span style=&quot;color: rgb(0 , 0 , 0) ; font-style: normal ; font-size: 9.0000pt&quot;&gt;&amp;nbsp;&lt;/span&gt;&lt;/p&gt;&lt;/td&gt;&lt;td style=&quot;width: 20.3500pt ; padding: 0.0000pt 5.4000pt 0.0000pt 5.4000pt ; border-left: none ; border-right: 1.0000pt solid ; border-top: none ; border-bottom: 1.0000pt solid&quot; width=&quot;33&quot; valign=&quot;center&quot;&gt;&lt;p class=&quot;MsoNormal&quot;&gt;&lt;span style=&quot;color: rgb(0 , 0 , 0) ; font-style: normal ; font-size: 9.0000pt&quot;&gt;&amp;nbsp;&lt;/span&gt;&lt;/p&gt;&lt;/td&gt;&lt;/tr&gt;&lt;tr style=&quot;height: 28.8000pt&quot;&gt;&lt;td style=&quot;width: 13.7500pt ; padding: 0.0000pt 5.4000pt 0.0000pt 5.4000pt ; border-left: 1.0000pt solid ; border-right: 1.0000pt solid ; border-top: none ; border-bottom: 1.0000pt solid&quot; width=&quot;22&quot; valign=&quot;center&quot;&gt;&lt;p class=&quot;MsoNormal&quot; style=&quot;text-align: justify ; vertical-align: middle&quot; align=&quot;justify&quot;&gt;&lt;span class=&quot;15&quot; style=&quot;color: rgb(0 , 0 , 0) ; font-style: normal ; font-size: 9.0000pt&quot;&gt;&lt;font face=&quot;Calibri&quot;&gt;CN6&lt;/font&gt;&lt;/span&gt;&lt;span style=&quot;font-family: &amp;#34;calibri&amp;#34; ; color: rgb(0 , 0 , 0) ; font-style: normal ; font-size: 9.0000pt&quot;&gt;&lt;/span&gt;&lt;/p&gt;&lt;/td&gt;&lt;td style=&quot;width: 19.5500pt ; padding: 0.0000pt 5.4000pt 0.0000pt 5.4000pt ; border-left: none ; border-right: 1.0000pt solid ; border-top: none ; border-bottom: 1.0000pt solid&quot; width=&quot;32&quot; valign=&quot;bottom&quot;&gt;&lt;p class=&quot;MsoNormal&quot; style=&quot;text-align: right ; vertical-align: bottom&quot; align=&quot;right&quot;&gt;&lt;span style=&quot;font-family: &amp;#34;arial&amp;#34; ; color: rgb(0 , 0 , 0) ; font-style: normal ; font-size: 9.0000pt&quot;&gt;0.0979&lt;/span&gt;&lt;span style=&quot;font-family: &amp;#34;arial&amp;#34; ; color: rgb(0 , 0 , 0) ; font-style: normal ; font-size: 9.0000pt&quot;&gt;&lt;/span&gt;&lt;/p&gt;&lt;/td&gt;&lt;td style=&quot;width: 28.1000pt ; padding: 0.0000pt 5.4000pt 0.0000pt 5.4000pt ; border-left: none ; border-right: 1.0000pt solid ; border-top: none ; border-bottom: 1.0000pt solid&quot; width=&quot;46&quot; valign=&quot;center&quot;&gt;&lt;p class=&quot;MsoNormal&quot; style=&quot;text-align: right ; vertical-align: middle&quot; align=&quot;right&quot;&gt;&lt;span style=&quot;color: rgb(0 , 0 , 0) ; font-style: normal ; font-size: 9.0000pt&quot;&gt;&lt;font face=&quot;宋体&quot;&gt;3&lt;/font&gt;&lt;/span&gt;&lt;span style=&quot;color: rgb(0 , 0 , 0) ; font-style: normal ; font-size: 9.0000pt&quot;&gt;&lt;/span&gt;&lt;/p&gt;&lt;/td&gt;&lt;td style=&quot;width: 20.2500pt ; padding: 0.0000pt 5.4000pt 0.0000pt 5.4000pt ; border-left: none ; border-right: 1.0000pt solid ; border-top: none ; border-bottom: 1.0000pt solid&quot; width=&quot;33&quot; valign=&quot;center&quot;&gt;&lt;p class=&quot;MsoNormal&quot; style=&quot;text-align: right ; vertical-align: middle&quot; align=&quot;right&quot;&gt;&lt;span style=&quot;color: rgb(0 , 0 , 0) ; font-style: normal ; font-size: 9.0000pt&quot;&gt;&lt;font face=&quot;宋体&quot;&gt;3&lt;/font&gt;&lt;/span&gt;&lt;span style=&quot;color: rgb(0 , 0 , 0) ; font-style: normal ; font-size: 9.0000pt&quot;&gt;&lt;/span&gt;&lt;/p&gt;&lt;/td&gt;&lt;td style=&quot;width: 20.2500pt ; padding: 0.0000pt 5.4000pt 0.0000pt 5.4000pt ; border-left: none ; border-right: 1.0000pt solid ; border-top: none ; border-bottom: 1.0000pt solid&quot; width=&quot;33&quot; valign=&quot;center&quot;&gt;&lt;p class=&quot;MsoNormal&quot; style=&quot;text-align: right ; vertical-align: middle&quot; align=&quot;right&quot;&gt;&lt;span style=&quot;color: rgb(0 , 0 , 0) ; font-style: normal ; font-size: 9.0000pt&quot;&gt;&lt;font face=&quot;宋体&quot;&gt;1&lt;/font&gt;&lt;/span&gt;&lt;span style=&quot;color: rgb(0 , 0 , 0) ; font-style: normal ; font-size: 9.0000pt&quot;&gt;&lt;/span&gt;&lt;/p&gt;&lt;/td&gt;&lt;td style=&quot;width: 20.2500pt ; padding: 0.0000pt 5.4000pt 0.0000pt 5.4000pt ; border-left: none ; border-right: 1.0000pt solid ; border-top: none ; border-bottom: 1.0000pt solid&quot; width=&quot;33&quot; valign=&quot;center&quot;&gt;&lt;p class=&quot;MsoNormal&quot; style=&quot;text-align: right ; vertical-align: middle&quot; align=&quot;right&quot;&gt;&lt;span style=&quot;color: rgb(0 , 0 , 0) ; font-style: normal ; font-size: 9.0000pt&quot;&gt;&lt;font face=&quot;宋体&quot;&gt;1&lt;/font&gt;&lt;/span&gt;&lt;span style=&quot;color: rgb(0 , 0 , 0) ; font-style: normal ; font-size: 9.0000pt&quot;&gt;&lt;/span&gt;&lt;/p&gt;&lt;/td&gt;&lt;td style=&quot;width: 20.2500pt ; padding: 0.0000pt 5.4000pt 0.0000pt 5.4000pt ; border-left: none ; border-right: 1.0000pt solid ; border-top: none ; border-bottom: 1.0000pt solid&quot; width=&quot;33&quot; valign=&quot;center&quot;&gt;&lt;p class=&quot;MsoNormal&quot; style=&quot;text-align: right ; vertical-align: middle&quot; align=&quot;right&quot;&gt;&lt;span style=&quot;color: rgb(0 , 0 , 0) ; font-style: normal ; font-size: 9.0000pt&quot;&gt;&lt;font face=&quot;宋体&quot;&gt;1&lt;/font&gt;&lt;/span&gt;&lt;span style=&quot;color: rgb(0 , 0 , 0) ; font-style: normal ; font-size: 9.0000pt&quot;&gt;&lt;/span&gt;&lt;/p&gt;&lt;/td&gt;&lt;td style=&quot;width: 18.6500pt ; padding: 0.0000pt 5.4000pt 0.0000pt 5.4000pt ; border-left: none ; border-right: 1.0000pt solid ; border-top: none ; border-bottom: 1.0000pt solid&quot; width=&quot;31&quot; valign=&quot;center&quot;&gt;&lt;p class=&quot;MsoNormal&quot; style=&quot;text-align: right ; vertical-align: middle&quot; align=&quot;right&quot;&gt;&lt;span style=&quot;color: rgb(0 , 0 , 0) ; font-style: normal ; font-size: 9.0000pt&quot;&gt;&lt;font face=&quot;宋体&quot;&gt;3&lt;/font&gt;&lt;/span&gt;&lt;span style=&quot;color: rgb(0 , 0 , 0) ; font-style: normal ; font-size: 9.0000pt&quot;&gt;&lt;/span&gt;&lt;/p&gt;&lt;/td&gt;&lt;td style=&quot;width: 18.6500pt ; padding: 0.0000pt 5.4000pt 0.0000pt 5.4000pt ; border-left: none ; border-right: 1.0000pt solid ; border-top: none ; border-bottom: 1.0000pt solid&quot; width=&quot;31&quot; valign=&quot;center&quot;&gt;&lt;p class=&quot;MsoNormal&quot; style=&quot;text-align: right ; vertical-align: middle&quot; align=&quot;right&quot;&gt;&lt;span style=&quot;color: rgb(0 , 0 , 0) ; font-style: normal ; font-size: 9.0000pt&quot;&gt;&lt;font face=&quot;宋体&quot;&gt;1&lt;/font&gt;&lt;/span&gt;&lt;span style=&quot;color: rgb(0 , 0 , 0) ; font-style: normal ; font-size: 9.0000pt&quot;&gt;&lt;/span&gt;&lt;/p&gt;&lt;/td&gt;&lt;td style=&quot;width: 28.1000pt ; padding: 0.0000pt 5.4000pt 0.0000pt 5.4000pt ; border-left: none ; border-right: 1.0000pt solid ; border-top: none ; border-bottom: 1.0000pt solid&quot; width=&quot;46&quot; valign=&quot;center&quot;&gt;&lt;p class=&quot;MsoNormal&quot; style=&quot;text-align: right ; vertical-align: middle&quot; align=&quot;right&quot;&gt;&lt;span style=&quot;color: rgb(0 , 0 , 0) ; font-style: normal ; font-size: 9.0000pt&quot;&gt;&lt;font face=&quot;宋体&quot;&gt;5&lt;/font&gt;&lt;/span&gt;&lt;span style=&quot;color: rgb(0 , 0 , 0) ; font-style: normal ; font-size: 9.0000pt&quot;&gt;&lt;/span&gt;&lt;/p&gt;&lt;/td&gt;&lt;td style=&quot;width: 20.2500pt ; padding: 0.0000pt 5.4000pt 0.0000pt 5.4000pt ; border-left: none ; border-right: 1.0000pt solid ; border-top: none ; border-bottom: 1.0000pt solid&quot; width=&quot;33&quot; valign=&quot;center&quot;&gt;&lt;p class=&quot;MsoNormal&quot; style=&quot;text-align: right ; vertical-align: middle&quot; align=&quot;right&quot;&gt;&lt;span style=&quot;color: rgb(0 , 0 , 0) ; font-style: normal ; font-size: 9.0000pt&quot;&gt;&lt;font face=&quot;宋体&quot;&gt;5&lt;/font&gt;&lt;/span&gt;&lt;span style=&quot;color: rgb(0 , 0 , 0) ; font-style: normal ; font-size: 9.0000pt&quot;&gt;&lt;/span&gt;&lt;/p&gt;&lt;/td&gt;&lt;td style=&quot;width: 20.2500pt ; padding: 0.0000pt 5.4000pt 0.0000pt 5.4000pt ; border-left: none ; border-right: 1.0000pt solid ; border-top: none ; border-bottom: 1.0000pt solid&quot; width=&quot;33&quot; valign=&quot;center&quot;&gt;&lt;p class=&quot;MsoNormal&quot; style=&quot;text-align: right ; vertical-align: middle&quot; align=&quot;right&quot;&gt;&lt;span style=&quot;color: rgb(0 , 0 , 0) ; font-style: normal ; font-size: 9.0000pt&quot;&gt;&lt;font face=&quot;宋体&quot;&gt;5&lt;/font&gt;&lt;/span&gt;&lt;span style=&quot;color: rgb(0 , 0 , 0) ; font-style: normal ; font-size: 9.0000pt&quot;&gt;&lt;/span&gt;&lt;/p&gt;&lt;/td&gt;&lt;td style=&quot;width: 28.1000pt ; padding: 0.0000pt 5.4000pt 0.0000pt 5.4000pt ; border-left: none ; border-right: 1.0000pt solid ; border-top: none ; border-bottom: 1.0000pt solid&quot; width=&quot;46&quot; valign=&quot;center&quot;&gt;&lt;p class=&quot;MsoNormal&quot; style=&quot;text-align: right ; vertical-align: middle&quot; align=&quot;right&quot;&gt;&lt;span style=&quot;color: rgb(0 , 0 , 0) ; font-style: normal ; font-size: 9.0000pt&quot;&gt;&lt;font face=&quot;宋体&quot;&gt;1&lt;/font&gt;&lt;/span&gt;&lt;span style=&quot;color: rgb(0 , 0 , 0) ; font-style: normal ; font-size: 9.0000pt&quot;&gt;&lt;/span&gt;&lt;/p&gt;&lt;/td&gt;&lt;td style=&quot;width: 20.2500pt ; padding: 0.0000pt 5.4000pt 0.0000pt 5.4000pt ; border-left: none ; border-right: 1.0000pt solid ; border-top: none ; border-bottom: 1.0000pt solid&quot; width=&quot;33&quot; valign=&quot;center&quot;&gt;&lt;p class=&quot;MsoNormal&quot; style=&quot;text-align: right ; vertical-align: middle&quot; align=&quot;right&quot;&gt;&lt;span style=&quot;color: rgb(0 , 0 , 0) ; font-style: normal ; font-size: 9.0000pt&quot;&gt;&lt;font face=&quot;宋体&quot;&gt;3&lt;/font&gt;&lt;/span&gt;&lt;span style=&quot;color: rgb(0 , 0 , 0) ; font-style: normal ; font-size: 9.0000pt&quot;&gt;&lt;/span&gt;&lt;/p&gt;&lt;/td&gt;&lt;td style=&quot;width: 20.2500pt ; padding: 0.0000pt 5.4000pt 0.0000pt 5.4000pt ; border-left: none ; border-right: 1.0000pt solid ; border-top: none ; border-bottom: 1.0000pt solid&quot; width=&quot;33&quot; valign=&quot;center&quot;&gt;&lt;p class=&quot;MsoNormal&quot; style=&quot;text-align: right ; vertical-align: middle&quot; align=&quot;right&quot;&gt;&lt;span style=&quot;color: rgb(0 , 0 , 0) ; font-style: normal ; font-size: 9.0000pt&quot;&gt;&lt;font face=&quot;宋体&quot;&gt;3&lt;/font&gt;&lt;/span&gt;&lt;span style=&quot;color: rgb(0 , 0 , 0) ; font-style: normal ; font-size: 9.0000pt&quot;&gt;&lt;/span&gt;&lt;/p&gt;&lt;/td&gt;&lt;td style=&quot;width: 20.2500pt ; padding: 0.0000pt 5.4000pt 0.0000pt 5.4000pt ; border-left: none ; border-right: 1.0000pt solid ; border-top: none ; border-bottom: 1.0000pt solid&quot; width=&quot;33&quot; valign=&quot;center&quot;&gt;&lt;p class=&quot;MsoNormal&quot; style=&quot;text-align: right ; vertical-align: middle&quot; align=&quot;right&quot;&gt;&lt;span style=&quot;color: rgb(0 , 0 , 0) ; font-style: normal ; font-size: 9.0000pt&quot;&gt;&lt;font face=&quot;宋体&quot;&gt;1&lt;/font&gt;&lt;/span&gt;&lt;span style=&quot;color: rgb(0 , 0 , 0) ; font-style: normal ; font-size: 9.0000pt&quot;&gt;&lt;/span&gt;&lt;/p&gt;&lt;/td&gt;&lt;td style=&quot;width: 28.1000pt ; padding: 0.0000pt 5.4000pt 0.0000pt 5.4000pt ; border-left: none ; border-right: 1.0000pt solid ; border-top: none ; border-bottom: 1.0000pt solid&quot; width=&quot;46&quot; valign=&quot;center&quot;&gt;&lt;p class=&quot;MsoNormal&quot; style=&quot;text-align: right ; vertical-align: middle&quot; align=&quot;right&quot;&gt;&lt;span style=&quot;color: rgb(0 , 0 , 0) ; font-style: normal ; font-size: 9.0000pt&quot;&gt;&lt;font face=&quot;宋体&quot;&gt;3&lt;/font&gt;&lt;/span&gt;&lt;span style=&quot;color: rgb(0 , 0 , 0) ; font-style: normal ; font-size: 9.0000pt&quot;&gt;&lt;/span&gt;&lt;/p&gt;&lt;/td&gt;&lt;td style=&quot;width: 20.2500pt ; padding: 0.0000pt 5.4000pt 0.0000pt 5.4000pt ; border-left: none ; border-right: 1.0000pt solid ; border-top: none ; border-bottom: 1.0000pt solid&quot; width=&quot;33&quot; valign=&quot;center&quot;&gt;&lt;p class=&quot;MsoNormal&quot; style=&quot;text-align: right ; vertical-align: middle&quot; align=&quot;right&quot;&gt;&lt;span style=&quot;color: rgb(0 , 0 , 0) ; font-style: normal ; font-size: 9.0000pt&quot;&gt;&lt;font face=&quot;宋体&quot;&gt;1&lt;/font&gt;&lt;/span&gt;&lt;span style=&quot;color: rgb(0 , 0 , 0) ; font-style: normal ; font-size: 9.0000pt&quot;&gt;&lt;/span&gt;&lt;/p&gt;&lt;/td&gt;&lt;td style=&quot;width: 20.2500pt ; padding: 0.0000pt 5.4000pt 0.0000pt 5.4000pt ; border-left: none ; border-right: 1.0000pt solid ; border-top: none ; border-bottom: 1.0000pt solid&quot; width=&quot;33&quot; valign=&quot;center&quot;&gt;&lt;p class=&quot;MsoNormal&quot; style=&quot;text-align: right ; vertical-align: middle&quot; align=&quot;right&quot;&gt;&lt;span style=&quot;color: rgb(0 , 0 , 0) ; font-style: normal ; font-size: 9.0000pt&quot;&gt;&lt;font face=&quot;宋体&quot;&gt;5&lt;/font&gt;&lt;/span&gt;&lt;span style=&quot;color: rgb(0 , 0 , 0) ; font-style: normal ; font-size: 9.0000pt&quot;&gt;&lt;/span&gt;&lt;/p&gt;&lt;/td&gt;&lt;td style=&quot;width: 20.3500pt ; padding: 0.0000pt 5.4000pt 0.0000pt 5.4000pt ; border-left: none ; border-right: 1.0000pt solid ; border-top: none ; border-bottom: 1.0000pt solid&quot; width=&quot;33&quot; valign=&quot;center&quot;&gt;&lt;p class=&quot;MsoNormal&quot; style=&quot;text-align: right ; vertical-align: middle&quot; align=&quot;right&quot;&gt;&lt;span style=&quot;color: rgb(0 , 0 , 0) ; font-style: normal ; font-size: 9.0000pt&quot;&gt;&lt;font face=&quot;宋体&quot;&gt;3&lt;/font&gt;&lt;/span&gt;&lt;span style=&quot;color: rgb(0 , 0 , 0) ; font-style: normal ; font-size: 9.0000pt&quot;&gt;&lt;/span&gt;&lt;/p&gt;&lt;/td&gt;&lt;/tr&gt;&lt;tr style=&quot;height: 14.4000pt&quot;&gt;&lt;td style=&quot;width: 13.7500pt ; padding: 0.0000pt 5.4000pt 0.0000pt 5.4000pt ; border-left: 1.0000pt solid ; border-right: 1.0000pt solid ; border-top: none ; border-bottom: 1.0000pt solid&quot; width=&quot;22&quot; valign=&quot;center&quot;&gt;&lt;p class=&quot;MsoNormal&quot;&gt;&lt;span style=&quot;color: rgb(0 , 0 , 0) ; font-style: normal ; font-size: 9.0000pt&quot;&gt;&amp;nbsp;&lt;/span&gt;&lt;/p&gt;&lt;/td&gt;&lt;td style=&quot;width: 19.5500pt ; padding: 0.0000pt 5.4000pt 0.0000pt 5.4000pt ; border-left: none ; border-right: 1.0000pt solid ; border-top: none ; border-bottom: 1.0000pt solid&quot; width=&quot;32&quot; valign=&quot;center&quot;&gt;&lt;p class=&quot;MsoNormal&quot; style=&quot;text-align: left ; vertical-align: middle&quot;&gt;&lt;span style=&quot;color: rgb(0 , 0 , 0) ; font-style: normal ; font-size: 9.0000pt&quot;&gt;&lt;font face=&quot;宋体&quot;&gt;QFD权重&lt;/font&gt;&lt;/span&gt;&lt;span style=&quot;color: rgb(0 , 0 , 0) ; font-style: normal ; font-size: 9.0000pt&quot;&gt;&lt;/span&gt;&lt;/p&gt;&lt;/td&gt;&lt;td style=&quot;width: 28.1000pt ; padding: 0.0000pt 5.4000pt 0.0000pt 5.4000pt ; border-left: none ; border-right: 1.0000pt solid ; border-top: none ; border-bottom: 1.0000pt solid&quot; width=&quot;46&quot; valign=&quot;center&quot;&gt;&lt;p class=&quot;MsoNormal&quot; style=&quot;text-align: right ; vertical-align: middle&quot; align=&quot;right&quot;&gt;&lt;span style=&quot;color: rgb(0 , 0 , 0) ; font-style: normal ; font-size: 9.0000pt&quot;&gt;&lt;font face=&quot;宋体&quot;&gt;0.7446&lt;/font&gt;&lt;/span&gt;&lt;span style=&quot;color: rgb(0 , 0 , 0) ; font-style: normal ; font-size: 9.0000pt&quot;&gt;&lt;/span&gt;&lt;/p&gt;&lt;/td&gt;&lt;td style=&quot;width: 20.2500pt ; padding: 0.0000pt 5.4000pt 0.0000pt 5.4000pt ; border-left: none ; border-right: 1.0000pt solid ; border-top: none ; border-bottom: 1.0000pt solid&quot; width=&quot;33&quot; valign=&quot;center&quot;&gt;&lt;p class=&quot;MsoNormal&quot; style=&quot;text-align: right ; vertical-align: middle&quot; align=&quot;right&quot;&gt;&lt;span style=&quot;color: rgb(0 , 0 , 0) ; font-style: normal ; font-size: 9.0000pt&quot;&gt;&lt;font face=&quot;宋体&quot;&gt;1.0452&lt;/font&gt;&lt;/span&gt;&lt;span style=&quot;color: rgb(0 , 0 , 0) ; font-style: normal ; font-size: 9.0000pt&quot;&gt;&lt;/span&gt;&lt;/p&gt;&lt;/td&gt;&lt;td style=&quot;width: 20.2500pt ; padding: 0.0000pt 5.4000pt 0.0000pt 5.4000pt ; border-left: none ; border-right: 1.0000pt solid ; border-top: none ; border-bottom: 1.0000pt solid&quot; width=&quot;33&quot; valign=&quot;center&quot;&gt;&lt;p class=&quot;MsoNormal&quot; style=&quot;text-align: right ; vertical-align: middle&quot; align=&quot;right&quot;&gt;&lt;span style=&quot;color: rgb(0 , 0 , 0) ; font-style: normal ; font-size: 9.0000pt&quot;&gt;&lt;font face=&quot;宋体&quot;&gt;1.6114&lt;/font&gt;&lt;/span&gt;&lt;span style=&quot;color: rgb(0 , 0 , 0) ; font-style: normal ; font-size: 9.0000pt&quot;&gt;&lt;/span&gt;&lt;/p&gt;&lt;/td&gt;&lt;td style=&quot;width: 20.2500pt ; padding: 0.0000pt 5.4000pt 0.0000pt 5.4000pt ; border-left: none ; border-right: 1.0000pt solid ; border-top: none ; border-bottom: 1.0000pt solid&quot; width=&quot;33&quot; valign=&quot;center&quot;&gt;&lt;p class=&quot;MsoNormal&quot; style=&quot;text-align: right ; vertical-align: middle&quot; align=&quot;right&quot;&gt;&lt;span style=&quot;color: rgb(0 , 0 , 0) ; font-style: normal ; font-size: 9.0000pt&quot;&gt;&lt;font face=&quot;宋体&quot;&gt;0.8494&lt;/font&gt;&lt;/span&gt;&lt;span style=&quot;color: rgb(0 , 0 , 0) ; font-style: normal ; font-size: 9.0000pt&quot;&gt;&lt;/span&gt;&lt;/p&gt;&lt;/td&gt;&lt;td style=&quot;width: 20.2500pt ; padding: 0.0000pt 5.4000pt 0.0000pt 5.4000pt ; border-left: none ; border-right: 1.0000pt solid ; border-top: none ; border-bottom: 1.0000pt solid&quot; width=&quot;33&quot; valign=&quot;center&quot;&gt;&lt;p class=&quot;MsoNormal&quot; style=&quot;text-align: right ; vertical-align: middle&quot; align=&quot;right&quot;&gt;&lt;span style=&quot;color: rgb(0 , 0 , 0) ; font-style: normal ; font-size: 9.0000pt&quot;&gt;&lt;font face=&quot;宋体&quot;&gt;0.8494&lt;/font&gt;&lt;/span&gt;&lt;span style=&quot;color: rgb(0 , 0 , 0) ; font-style: normal ; font-size: 9.0000pt&quot;&gt;&lt;/span&gt;&lt;/p&gt;&lt;/td&gt;&lt;td style=&quot;width: 18.6500pt ; padding: 0.0000pt 5.4000pt 0.0000pt 5.4000pt ; border-left: none ; border-right: 1.0000pt solid ; border-top: none ; border-bottom: 1.0000pt solid&quot; width=&quot;31&quot; valign=&quot;center&quot;&gt;&lt;p class=&quot;MsoNormal&quot; style=&quot;text-align: right ; vertical-align: middle&quot; align=&quot;right&quot;&gt;&lt;span style=&quot;color: rgb(0 , 0 , 0) ; font-style: normal ; font-size: 9.0000pt&quot;&gt;&lt;font face=&quot;宋体&quot;&gt;0.444&lt;/font&gt;&lt;/span&gt;&lt;span style=&quot;color: rgb(0 , 0 , 0) ; font-style: normal ; font-size: 9.0000pt&quot;&gt;&lt;/span&gt;&lt;/p&gt;&lt;/td&gt;&lt;td style=&quot;width: 18.6500pt ; padding: 0.0000pt 5.4000pt 0.0000pt 5.4000pt ; border-left: none ; border-right: 1.0000pt solid ; border-top: none ; border-bottom: 1.0000pt solid&quot; width=&quot;31&quot; valign=&quot;center&quot;&gt;&lt;p class=&quot;MsoNormal&quot; style=&quot;text-align: right ; vertical-align: middle&quot; align=&quot;right&quot;&gt;&lt;span style=&quot;color: rgb(0 , 0 , 0) ; font-style: normal ; font-size: 9.0000pt&quot;&gt;&lt;font face=&quot;宋体&quot;&gt;0.674&lt;/font&gt;&lt;/span&gt;&lt;span style=&quot;color: rgb(0 , 0 , 0) ; font-style: normal ; font-size: 9.0000pt&quot;&gt;&lt;/span&gt;&lt;/p&gt;&lt;/td&gt;&lt;td style=&quot;width: 28.1000pt ; padding: 0.0000pt 5.4000pt 0.0000pt 5.4000pt ; border-left: none ; border-right: 1.0000pt solid ; border-top: none ; border-bottom: 1.0000pt solid&quot; width=&quot;46&quot; valign=&quot;center&quot;&gt;&lt;p class=&quot;MsoNormal&quot; style=&quot;text-align: right ; vertical-align: middle&quot; align=&quot;right&quot;&gt;&lt;span style=&quot;color: rgb(0 , 0 , 0) ; font-style: normal ; font-size: 9.0000pt&quot;&gt;&lt;font face=&quot;宋体&quot;&gt;0.8651&lt;/font&gt;&lt;/span&gt;&lt;span style=&quot;color: rgb(0 , 0 , 0) ; font-style: normal ; font-size: 9.0000pt&quot;&gt;&lt;/span&gt;&lt;/p&gt;&lt;/td&gt;&lt;td style=&quot;width: 20.2500pt ; padding: 0.0000pt 5.4000pt 0.0000pt 5.4000pt ; border-left: none ; border-right: 1.0000pt solid ; border-top: none ; border-bottom: 1.0000pt solid&quot; width=&quot;33&quot; valign=&quot;center&quot;&gt;&lt;p class=&quot;MsoNormal&quot; style=&quot;text-align: right ; vertical-align: middle&quot; align=&quot;right&quot;&gt;&lt;span style=&quot;color: rgb(0 , 0 , 0) ; font-style: normal ; font-size: 9.0000pt&quot;&gt;&lt;font face=&quot;宋体&quot;&gt;0.8651&lt;/font&gt;&lt;/span&gt;&lt;span style=&quot;color: rgb(0 , 0 , 0) ; font-style: normal ; font-size: 9.0000pt&quot;&gt;&lt;/span&gt;&lt;/p&gt;&lt;/td&gt;&lt;td style=&quot;width: 20.2500pt ; padding: 0.0000pt 5.4000pt 0.0000pt 5.4000pt ; border-left: none ; border-right: 1.0000pt solid ; border-top: none ; border-bottom: 1.0000pt solid&quot; width=&quot;33&quot; valign=&quot;center&quot;&gt;&lt;p class=&quot;MsoNormal&quot; style=&quot;text-align: right ; vertical-align: middle&quot; align=&quot;right&quot;&gt;&lt;span style=&quot;color: rgb(0 , 0 , 0) ; font-style: normal ; font-size: 9.0000pt&quot;&gt;&lt;font face=&quot;宋体&quot;&gt;0.4895&lt;/font&gt;&lt;/span&gt;&lt;span style=&quot;color: rgb(0 , 0 , 0) ; font-style: normal ; font-size: 9.0000pt&quot;&gt;&lt;/span&gt;&lt;/p&gt;&lt;/td&gt;&lt;td style=&quot;width: 28.1000pt ; padding: 0.0000pt 5.4000pt 0.0000pt 5.4000pt ; border-left: none ; border-right: 1.0000pt solid ; border-top: none ; border-bottom: 1.0000pt solid&quot; width=&quot;46&quot; valign=&quot;center&quot;&gt;&lt;p class=&quot;MsoNormal&quot; style=&quot;text-align: right ; vertical-align: middle&quot; align=&quot;right&quot;&gt;&lt;span style=&quot;color: rgb(0 , 0 , 0) ; font-style: normal ; font-size: 9.0000pt&quot;&gt;&lt;font face=&quot;宋体&quot;&gt;1.0678&lt;/font&gt;&lt;/span&gt;&lt;span style=&quot;color: rgb(0 , 0 , 0) ; font-style: normal ; font-size: 9.0000pt&quot;&gt;&lt;/span&gt;&lt;/p&gt;&lt;/td&gt;&lt;td style=&quot;width: 20.2500pt ; padding: 0.0000pt 5.4000pt 0.0000pt 5.4000pt ; border-left: none ; border-right: 1.0000pt solid ; border-top: none ; border-bottom: 1.0000pt solid&quot; width=&quot;33&quot; valign=&quot;center&quot;&gt;&lt;p class=&quot;MsoNormal&quot; style=&quot;text-align: right ; vertical-align: middle&quot; align=&quot;right&quot;&gt;&lt;span style=&quot;color: rgb(0 , 0 , 0) ; font-style: normal ; font-size: 9.0000pt&quot;&gt;&lt;font face=&quot;宋体&quot;&gt;1.8732&lt;/font&gt;&lt;/span&gt;&lt;span style=&quot;color: rgb(0 , 0 , 0) ; font-style: normal ; font-size: 9.0000pt&quot;&gt;&lt;/span&gt;&lt;/p&gt;&lt;/td&gt;&lt;td style=&quot;width: 20.2500pt ; padding: 0.0000pt 5.4000pt 0.0000pt 5.4000pt ; border-left: none ; border-right: 1.0000pt solid ; border-top: none ; border-bottom: 1.0000pt solid&quot; width=&quot;33&quot; valign=&quot;center&quot;&gt;&lt;p class=&quot;MsoNormal&quot; style=&quot;text-align: right ; vertical-align: middle&quot; align=&quot;right&quot;&gt;&lt;span style=&quot;color: rgb(0 , 0 , 0) ; font-style: normal ; font-size: 9.0000pt&quot;&gt;&lt;font face=&quot;宋体&quot;&gt;0.4572&lt;/font&gt;&lt;/span&gt;&lt;span style=&quot;color: rgb(0 , 0 , 0) ; font-style: normal ; font-size: 9.0000pt&quot;&gt;&lt;/span&gt;&lt;/p&gt;&lt;/td&gt;&lt;td style=&quot;width: 20.2500pt ; padding: 0.0000pt 5.4000pt 0.0000pt 5.4000pt ; border-left: none ; border-right: 1.0000pt solid ; border-top: none ; border-bottom: 1.0000pt solid&quot; width=&quot;33&quot; valign=&quot;center&quot;&gt;&lt;p class=&quot;MsoNormal&quot; style=&quot;text-align: right ; vertical-align: middle&quot; align=&quot;right&quot;&gt;&lt;span style=&quot;color: rgb(0 , 0 , 0) ; font-style: normal ; font-size: 9.0000pt&quot;&gt;&lt;font face=&quot;宋体&quot;&gt;0.5884&lt;/font&gt;&lt;/span&gt;&lt;span style=&quot;color: rgb(0 , 0 , 0) ; font-style: normal ; font-size: 9.0000pt&quot;&gt;&lt;/span&gt;&lt;/p&gt;&lt;/td&gt;&lt;td style=&quot;width: 28.1000pt ; padding: 0.0000pt 5.4000pt 0.0000pt 5.4000pt ; border-left: none ; border-right: 1.0000pt solid ; border-top: none ; border-bottom: 1.0000pt solid&quot; width=&quot;46&quot; valign=&quot;center&quot;&gt;&lt;p class=&quot;MsoNormal&quot; style=&quot;text-align: right ; vertical-align: middle&quot; align=&quot;right&quot;&gt;&lt;span style=&quot;color: rgb(0 , 0 , 0) ; font-style: normal ; font-size: 9.0000pt&quot;&gt;&lt;font face=&quot;宋体&quot;&gt;0.6044&lt;/font&gt;&lt;/span&gt;&lt;span style=&quot;color: rgb(0 , 0 , 0) ; font-style: normal ; font-size: 9.0000pt&quot;&gt;&lt;/span&gt;&lt;/p&gt;&lt;/td&gt;&lt;td style=&quot;width: 20.2500pt ; padding: 0.0000pt 5.4000pt 0.0000pt 5.4000pt ; border-left: none ; border-right: 1.0000pt solid ; border-top: none ; border-bottom: 1.0000pt solid&quot; width=&quot;33&quot; valign=&quot;center&quot;&gt;&lt;p class=&quot;MsoNormal&quot; style=&quot;text-align: right ; vertical-align: middle&quot; align=&quot;right&quot;&gt;&lt;span style=&quot;color: rgb(0 , 0 , 0) ; font-style: normal ; font-size: 9.0000pt&quot;&gt;&lt;font face=&quot;宋体&quot;&gt;0.7842&lt;/font&gt;&lt;/span&gt;&lt;span style=&quot;color: rgb(0 , 0 , 0) ; font-style: normal ; font-size: 9.0000pt&quot;&gt;&lt;/span&gt;&lt;/p&gt;&lt;/td&gt;&lt;td style=&quot;width: 20.2500pt ; padding: 0.0000pt 5.4000pt 0.0000pt 5.4000pt ; border-left: none ; border-right: 1.0000pt solid ; border-top: none ; border-bottom: 1.0000pt solid&quot; width=&quot;33&quot; valign=&quot;center&quot;&gt;&lt;p class=&quot;MsoNormal&quot; style=&quot;text-align: right ; vertical-align: middle&quot; align=&quot;right&quot;&gt;&lt;span style=&quot;color: rgb(0 , 0 , 0) ; font-style: normal ; font-size: 9.0000pt&quot;&gt;&lt;font face=&quot;宋体&quot;&gt;1.5468&lt;/font&gt;&lt;/span&gt;&lt;span style=&quot;color: rgb(0 , 0 , 0) ; font-style: normal ; font-size: 9.0000pt&quot;&gt;&lt;/span&gt;&lt;/p&gt;&lt;/td&gt;&lt;td style=&quot;width: 20.3500pt ; padding: 0.0000pt 5.4000pt 0.0000pt 5.4000pt ; border-left: none ; border-right: 1.0000pt solid ; border-top: none ; border-bottom: 1.0000pt solid&quot; width=&quot;33&quot; valign=&quot;center&quot;&gt;&lt;p class=&quot;MsoNormal&quot; style=&quot;text-align: right ; vertical-align: middle&quot; align=&quot;right&quot;&gt;&lt;span style=&quot;color: rgb(0 , 0 , 0) ; font-style: normal ; font-size: 9.0000pt&quot;&gt;&lt;font face=&quot;宋体&quot;&gt;0.2937&lt;/font&gt;&lt;/span&gt;&lt;span style=&quot;color: rgb(0 , 0 , 0) ; font-style: normal ; font-size: 9.0000pt&quot;&gt;&lt;/span&gt;&lt;/p&gt;&lt;/td&gt;&lt;/tr&gt;&lt;/tbody&gt;&lt;/table&gt;" style="text;whiteSpace=wrap;html=1;strokeColor=none;fillColor=none;rounded=0;" vertex="1" parent="1">
          <mxGeometry x="90" y="-120" width="1070" height="400" as="geometry" />
        </mxCell>
        <mxCell id="fps1EA-GcfaW138LZgcH-23" value="" style="shape=table;html=1;whiteSpace=wrap;startSize=0;container=1;collapsible=0;childLayout=tableLayout;rounded=0;strokeColor=default;fillColor=none;" vertex="1" parent="1">
          <mxGeometry x="260" y="340" width="840" height="360" as="geometry" />
        </mxCell>
        <mxCell id="fps1EA-GcfaW138LZgcH-133" style="shape=partialRectangle;html=1;whiteSpace=wrap;collapsible=0;dropTarget=0;pointerEvents=0;fillColor=none;top=0;left=0;bottom=0;right=0;points=[[0,0.5],[1,0.5]];portConstraint=eastwest;rounded=0;strokeColor=default;" vertex="1" parent="fps1EA-GcfaW138LZgcH-23">
          <mxGeometry width="840" height="40" as="geometry" />
        </mxCell>
        <mxCell id="fps1EA-GcfaW138LZgcH-134" style="shape=partialRectangle;html=1;whiteSpace=wrap;connectable=0;fillColor=none;top=0;left=0;bottom=0;right=0;overflow=hidden;pointerEvents=1;rounded=0;strokeColor=default;" vertex="1" parent="fps1EA-GcfaW138LZgcH-133">
          <mxGeometry width="60" height="40" as="geometry">
            <mxRectangle width="60" height="40" as="alternateBounds" />
          </mxGeometry>
        </mxCell>
        <mxCell id="fps1EA-GcfaW138LZgcH-135" style="shape=partialRectangle;html=1;whiteSpace=wrap;connectable=0;fillColor=none;top=0;left=0;bottom=0;right=0;overflow=hidden;pointerEvents=1;rounded=0;strokeColor=default;" vertex="1" parent="fps1EA-GcfaW138LZgcH-133">
          <mxGeometry x="60" width="60" height="40" as="geometry">
            <mxRectangle width="60" height="40" as="alternateBounds" />
          </mxGeometry>
        </mxCell>
        <mxCell id="fps1EA-GcfaW138LZgcH-136" style="shape=partialRectangle;html=1;whiteSpace=wrap;connectable=0;fillColor=none;top=0;left=0;bottom=0;right=0;overflow=hidden;pointerEvents=1;rounded=0;strokeColor=default;" vertex="1" parent="fps1EA-GcfaW138LZgcH-133">
          <mxGeometry x="120" width="40" height="40" as="geometry">
            <mxRectangle width="40" height="40" as="alternateBounds" />
          </mxGeometry>
        </mxCell>
        <mxCell id="fps1EA-GcfaW138LZgcH-137" style="shape=partialRectangle;html=1;whiteSpace=wrap;connectable=0;fillColor=none;top=0;left=0;bottom=0;right=0;overflow=hidden;pointerEvents=1;rounded=0;strokeColor=default;" vertex="1" parent="fps1EA-GcfaW138LZgcH-133">
          <mxGeometry x="160" width="40" height="40" as="geometry">
            <mxRectangle width="40" height="40" as="alternateBounds" />
          </mxGeometry>
        </mxCell>
        <mxCell id="fps1EA-GcfaW138LZgcH-138" style="shape=partialRectangle;html=1;whiteSpace=wrap;connectable=0;fillColor=none;top=0;left=0;bottom=0;right=0;overflow=hidden;pointerEvents=1;rounded=0;strokeColor=default;" vertex="1" parent="fps1EA-GcfaW138LZgcH-133">
          <mxGeometry x="200" width="40" height="40" as="geometry">
            <mxRectangle width="40" height="40" as="alternateBounds" />
          </mxGeometry>
        </mxCell>
        <mxCell id="fps1EA-GcfaW138LZgcH-139" style="shape=partialRectangle;html=1;whiteSpace=wrap;connectable=0;fillColor=none;top=0;left=0;bottom=0;right=0;overflow=hidden;pointerEvents=1;rounded=0;strokeColor=default;" vertex="1" parent="fps1EA-GcfaW138LZgcH-133">
          <mxGeometry x="240" width="40" height="40" as="geometry">
            <mxRectangle width="40" height="40" as="alternateBounds" />
          </mxGeometry>
        </mxCell>
        <mxCell id="fps1EA-GcfaW138LZgcH-140" style="shape=partialRectangle;html=1;whiteSpace=wrap;connectable=0;fillColor=none;top=0;left=0;bottom=0;right=0;overflow=hidden;pointerEvents=1;rounded=0;strokeColor=default;" vertex="1" parent="fps1EA-GcfaW138LZgcH-133">
          <mxGeometry x="280" width="40" height="40" as="geometry">
            <mxRectangle width="40" height="40" as="alternateBounds" />
          </mxGeometry>
        </mxCell>
        <mxCell id="fps1EA-GcfaW138LZgcH-141" style="shape=partialRectangle;html=1;whiteSpace=wrap;connectable=0;fillColor=none;top=0;left=0;bottom=0;right=0;overflow=hidden;pointerEvents=1;rounded=0;strokeColor=default;" vertex="1" parent="fps1EA-GcfaW138LZgcH-133">
          <mxGeometry x="320" width="40" height="40" as="geometry">
            <mxRectangle width="40" height="40" as="alternateBounds" />
          </mxGeometry>
        </mxCell>
        <mxCell id="fps1EA-GcfaW138LZgcH-144" style="shape=partialRectangle;html=1;whiteSpace=wrap;connectable=0;fillColor=none;top=0;left=0;bottom=0;right=0;overflow=hidden;pointerEvents=1;rounded=0;strokeColor=default;" vertex="1" parent="fps1EA-GcfaW138LZgcH-133">
          <mxGeometry x="360" width="40" height="40" as="geometry">
            <mxRectangle width="40" height="40" as="alternateBounds" />
          </mxGeometry>
        </mxCell>
        <mxCell id="fps1EA-GcfaW138LZgcH-168" style="shape=partialRectangle;html=1;whiteSpace=wrap;connectable=0;fillColor=none;top=0;left=0;bottom=0;right=0;overflow=hidden;pointerEvents=1;rounded=0;strokeColor=default;" vertex="1" parent="fps1EA-GcfaW138LZgcH-133">
          <mxGeometry x="400" width="40" height="40" as="geometry">
            <mxRectangle width="40" height="40" as="alternateBounds" />
          </mxGeometry>
        </mxCell>
        <mxCell id="fps1EA-GcfaW138LZgcH-177" style="shape=partialRectangle;html=1;whiteSpace=wrap;connectable=0;fillColor=none;top=0;left=0;bottom=0;right=0;overflow=hidden;pointerEvents=1;rounded=0;strokeColor=default;" vertex="1" parent="fps1EA-GcfaW138LZgcH-133">
          <mxGeometry x="440" width="40" height="40" as="geometry">
            <mxRectangle width="40" height="40" as="alternateBounds" />
          </mxGeometry>
        </mxCell>
        <mxCell id="fps1EA-GcfaW138LZgcH-186" style="shape=partialRectangle;html=1;whiteSpace=wrap;connectable=0;fillColor=none;top=0;left=0;bottom=0;right=0;overflow=hidden;pointerEvents=1;rounded=0;strokeColor=default;" vertex="1" parent="fps1EA-GcfaW138LZgcH-133">
          <mxGeometry x="480" width="40" height="40" as="geometry">
            <mxRectangle width="40" height="40" as="alternateBounds" />
          </mxGeometry>
        </mxCell>
        <mxCell id="fps1EA-GcfaW138LZgcH-195" style="shape=partialRectangle;html=1;whiteSpace=wrap;connectable=0;fillColor=none;top=0;left=0;bottom=0;right=0;overflow=hidden;pointerEvents=1;rounded=0;strokeColor=default;" vertex="1" parent="fps1EA-GcfaW138LZgcH-133">
          <mxGeometry x="520" width="40" height="40" as="geometry">
            <mxRectangle width="40" height="40" as="alternateBounds" />
          </mxGeometry>
        </mxCell>
        <mxCell id="fps1EA-GcfaW138LZgcH-204" style="shape=partialRectangle;html=1;whiteSpace=wrap;connectable=0;fillColor=none;top=0;left=0;bottom=0;right=0;overflow=hidden;pointerEvents=1;rounded=0;strokeColor=default;" vertex="1" parent="fps1EA-GcfaW138LZgcH-133">
          <mxGeometry x="560" width="40" height="40" as="geometry">
            <mxRectangle width="40" height="40" as="alternateBounds" />
          </mxGeometry>
        </mxCell>
        <mxCell id="fps1EA-GcfaW138LZgcH-213" style="shape=partialRectangle;html=1;whiteSpace=wrap;connectable=0;fillColor=none;top=0;left=0;bottom=0;right=0;overflow=hidden;pointerEvents=1;rounded=0;strokeColor=default;" vertex="1" parent="fps1EA-GcfaW138LZgcH-133">
          <mxGeometry x="600" width="40" height="40" as="geometry">
            <mxRectangle width="40" height="40" as="alternateBounds" />
          </mxGeometry>
        </mxCell>
        <mxCell id="fps1EA-GcfaW138LZgcH-222" style="shape=partialRectangle;html=1;whiteSpace=wrap;connectable=0;fillColor=none;top=0;left=0;bottom=0;right=0;overflow=hidden;pointerEvents=1;rounded=0;strokeColor=default;" vertex="1" parent="fps1EA-GcfaW138LZgcH-133">
          <mxGeometry x="640" width="40" height="40" as="geometry">
            <mxRectangle width="40" height="40" as="alternateBounds" />
          </mxGeometry>
        </mxCell>
        <mxCell id="fps1EA-GcfaW138LZgcH-231" style="shape=partialRectangle;html=1;whiteSpace=wrap;connectable=0;fillColor=none;top=0;left=0;bottom=0;right=0;overflow=hidden;pointerEvents=1;rounded=0;strokeColor=default;" vertex="1" parent="fps1EA-GcfaW138LZgcH-133">
          <mxGeometry x="680" width="40" height="40" as="geometry">
            <mxRectangle width="40" height="40" as="alternateBounds" />
          </mxGeometry>
        </mxCell>
        <mxCell id="fps1EA-GcfaW138LZgcH-240" style="shape=partialRectangle;html=1;whiteSpace=wrap;connectable=0;fillColor=none;top=0;left=0;bottom=0;right=0;overflow=hidden;pointerEvents=1;rounded=0;strokeColor=default;" vertex="1" parent="fps1EA-GcfaW138LZgcH-133">
          <mxGeometry x="720" width="40" height="40" as="geometry">
            <mxRectangle width="40" height="40" as="alternateBounds" />
          </mxGeometry>
        </mxCell>
        <mxCell id="fps1EA-GcfaW138LZgcH-249" style="shape=partialRectangle;html=1;whiteSpace=wrap;connectable=0;fillColor=none;top=0;left=0;bottom=0;right=0;overflow=hidden;pointerEvents=1;rounded=0;strokeColor=default;" vertex="1" parent="fps1EA-GcfaW138LZgcH-133">
          <mxGeometry x="760" width="40" height="40" as="geometry">
            <mxRectangle width="40" height="40" as="alternateBounds" />
          </mxGeometry>
        </mxCell>
        <mxCell id="fps1EA-GcfaW138LZgcH-258" style="shape=partialRectangle;html=1;whiteSpace=wrap;connectable=0;fillColor=none;top=0;left=0;bottom=0;right=0;overflow=hidden;pointerEvents=1;rounded=0;strokeColor=default;" vertex="1" parent="fps1EA-GcfaW138LZgcH-133">
          <mxGeometry x="800" width="40" height="40" as="geometry">
            <mxRectangle width="40" height="40" as="alternateBounds" />
          </mxGeometry>
        </mxCell>
        <mxCell id="fps1EA-GcfaW138LZgcH-24" value="" style="shape=partialRectangle;html=1;whiteSpace=wrap;collapsible=0;dropTarget=0;pointerEvents=0;fillColor=none;top=0;left=0;bottom=0;right=0;points=[[0,0.5],[1,0.5]];portConstraint=eastwest;rounded=0;strokeColor=default;" vertex="1" parent="fps1EA-GcfaW138LZgcH-23">
          <mxGeometry y="40" width="840" height="40" as="geometry" />
        </mxCell>
        <mxCell id="fps1EA-GcfaW138LZgcH-25" value="" style="shape=partialRectangle;html=1;whiteSpace=wrap;connectable=0;fillColor=none;top=0;left=0;bottom=0;right=0;overflow=hidden;pointerEvents=1;rounded=0;strokeColor=default;" vertex="1" parent="fps1EA-GcfaW138LZgcH-24">
          <mxGeometry width="60" height="40" as="geometry">
            <mxRectangle width="60" height="40" as="alternateBounds" />
          </mxGeometry>
        </mxCell>
        <mxCell id="fps1EA-GcfaW138LZgcH-26" value="" style="shape=partialRectangle;html=1;whiteSpace=wrap;connectable=0;fillColor=none;top=0;left=0;bottom=0;right=0;overflow=hidden;pointerEvents=1;rounded=0;strokeColor=default;" vertex="1" parent="fps1EA-GcfaW138LZgcH-24">
          <mxGeometry x="60" width="60" height="40" as="geometry">
            <mxRectangle width="60" height="40" as="alternateBounds" />
          </mxGeometry>
        </mxCell>
        <mxCell id="fps1EA-GcfaW138LZgcH-27" value="P1" style="shape=partialRectangle;html=1;whiteSpace=wrap;connectable=0;fillColor=none;top=0;left=0;bottom=0;right=0;overflow=hidden;pointerEvents=1;rounded=0;strokeColor=default;" vertex="1" parent="fps1EA-GcfaW138LZgcH-24">
          <mxGeometry x="120" width="40" height="40" as="geometry">
            <mxRectangle width="40" height="40" as="alternateBounds" />
          </mxGeometry>
        </mxCell>
        <mxCell id="fps1EA-GcfaW138LZgcH-66" value="P2" style="shape=partialRectangle;html=1;whiteSpace=wrap;connectable=0;fillColor=none;top=0;left=0;bottom=0;right=0;overflow=hidden;pointerEvents=1;rounded=0;strokeColor=default;" vertex="1" parent="fps1EA-GcfaW138LZgcH-24">
          <mxGeometry x="160" width="40" height="40" as="geometry">
            <mxRectangle width="40" height="40" as="alternateBounds" />
          </mxGeometry>
        </mxCell>
        <mxCell id="fps1EA-GcfaW138LZgcH-125" value="P3" style="shape=partialRectangle;html=1;whiteSpace=wrap;connectable=0;fillColor=none;top=0;left=0;bottom=0;right=0;overflow=hidden;pointerEvents=1;rounded=0;strokeColor=default;" vertex="1" parent="fps1EA-GcfaW138LZgcH-24">
          <mxGeometry x="200" width="40" height="40" as="geometry">
            <mxRectangle width="40" height="40" as="alternateBounds" />
          </mxGeometry>
        </mxCell>
        <mxCell id="fps1EA-GcfaW138LZgcH-117" value="P4" style="shape=partialRectangle;html=1;whiteSpace=wrap;connectable=0;fillColor=none;top=0;left=0;bottom=0;right=0;overflow=hidden;pointerEvents=1;rounded=0;strokeColor=default;" vertex="1" parent="fps1EA-GcfaW138LZgcH-24">
          <mxGeometry x="240" width="40" height="40" as="geometry">
            <mxRectangle width="40" height="40" as="alternateBounds" />
          </mxGeometry>
        </mxCell>
        <mxCell id="fps1EA-GcfaW138LZgcH-109" value="P5" style="shape=partialRectangle;html=1;whiteSpace=wrap;connectable=0;fillColor=none;top=0;left=0;bottom=0;right=0;overflow=hidden;pointerEvents=1;rounded=0;strokeColor=default;" vertex="1" parent="fps1EA-GcfaW138LZgcH-24">
          <mxGeometry x="280" width="40" height="40" as="geometry">
            <mxRectangle width="40" height="40" as="alternateBounds" />
          </mxGeometry>
        </mxCell>
        <mxCell id="fps1EA-GcfaW138LZgcH-101" value="P6" style="shape=partialRectangle;html=1;whiteSpace=wrap;connectable=0;fillColor=none;top=0;left=0;bottom=0;right=0;overflow=hidden;pointerEvents=1;rounded=0;strokeColor=default;" vertex="1" parent="fps1EA-GcfaW138LZgcH-24">
          <mxGeometry x="320" width="40" height="40" as="geometry">
            <mxRectangle width="40" height="40" as="alternateBounds" />
          </mxGeometry>
        </mxCell>
        <mxCell id="fps1EA-GcfaW138LZgcH-145" value="P7" style="shape=partialRectangle;html=1;whiteSpace=wrap;connectable=0;fillColor=none;top=0;left=0;bottom=0;right=0;overflow=hidden;pointerEvents=1;rounded=0;strokeColor=default;" vertex="1" parent="fps1EA-GcfaW138LZgcH-24">
          <mxGeometry x="360" width="40" height="40" as="geometry">
            <mxRectangle width="40" height="40" as="alternateBounds" />
          </mxGeometry>
        </mxCell>
        <mxCell id="fps1EA-GcfaW138LZgcH-169" style="shape=partialRectangle;html=1;whiteSpace=wrap;connectable=0;fillColor=none;top=0;left=0;bottom=0;right=0;overflow=hidden;pointerEvents=1;rounded=0;strokeColor=default;" vertex="1" parent="fps1EA-GcfaW138LZgcH-24">
          <mxGeometry x="400" width="40" height="40" as="geometry">
            <mxRectangle width="40" height="40" as="alternateBounds" />
          </mxGeometry>
        </mxCell>
        <mxCell id="fps1EA-GcfaW138LZgcH-178" style="shape=partialRectangle;html=1;whiteSpace=wrap;connectable=0;fillColor=none;top=0;left=0;bottom=0;right=0;overflow=hidden;pointerEvents=1;rounded=0;strokeColor=default;" vertex="1" parent="fps1EA-GcfaW138LZgcH-24">
          <mxGeometry x="440" width="40" height="40" as="geometry">
            <mxRectangle width="40" height="40" as="alternateBounds" />
          </mxGeometry>
        </mxCell>
        <mxCell id="fps1EA-GcfaW138LZgcH-187" style="shape=partialRectangle;html=1;whiteSpace=wrap;connectable=0;fillColor=none;top=0;left=0;bottom=0;right=0;overflow=hidden;pointerEvents=1;rounded=0;strokeColor=default;" vertex="1" parent="fps1EA-GcfaW138LZgcH-24">
          <mxGeometry x="480" width="40" height="40" as="geometry">
            <mxRectangle width="40" height="40" as="alternateBounds" />
          </mxGeometry>
        </mxCell>
        <mxCell id="fps1EA-GcfaW138LZgcH-196" style="shape=partialRectangle;html=1;whiteSpace=wrap;connectable=0;fillColor=none;top=0;left=0;bottom=0;right=0;overflow=hidden;pointerEvents=1;rounded=0;strokeColor=default;" vertex="1" parent="fps1EA-GcfaW138LZgcH-24">
          <mxGeometry x="520" width="40" height="40" as="geometry">
            <mxRectangle width="40" height="40" as="alternateBounds" />
          </mxGeometry>
        </mxCell>
        <mxCell id="fps1EA-GcfaW138LZgcH-205" style="shape=partialRectangle;html=1;whiteSpace=wrap;connectable=0;fillColor=none;top=0;left=0;bottom=0;right=0;overflow=hidden;pointerEvents=1;rounded=0;strokeColor=default;" vertex="1" parent="fps1EA-GcfaW138LZgcH-24">
          <mxGeometry x="560" width="40" height="40" as="geometry">
            <mxRectangle width="40" height="40" as="alternateBounds" />
          </mxGeometry>
        </mxCell>
        <mxCell id="fps1EA-GcfaW138LZgcH-214" style="shape=partialRectangle;html=1;whiteSpace=wrap;connectable=0;fillColor=none;top=0;left=0;bottom=0;right=0;overflow=hidden;pointerEvents=1;rounded=0;strokeColor=default;" vertex="1" parent="fps1EA-GcfaW138LZgcH-24">
          <mxGeometry x="600" width="40" height="40" as="geometry">
            <mxRectangle width="40" height="40" as="alternateBounds" />
          </mxGeometry>
        </mxCell>
        <mxCell id="fps1EA-GcfaW138LZgcH-223" style="shape=partialRectangle;html=1;whiteSpace=wrap;connectable=0;fillColor=none;top=0;left=0;bottom=0;right=0;overflow=hidden;pointerEvents=1;rounded=0;strokeColor=default;" vertex="1" parent="fps1EA-GcfaW138LZgcH-24">
          <mxGeometry x="640" width="40" height="40" as="geometry">
            <mxRectangle width="40" height="40" as="alternateBounds" />
          </mxGeometry>
        </mxCell>
        <mxCell id="fps1EA-GcfaW138LZgcH-232" style="shape=partialRectangle;html=1;whiteSpace=wrap;connectable=0;fillColor=none;top=0;left=0;bottom=0;right=0;overflow=hidden;pointerEvents=1;rounded=0;strokeColor=default;" vertex="1" parent="fps1EA-GcfaW138LZgcH-24">
          <mxGeometry x="680" width="40" height="40" as="geometry">
            <mxRectangle width="40" height="40" as="alternateBounds" />
          </mxGeometry>
        </mxCell>
        <mxCell id="fps1EA-GcfaW138LZgcH-241" style="shape=partialRectangle;html=1;whiteSpace=wrap;connectable=0;fillColor=none;top=0;left=0;bottom=0;right=0;overflow=hidden;pointerEvents=1;rounded=0;strokeColor=default;" vertex="1" parent="fps1EA-GcfaW138LZgcH-24">
          <mxGeometry x="720" width="40" height="40" as="geometry">
            <mxRectangle width="40" height="40" as="alternateBounds" />
          </mxGeometry>
        </mxCell>
        <mxCell id="fps1EA-GcfaW138LZgcH-250" style="shape=partialRectangle;html=1;whiteSpace=wrap;connectable=0;fillColor=none;top=0;left=0;bottom=0;right=0;overflow=hidden;pointerEvents=1;rounded=0;strokeColor=default;" vertex="1" parent="fps1EA-GcfaW138LZgcH-24">
          <mxGeometry x="760" width="40" height="40" as="geometry">
            <mxRectangle width="40" height="40" as="alternateBounds" />
          </mxGeometry>
        </mxCell>
        <mxCell id="fps1EA-GcfaW138LZgcH-259" style="shape=partialRectangle;html=1;whiteSpace=wrap;connectable=0;fillColor=none;top=0;left=0;bottom=0;right=0;overflow=hidden;pointerEvents=1;rounded=0;strokeColor=default;" vertex="1" parent="fps1EA-GcfaW138LZgcH-24">
          <mxGeometry x="800" width="40" height="40" as="geometry">
            <mxRectangle width="40" height="40" as="alternateBounds" />
          </mxGeometry>
        </mxCell>
        <mxCell id="fps1EA-GcfaW138LZgcH-28" value="" style="shape=partialRectangle;html=1;whiteSpace=wrap;collapsible=0;dropTarget=0;pointerEvents=0;fillColor=none;top=0;left=0;bottom=0;right=0;points=[[0,0.5],[1,0.5]];portConstraint=eastwest;rounded=0;strokeColor=default;" vertex="1" parent="fps1EA-GcfaW138LZgcH-23">
          <mxGeometry y="80" width="840" height="40" as="geometry" />
        </mxCell>
        <mxCell id="fps1EA-GcfaW138LZgcH-29" value="&lt;p class=&quot;MsoNormal&quot; style=&quot;text-align: justify ; vertical-align: middle&quot; align=&quot;justify&quot;&gt;&lt;span class=&quot;15&quot; style=&quot;color: rgb(0 , 0 , 0) ; font-style: normal ; font-size: 9.0000pt&quot;&gt;&lt;font face=&quot;Calibri&quot;&gt;CN1&lt;/font&gt;&lt;/span&gt;&lt;/p&gt;" style="shape=partialRectangle;html=1;whiteSpace=wrap;connectable=0;fillColor=none;top=0;left=0;bottom=0;right=0;overflow=hidden;pointerEvents=1;rounded=0;strokeColor=default;" vertex="1" parent="fps1EA-GcfaW138LZgcH-28">
          <mxGeometry width="60" height="40" as="geometry">
            <mxRectangle width="60" height="40" as="alternateBounds" />
          </mxGeometry>
        </mxCell>
        <mxCell id="fps1EA-GcfaW138LZgcH-30" value="&lt;p class=&quot;MsoNormal&quot; style=&quot;text-align: right ; vertical-align: bottom&quot; align=&quot;right&quot;&gt;&lt;span style=&quot;font-family: &amp;#34;arial&amp;#34; ; color: rgb(0 , 0 , 0) ; font-style: normal ; font-size: 9.0000pt&quot;&gt;0.1252&lt;/span&gt;&lt;/p&gt;" style="shape=partialRectangle;html=1;whiteSpace=wrap;connectable=0;fillColor=none;top=0;left=0;bottom=0;right=0;overflow=hidden;pointerEvents=1;rounded=0;strokeColor=default;" vertex="1" parent="fps1EA-GcfaW138LZgcH-28">
          <mxGeometry x="60" width="60" height="40" as="geometry">
            <mxRectangle width="60" height="40" as="alternateBounds" />
          </mxGeometry>
        </mxCell>
        <mxCell id="fps1EA-GcfaW138LZgcH-31" value="" style="shape=partialRectangle;html=1;whiteSpace=wrap;connectable=0;fillColor=none;top=0;left=0;bottom=0;right=0;overflow=hidden;pointerEvents=1;rounded=0;strokeColor=default;" vertex="1" parent="fps1EA-GcfaW138LZgcH-28">
          <mxGeometry x="120" width="40" height="40" as="geometry">
            <mxRectangle width="40" height="40" as="alternateBounds" />
          </mxGeometry>
        </mxCell>
        <mxCell id="fps1EA-GcfaW138LZgcH-67" style="shape=partialRectangle;html=1;whiteSpace=wrap;connectable=0;fillColor=none;top=0;left=0;bottom=0;right=0;overflow=hidden;pointerEvents=1;rounded=0;strokeColor=default;" vertex="1" parent="fps1EA-GcfaW138LZgcH-28">
          <mxGeometry x="160" width="40" height="40" as="geometry">
            <mxRectangle width="40" height="40" as="alternateBounds" />
          </mxGeometry>
        </mxCell>
        <mxCell id="fps1EA-GcfaW138LZgcH-126" style="shape=partialRectangle;html=1;whiteSpace=wrap;connectable=0;fillColor=none;top=0;left=0;bottom=0;right=0;overflow=hidden;pointerEvents=1;rounded=0;strokeColor=default;" vertex="1" parent="fps1EA-GcfaW138LZgcH-28">
          <mxGeometry x="200" width="40" height="40" as="geometry">
            <mxRectangle width="40" height="40" as="alternateBounds" />
          </mxGeometry>
        </mxCell>
        <mxCell id="fps1EA-GcfaW138LZgcH-118" style="shape=partialRectangle;html=1;whiteSpace=wrap;connectable=0;fillColor=none;top=0;left=0;bottom=0;right=0;overflow=hidden;pointerEvents=1;rounded=0;strokeColor=default;" vertex="1" parent="fps1EA-GcfaW138LZgcH-28">
          <mxGeometry x="240" width="40" height="40" as="geometry">
            <mxRectangle width="40" height="40" as="alternateBounds" />
          </mxGeometry>
        </mxCell>
        <mxCell id="fps1EA-GcfaW138LZgcH-110" style="shape=partialRectangle;html=1;whiteSpace=wrap;connectable=0;fillColor=none;top=0;left=0;bottom=0;right=0;overflow=hidden;pointerEvents=1;rounded=0;strokeColor=default;" vertex="1" parent="fps1EA-GcfaW138LZgcH-28">
          <mxGeometry x="280" width="40" height="40" as="geometry">
            <mxRectangle width="40" height="40" as="alternateBounds" />
          </mxGeometry>
        </mxCell>
        <mxCell id="fps1EA-GcfaW138LZgcH-102" style="shape=partialRectangle;html=1;whiteSpace=wrap;connectable=0;fillColor=none;top=0;left=0;bottom=0;right=0;overflow=hidden;pointerEvents=1;rounded=0;strokeColor=default;" vertex="1" parent="fps1EA-GcfaW138LZgcH-28">
          <mxGeometry x="320" width="40" height="40" as="geometry">
            <mxRectangle width="40" height="40" as="alternateBounds" />
          </mxGeometry>
        </mxCell>
        <mxCell id="fps1EA-GcfaW138LZgcH-146" style="shape=partialRectangle;html=1;whiteSpace=wrap;connectable=0;fillColor=none;top=0;left=0;bottom=0;right=0;overflow=hidden;pointerEvents=1;rounded=0;strokeColor=default;" vertex="1" parent="fps1EA-GcfaW138LZgcH-28">
          <mxGeometry x="360" width="40" height="40" as="geometry">
            <mxRectangle width="40" height="40" as="alternateBounds" />
          </mxGeometry>
        </mxCell>
        <mxCell id="fps1EA-GcfaW138LZgcH-170" style="shape=partialRectangle;html=1;whiteSpace=wrap;connectable=0;fillColor=none;top=0;left=0;bottom=0;right=0;overflow=hidden;pointerEvents=1;rounded=0;strokeColor=default;" vertex="1" parent="fps1EA-GcfaW138LZgcH-28">
          <mxGeometry x="400" width="40" height="40" as="geometry">
            <mxRectangle width="40" height="40" as="alternateBounds" />
          </mxGeometry>
        </mxCell>
        <mxCell id="fps1EA-GcfaW138LZgcH-179" style="shape=partialRectangle;html=1;whiteSpace=wrap;connectable=0;fillColor=none;top=0;left=0;bottom=0;right=0;overflow=hidden;pointerEvents=1;rounded=0;strokeColor=default;" vertex="1" parent="fps1EA-GcfaW138LZgcH-28">
          <mxGeometry x="440" width="40" height="40" as="geometry">
            <mxRectangle width="40" height="40" as="alternateBounds" />
          </mxGeometry>
        </mxCell>
        <mxCell id="fps1EA-GcfaW138LZgcH-188" style="shape=partialRectangle;html=1;whiteSpace=wrap;connectable=0;fillColor=none;top=0;left=0;bottom=0;right=0;overflow=hidden;pointerEvents=1;rounded=0;strokeColor=default;" vertex="1" parent="fps1EA-GcfaW138LZgcH-28">
          <mxGeometry x="480" width="40" height="40" as="geometry">
            <mxRectangle width="40" height="40" as="alternateBounds" />
          </mxGeometry>
        </mxCell>
        <mxCell id="fps1EA-GcfaW138LZgcH-197" style="shape=partialRectangle;html=1;whiteSpace=wrap;connectable=0;fillColor=none;top=0;left=0;bottom=0;right=0;overflow=hidden;pointerEvents=1;rounded=0;strokeColor=default;" vertex="1" parent="fps1EA-GcfaW138LZgcH-28">
          <mxGeometry x="520" width="40" height="40" as="geometry">
            <mxRectangle width="40" height="40" as="alternateBounds" />
          </mxGeometry>
        </mxCell>
        <mxCell id="fps1EA-GcfaW138LZgcH-206" style="shape=partialRectangle;html=1;whiteSpace=wrap;connectable=0;fillColor=none;top=0;left=0;bottom=0;right=0;overflow=hidden;pointerEvents=1;rounded=0;strokeColor=default;" vertex="1" parent="fps1EA-GcfaW138LZgcH-28">
          <mxGeometry x="560" width="40" height="40" as="geometry">
            <mxRectangle width="40" height="40" as="alternateBounds" />
          </mxGeometry>
        </mxCell>
        <mxCell id="fps1EA-GcfaW138LZgcH-215" style="shape=partialRectangle;html=1;whiteSpace=wrap;connectable=0;fillColor=none;top=0;left=0;bottom=0;right=0;overflow=hidden;pointerEvents=1;rounded=0;strokeColor=default;" vertex="1" parent="fps1EA-GcfaW138LZgcH-28">
          <mxGeometry x="600" width="40" height="40" as="geometry">
            <mxRectangle width="40" height="40" as="alternateBounds" />
          </mxGeometry>
        </mxCell>
        <mxCell id="fps1EA-GcfaW138LZgcH-224" style="shape=partialRectangle;html=1;whiteSpace=wrap;connectable=0;fillColor=none;top=0;left=0;bottom=0;right=0;overflow=hidden;pointerEvents=1;rounded=0;strokeColor=default;" vertex="1" parent="fps1EA-GcfaW138LZgcH-28">
          <mxGeometry x="640" width="40" height="40" as="geometry">
            <mxRectangle width="40" height="40" as="alternateBounds" />
          </mxGeometry>
        </mxCell>
        <mxCell id="fps1EA-GcfaW138LZgcH-233" style="shape=partialRectangle;html=1;whiteSpace=wrap;connectable=0;fillColor=none;top=0;left=0;bottom=0;right=0;overflow=hidden;pointerEvents=1;rounded=0;strokeColor=default;" vertex="1" parent="fps1EA-GcfaW138LZgcH-28">
          <mxGeometry x="680" width="40" height="40" as="geometry">
            <mxRectangle width="40" height="40" as="alternateBounds" />
          </mxGeometry>
        </mxCell>
        <mxCell id="fps1EA-GcfaW138LZgcH-242" style="shape=partialRectangle;html=1;whiteSpace=wrap;connectable=0;fillColor=none;top=0;left=0;bottom=0;right=0;overflow=hidden;pointerEvents=1;rounded=0;strokeColor=default;" vertex="1" parent="fps1EA-GcfaW138LZgcH-28">
          <mxGeometry x="720" width="40" height="40" as="geometry">
            <mxRectangle width="40" height="40" as="alternateBounds" />
          </mxGeometry>
        </mxCell>
        <mxCell id="fps1EA-GcfaW138LZgcH-251" style="shape=partialRectangle;html=1;whiteSpace=wrap;connectable=0;fillColor=none;top=0;left=0;bottom=0;right=0;overflow=hidden;pointerEvents=1;rounded=0;strokeColor=default;" vertex="1" parent="fps1EA-GcfaW138LZgcH-28">
          <mxGeometry x="760" width="40" height="40" as="geometry">
            <mxRectangle width="40" height="40" as="alternateBounds" />
          </mxGeometry>
        </mxCell>
        <mxCell id="fps1EA-GcfaW138LZgcH-260" style="shape=partialRectangle;html=1;whiteSpace=wrap;connectable=0;fillColor=none;top=0;left=0;bottom=0;right=0;overflow=hidden;pointerEvents=1;rounded=0;strokeColor=default;" vertex="1" parent="fps1EA-GcfaW138LZgcH-28">
          <mxGeometry x="800" width="40" height="40" as="geometry">
            <mxRectangle width="40" height="40" as="alternateBounds" />
          </mxGeometry>
        </mxCell>
        <mxCell id="fps1EA-GcfaW138LZgcH-32" value="" style="shape=partialRectangle;html=1;whiteSpace=wrap;collapsible=0;dropTarget=0;pointerEvents=0;fillColor=none;top=0;left=0;bottom=0;right=0;points=[[0,0.5],[1,0.5]];portConstraint=eastwest;rounded=0;strokeColor=default;" vertex="1" parent="fps1EA-GcfaW138LZgcH-23">
          <mxGeometry y="120" width="840" height="40" as="geometry" />
        </mxCell>
        <mxCell id="fps1EA-GcfaW138LZgcH-33" value="&lt;p class=&quot;MsoNormal&quot; style=&quot;text-align: justify ; vertical-align: middle&quot; align=&quot;justify&quot;&gt;&lt;span class=&quot;15&quot; style=&quot;color: rgb(0 , 0 , 0) ; font-style: normal ; font-size: 9.0000pt&quot;&gt;&lt;font face=&quot;Calibri&quot;&gt;CN2&lt;/font&gt;&lt;/span&gt;&lt;/p&gt;" style="shape=partialRectangle;html=1;whiteSpace=wrap;connectable=0;fillColor=none;top=0;left=0;bottom=0;right=0;overflow=hidden;pointerEvents=1;rounded=0;strokeColor=default;" vertex="1" parent="fps1EA-GcfaW138LZgcH-32">
          <mxGeometry width="60" height="40" as="geometry">
            <mxRectangle width="60" height="40" as="alternateBounds" />
          </mxGeometry>
        </mxCell>
        <mxCell id="fps1EA-GcfaW138LZgcH-34" value="&lt;p class=&quot;MsoNormal&quot; style=&quot;text-align: right ; vertical-align: bottom&quot; align=&quot;right&quot;&gt;&lt;span style=&quot;font-family: &amp;#34;arial&amp;#34; ; color: rgb(0 , 0 , 0) ; font-style: normal ; font-size: 9.0000pt&quot;&gt;0.3107&lt;/span&gt;&lt;/p&gt;" style="shape=partialRectangle;html=1;whiteSpace=wrap;connectable=0;fillColor=none;top=0;left=0;bottom=0;right=0;overflow=hidden;pointerEvents=1;rounded=0;strokeColor=default;" vertex="1" parent="fps1EA-GcfaW138LZgcH-32">
          <mxGeometry x="60" width="60" height="40" as="geometry">
            <mxRectangle width="60" height="40" as="alternateBounds" />
          </mxGeometry>
        </mxCell>
        <mxCell id="fps1EA-GcfaW138LZgcH-35" value="" style="shape=partialRectangle;html=1;whiteSpace=wrap;connectable=0;fillColor=none;top=0;left=0;bottom=0;right=0;overflow=hidden;pointerEvents=1;rounded=0;strokeColor=default;" vertex="1" parent="fps1EA-GcfaW138LZgcH-32">
          <mxGeometry x="120" width="40" height="40" as="geometry">
            <mxRectangle width="40" height="40" as="alternateBounds" />
          </mxGeometry>
        </mxCell>
        <mxCell id="fps1EA-GcfaW138LZgcH-68" style="shape=partialRectangle;html=1;whiteSpace=wrap;connectable=0;fillColor=none;top=0;left=0;bottom=0;right=0;overflow=hidden;pointerEvents=1;rounded=0;strokeColor=default;" vertex="1" parent="fps1EA-GcfaW138LZgcH-32">
          <mxGeometry x="160" width="40" height="40" as="geometry">
            <mxRectangle width="40" height="40" as="alternateBounds" />
          </mxGeometry>
        </mxCell>
        <mxCell id="fps1EA-GcfaW138LZgcH-127" style="shape=partialRectangle;html=1;whiteSpace=wrap;connectable=0;fillColor=none;top=0;left=0;bottom=0;right=0;overflow=hidden;pointerEvents=1;rounded=0;strokeColor=default;" vertex="1" parent="fps1EA-GcfaW138LZgcH-32">
          <mxGeometry x="200" width="40" height="40" as="geometry">
            <mxRectangle width="40" height="40" as="alternateBounds" />
          </mxGeometry>
        </mxCell>
        <mxCell id="fps1EA-GcfaW138LZgcH-119" style="shape=partialRectangle;html=1;whiteSpace=wrap;connectable=0;fillColor=none;top=0;left=0;bottom=0;right=0;overflow=hidden;pointerEvents=1;rounded=0;strokeColor=default;" vertex="1" parent="fps1EA-GcfaW138LZgcH-32">
          <mxGeometry x="240" width="40" height="40" as="geometry">
            <mxRectangle width="40" height="40" as="alternateBounds" />
          </mxGeometry>
        </mxCell>
        <mxCell id="fps1EA-GcfaW138LZgcH-111" style="shape=partialRectangle;html=1;whiteSpace=wrap;connectable=0;fillColor=none;top=0;left=0;bottom=0;right=0;overflow=hidden;pointerEvents=1;rounded=0;strokeColor=default;" vertex="1" parent="fps1EA-GcfaW138LZgcH-32">
          <mxGeometry x="280" width="40" height="40" as="geometry">
            <mxRectangle width="40" height="40" as="alternateBounds" />
          </mxGeometry>
        </mxCell>
        <mxCell id="fps1EA-GcfaW138LZgcH-103" style="shape=partialRectangle;html=1;whiteSpace=wrap;connectable=0;fillColor=none;top=0;left=0;bottom=0;right=0;overflow=hidden;pointerEvents=1;rounded=0;strokeColor=default;" vertex="1" parent="fps1EA-GcfaW138LZgcH-32">
          <mxGeometry x="320" width="40" height="40" as="geometry">
            <mxRectangle width="40" height="40" as="alternateBounds" />
          </mxGeometry>
        </mxCell>
        <mxCell id="fps1EA-GcfaW138LZgcH-147" style="shape=partialRectangle;html=1;whiteSpace=wrap;connectable=0;fillColor=none;top=0;left=0;bottom=0;right=0;overflow=hidden;pointerEvents=1;rounded=0;strokeColor=default;" vertex="1" parent="fps1EA-GcfaW138LZgcH-32">
          <mxGeometry x="360" width="40" height="40" as="geometry">
            <mxRectangle width="40" height="40" as="alternateBounds" />
          </mxGeometry>
        </mxCell>
        <mxCell id="fps1EA-GcfaW138LZgcH-171" style="shape=partialRectangle;html=1;whiteSpace=wrap;connectable=0;fillColor=none;top=0;left=0;bottom=0;right=0;overflow=hidden;pointerEvents=1;rounded=0;strokeColor=default;" vertex="1" parent="fps1EA-GcfaW138LZgcH-32">
          <mxGeometry x="400" width="40" height="40" as="geometry">
            <mxRectangle width="40" height="40" as="alternateBounds" />
          </mxGeometry>
        </mxCell>
        <mxCell id="fps1EA-GcfaW138LZgcH-180" style="shape=partialRectangle;html=1;whiteSpace=wrap;connectable=0;fillColor=none;top=0;left=0;bottom=0;right=0;overflow=hidden;pointerEvents=1;rounded=0;strokeColor=default;" vertex="1" parent="fps1EA-GcfaW138LZgcH-32">
          <mxGeometry x="440" width="40" height="40" as="geometry">
            <mxRectangle width="40" height="40" as="alternateBounds" />
          </mxGeometry>
        </mxCell>
        <mxCell id="fps1EA-GcfaW138LZgcH-189" style="shape=partialRectangle;html=1;whiteSpace=wrap;connectable=0;fillColor=none;top=0;left=0;bottom=0;right=0;overflow=hidden;pointerEvents=1;rounded=0;strokeColor=default;" vertex="1" parent="fps1EA-GcfaW138LZgcH-32">
          <mxGeometry x="480" width="40" height="40" as="geometry">
            <mxRectangle width="40" height="40" as="alternateBounds" />
          </mxGeometry>
        </mxCell>
        <mxCell id="fps1EA-GcfaW138LZgcH-198" style="shape=partialRectangle;html=1;whiteSpace=wrap;connectable=0;fillColor=none;top=0;left=0;bottom=0;right=0;overflow=hidden;pointerEvents=1;rounded=0;strokeColor=default;" vertex="1" parent="fps1EA-GcfaW138LZgcH-32">
          <mxGeometry x="520" width="40" height="40" as="geometry">
            <mxRectangle width="40" height="40" as="alternateBounds" />
          </mxGeometry>
        </mxCell>
        <mxCell id="fps1EA-GcfaW138LZgcH-207" style="shape=partialRectangle;html=1;whiteSpace=wrap;connectable=0;fillColor=none;top=0;left=0;bottom=0;right=0;overflow=hidden;pointerEvents=1;rounded=0;strokeColor=default;" vertex="1" parent="fps1EA-GcfaW138LZgcH-32">
          <mxGeometry x="560" width="40" height="40" as="geometry">
            <mxRectangle width="40" height="40" as="alternateBounds" />
          </mxGeometry>
        </mxCell>
        <mxCell id="fps1EA-GcfaW138LZgcH-216" style="shape=partialRectangle;html=1;whiteSpace=wrap;connectable=0;fillColor=none;top=0;left=0;bottom=0;right=0;overflow=hidden;pointerEvents=1;rounded=0;strokeColor=default;" vertex="1" parent="fps1EA-GcfaW138LZgcH-32">
          <mxGeometry x="600" width="40" height="40" as="geometry">
            <mxRectangle width="40" height="40" as="alternateBounds" />
          </mxGeometry>
        </mxCell>
        <mxCell id="fps1EA-GcfaW138LZgcH-225" style="shape=partialRectangle;html=1;whiteSpace=wrap;connectable=0;fillColor=none;top=0;left=0;bottom=0;right=0;overflow=hidden;pointerEvents=1;rounded=0;strokeColor=default;" vertex="1" parent="fps1EA-GcfaW138LZgcH-32">
          <mxGeometry x="640" width="40" height="40" as="geometry">
            <mxRectangle width="40" height="40" as="alternateBounds" />
          </mxGeometry>
        </mxCell>
        <mxCell id="fps1EA-GcfaW138LZgcH-234" style="shape=partialRectangle;html=1;whiteSpace=wrap;connectable=0;fillColor=none;top=0;left=0;bottom=0;right=0;overflow=hidden;pointerEvents=1;rounded=0;strokeColor=default;" vertex="1" parent="fps1EA-GcfaW138LZgcH-32">
          <mxGeometry x="680" width="40" height="40" as="geometry">
            <mxRectangle width="40" height="40" as="alternateBounds" />
          </mxGeometry>
        </mxCell>
        <mxCell id="fps1EA-GcfaW138LZgcH-243" style="shape=partialRectangle;html=1;whiteSpace=wrap;connectable=0;fillColor=none;top=0;left=0;bottom=0;right=0;overflow=hidden;pointerEvents=1;rounded=0;strokeColor=default;" vertex="1" parent="fps1EA-GcfaW138LZgcH-32">
          <mxGeometry x="720" width="40" height="40" as="geometry">
            <mxRectangle width="40" height="40" as="alternateBounds" />
          </mxGeometry>
        </mxCell>
        <mxCell id="fps1EA-GcfaW138LZgcH-252" style="shape=partialRectangle;html=1;whiteSpace=wrap;connectable=0;fillColor=none;top=0;left=0;bottom=0;right=0;overflow=hidden;pointerEvents=1;rounded=0;strokeColor=default;" vertex="1" parent="fps1EA-GcfaW138LZgcH-32">
          <mxGeometry x="760" width="40" height="40" as="geometry">
            <mxRectangle width="40" height="40" as="alternateBounds" />
          </mxGeometry>
        </mxCell>
        <mxCell id="fps1EA-GcfaW138LZgcH-261" style="shape=partialRectangle;html=1;whiteSpace=wrap;connectable=0;fillColor=none;top=0;left=0;bottom=0;right=0;overflow=hidden;pointerEvents=1;rounded=0;strokeColor=default;" vertex="1" parent="fps1EA-GcfaW138LZgcH-32">
          <mxGeometry x="800" width="40" height="40" as="geometry">
            <mxRectangle width="40" height="40" as="alternateBounds" />
          </mxGeometry>
        </mxCell>
        <mxCell id="fps1EA-GcfaW138LZgcH-36" value="" style="shape=partialRectangle;html=1;whiteSpace=wrap;collapsible=0;dropTarget=0;pointerEvents=0;fillColor=none;top=0;left=0;bottom=0;right=0;points=[[0,0.5],[1,0.5]];portConstraint=eastwest;rounded=0;strokeColor=default;" vertex="1" parent="fps1EA-GcfaW138LZgcH-23">
          <mxGeometry y="160" width="840" height="40" as="geometry" />
        </mxCell>
        <mxCell id="fps1EA-GcfaW138LZgcH-37" value="&lt;p class=&quot;MsoNormal&quot; style=&quot;text-align: justify ; vertical-align: middle&quot; align=&quot;justify&quot;&gt;&lt;span class=&quot;15&quot; style=&quot;color: rgb(0 , 0 , 0) ; font-style: normal ; font-size: 9.0000pt&quot;&gt;&lt;font face=&quot;Calibri&quot;&gt;CN3&lt;/font&gt;&lt;/span&gt;&lt;/p&gt;" style="shape=partialRectangle;html=1;whiteSpace=wrap;connectable=0;fillColor=none;top=0;left=0;bottom=0;right=0;overflow=hidden;pointerEvents=1;rounded=0;strokeColor=default;" vertex="1" parent="fps1EA-GcfaW138LZgcH-36">
          <mxGeometry width="60" height="40" as="geometry">
            <mxRectangle width="60" height="40" as="alternateBounds" />
          </mxGeometry>
        </mxCell>
        <mxCell id="fps1EA-GcfaW138LZgcH-38" value="&lt;p class=&quot;MsoNormal&quot; style=&quot;text-align: right ; vertical-align: bottom&quot; align=&quot;right&quot;&gt;&lt;span style=&quot;font-family: &amp;#34;arial&amp;#34; ; color: rgb(0 , 0 , 0) ; font-style: normal ; font-size: 9.0000pt&quot;&gt;0.1524&lt;/span&gt;&lt;/p&gt;" style="shape=partialRectangle;html=1;whiteSpace=wrap;connectable=0;fillColor=none;top=0;left=0;bottom=0;right=0;overflow=hidden;pointerEvents=1;rounded=0;strokeColor=default;" vertex="1" parent="fps1EA-GcfaW138LZgcH-36">
          <mxGeometry x="60" width="60" height="40" as="geometry">
            <mxRectangle width="60" height="40" as="alternateBounds" />
          </mxGeometry>
        </mxCell>
        <mxCell id="fps1EA-GcfaW138LZgcH-39" value="" style="shape=partialRectangle;html=1;whiteSpace=wrap;connectable=0;fillColor=none;top=0;left=0;bottom=0;right=0;overflow=hidden;pointerEvents=1;rounded=0;strokeColor=default;" vertex="1" parent="fps1EA-GcfaW138LZgcH-36">
          <mxGeometry x="120" width="40" height="40" as="geometry">
            <mxRectangle width="40" height="40" as="alternateBounds" />
          </mxGeometry>
        </mxCell>
        <mxCell id="fps1EA-GcfaW138LZgcH-69" style="shape=partialRectangle;html=1;whiteSpace=wrap;connectable=0;fillColor=none;top=0;left=0;bottom=0;right=0;overflow=hidden;pointerEvents=1;rounded=0;strokeColor=default;" vertex="1" parent="fps1EA-GcfaW138LZgcH-36">
          <mxGeometry x="160" width="40" height="40" as="geometry">
            <mxRectangle width="40" height="40" as="alternateBounds" />
          </mxGeometry>
        </mxCell>
        <mxCell id="fps1EA-GcfaW138LZgcH-128" style="shape=partialRectangle;html=1;whiteSpace=wrap;connectable=0;fillColor=none;top=0;left=0;bottom=0;right=0;overflow=hidden;pointerEvents=1;rounded=0;strokeColor=default;" vertex="1" parent="fps1EA-GcfaW138LZgcH-36">
          <mxGeometry x="200" width="40" height="40" as="geometry">
            <mxRectangle width="40" height="40" as="alternateBounds" />
          </mxGeometry>
        </mxCell>
        <mxCell id="fps1EA-GcfaW138LZgcH-120" style="shape=partialRectangle;html=1;whiteSpace=wrap;connectable=0;fillColor=none;top=0;left=0;bottom=0;right=0;overflow=hidden;pointerEvents=1;rounded=0;strokeColor=default;" vertex="1" parent="fps1EA-GcfaW138LZgcH-36">
          <mxGeometry x="240" width="40" height="40" as="geometry">
            <mxRectangle width="40" height="40" as="alternateBounds" />
          </mxGeometry>
        </mxCell>
        <mxCell id="fps1EA-GcfaW138LZgcH-112" style="shape=partialRectangle;html=1;whiteSpace=wrap;connectable=0;fillColor=none;top=0;left=0;bottom=0;right=0;overflow=hidden;pointerEvents=1;rounded=0;strokeColor=default;" vertex="1" parent="fps1EA-GcfaW138LZgcH-36">
          <mxGeometry x="280" width="40" height="40" as="geometry">
            <mxRectangle width="40" height="40" as="alternateBounds" />
          </mxGeometry>
        </mxCell>
        <mxCell id="fps1EA-GcfaW138LZgcH-104" style="shape=partialRectangle;html=1;whiteSpace=wrap;connectable=0;fillColor=none;top=0;left=0;bottom=0;right=0;overflow=hidden;pointerEvents=1;rounded=0;strokeColor=default;" vertex="1" parent="fps1EA-GcfaW138LZgcH-36">
          <mxGeometry x="320" width="40" height="40" as="geometry">
            <mxRectangle width="40" height="40" as="alternateBounds" />
          </mxGeometry>
        </mxCell>
        <mxCell id="fps1EA-GcfaW138LZgcH-148" style="shape=partialRectangle;html=1;whiteSpace=wrap;connectable=0;fillColor=none;top=0;left=0;bottom=0;right=0;overflow=hidden;pointerEvents=1;rounded=0;strokeColor=default;" vertex="1" parent="fps1EA-GcfaW138LZgcH-36">
          <mxGeometry x="360" width="40" height="40" as="geometry">
            <mxRectangle width="40" height="40" as="alternateBounds" />
          </mxGeometry>
        </mxCell>
        <mxCell id="fps1EA-GcfaW138LZgcH-172" style="shape=partialRectangle;html=1;whiteSpace=wrap;connectable=0;fillColor=none;top=0;left=0;bottom=0;right=0;overflow=hidden;pointerEvents=1;rounded=0;strokeColor=default;" vertex="1" parent="fps1EA-GcfaW138LZgcH-36">
          <mxGeometry x="400" width="40" height="40" as="geometry">
            <mxRectangle width="40" height="40" as="alternateBounds" />
          </mxGeometry>
        </mxCell>
        <mxCell id="fps1EA-GcfaW138LZgcH-181" style="shape=partialRectangle;html=1;whiteSpace=wrap;connectable=0;fillColor=none;top=0;left=0;bottom=0;right=0;overflow=hidden;pointerEvents=1;rounded=0;strokeColor=default;" vertex="1" parent="fps1EA-GcfaW138LZgcH-36">
          <mxGeometry x="440" width="40" height="40" as="geometry">
            <mxRectangle width="40" height="40" as="alternateBounds" />
          </mxGeometry>
        </mxCell>
        <mxCell id="fps1EA-GcfaW138LZgcH-190" style="shape=partialRectangle;html=1;whiteSpace=wrap;connectable=0;fillColor=none;top=0;left=0;bottom=0;right=0;overflow=hidden;pointerEvents=1;rounded=0;strokeColor=default;" vertex="1" parent="fps1EA-GcfaW138LZgcH-36">
          <mxGeometry x="480" width="40" height="40" as="geometry">
            <mxRectangle width="40" height="40" as="alternateBounds" />
          </mxGeometry>
        </mxCell>
        <mxCell id="fps1EA-GcfaW138LZgcH-199" style="shape=partialRectangle;html=1;whiteSpace=wrap;connectable=0;fillColor=none;top=0;left=0;bottom=0;right=0;overflow=hidden;pointerEvents=1;rounded=0;strokeColor=default;" vertex="1" parent="fps1EA-GcfaW138LZgcH-36">
          <mxGeometry x="520" width="40" height="40" as="geometry">
            <mxRectangle width="40" height="40" as="alternateBounds" />
          </mxGeometry>
        </mxCell>
        <mxCell id="fps1EA-GcfaW138LZgcH-208" style="shape=partialRectangle;html=1;whiteSpace=wrap;connectable=0;fillColor=none;top=0;left=0;bottom=0;right=0;overflow=hidden;pointerEvents=1;rounded=0;strokeColor=default;" vertex="1" parent="fps1EA-GcfaW138LZgcH-36">
          <mxGeometry x="560" width="40" height="40" as="geometry">
            <mxRectangle width="40" height="40" as="alternateBounds" />
          </mxGeometry>
        </mxCell>
        <mxCell id="fps1EA-GcfaW138LZgcH-217" style="shape=partialRectangle;html=1;whiteSpace=wrap;connectable=0;fillColor=none;top=0;left=0;bottom=0;right=0;overflow=hidden;pointerEvents=1;rounded=0;strokeColor=default;" vertex="1" parent="fps1EA-GcfaW138LZgcH-36">
          <mxGeometry x="600" width="40" height="40" as="geometry">
            <mxRectangle width="40" height="40" as="alternateBounds" />
          </mxGeometry>
        </mxCell>
        <mxCell id="fps1EA-GcfaW138LZgcH-226" style="shape=partialRectangle;html=1;whiteSpace=wrap;connectable=0;fillColor=none;top=0;left=0;bottom=0;right=0;overflow=hidden;pointerEvents=1;rounded=0;strokeColor=default;" vertex="1" parent="fps1EA-GcfaW138LZgcH-36">
          <mxGeometry x="640" width="40" height="40" as="geometry">
            <mxRectangle width="40" height="40" as="alternateBounds" />
          </mxGeometry>
        </mxCell>
        <mxCell id="fps1EA-GcfaW138LZgcH-235" style="shape=partialRectangle;html=1;whiteSpace=wrap;connectable=0;fillColor=none;top=0;left=0;bottom=0;right=0;overflow=hidden;pointerEvents=1;rounded=0;strokeColor=default;" vertex="1" parent="fps1EA-GcfaW138LZgcH-36">
          <mxGeometry x="680" width="40" height="40" as="geometry">
            <mxRectangle width="40" height="40" as="alternateBounds" />
          </mxGeometry>
        </mxCell>
        <mxCell id="fps1EA-GcfaW138LZgcH-244" style="shape=partialRectangle;html=1;whiteSpace=wrap;connectable=0;fillColor=none;top=0;left=0;bottom=0;right=0;overflow=hidden;pointerEvents=1;rounded=0;strokeColor=default;" vertex="1" parent="fps1EA-GcfaW138LZgcH-36">
          <mxGeometry x="720" width="40" height="40" as="geometry">
            <mxRectangle width="40" height="40" as="alternateBounds" />
          </mxGeometry>
        </mxCell>
        <mxCell id="fps1EA-GcfaW138LZgcH-253" style="shape=partialRectangle;html=1;whiteSpace=wrap;connectable=0;fillColor=none;top=0;left=0;bottom=0;right=0;overflow=hidden;pointerEvents=1;rounded=0;strokeColor=default;" vertex="1" parent="fps1EA-GcfaW138LZgcH-36">
          <mxGeometry x="760" width="40" height="40" as="geometry">
            <mxRectangle width="40" height="40" as="alternateBounds" />
          </mxGeometry>
        </mxCell>
        <mxCell id="fps1EA-GcfaW138LZgcH-262" style="shape=partialRectangle;html=1;whiteSpace=wrap;connectable=0;fillColor=none;top=0;left=0;bottom=0;right=0;overflow=hidden;pointerEvents=1;rounded=0;strokeColor=default;" vertex="1" parent="fps1EA-GcfaW138LZgcH-36">
          <mxGeometry x="800" width="40" height="40" as="geometry">
            <mxRectangle width="40" height="40" as="alternateBounds" />
          </mxGeometry>
        </mxCell>
        <mxCell id="fps1EA-GcfaW138LZgcH-40" value="" style="shape=partialRectangle;html=1;whiteSpace=wrap;collapsible=0;dropTarget=0;pointerEvents=0;fillColor=none;top=0;left=0;bottom=0;right=0;points=[[0,0.5],[1,0.5]];portConstraint=eastwest;rounded=0;strokeColor=default;" vertex="1" parent="fps1EA-GcfaW138LZgcH-23">
          <mxGeometry y="200" width="840" height="40" as="geometry" />
        </mxCell>
        <mxCell id="fps1EA-GcfaW138LZgcH-41" value="&lt;p class=&quot;MsoNormal&quot; style=&quot;text-align: justify ; vertical-align: middle&quot; align=&quot;justify&quot;&gt;&lt;span class=&quot;15&quot; style=&quot;color: rgb(0 , 0 , 0) ; font-style: normal ; font-size: 9.0000pt&quot;&gt;&lt;font face=&quot;Calibri&quot;&gt;CN4&lt;/font&gt;&lt;/span&gt;&lt;/p&gt;" style="shape=partialRectangle;html=1;whiteSpace=wrap;connectable=0;fillColor=none;top=0;left=0;bottom=0;right=0;overflow=hidden;pointerEvents=1;rounded=0;strokeColor=default;" vertex="1" parent="fps1EA-GcfaW138LZgcH-40">
          <mxGeometry width="60" height="40" as="geometry">
            <mxRectangle width="60" height="40" as="alternateBounds" />
          </mxGeometry>
        </mxCell>
        <mxCell id="fps1EA-GcfaW138LZgcH-42" value="&lt;p class=&quot;MsoNormal&quot; style=&quot;text-align: right ; vertical-align: bottom&quot; align=&quot;right&quot;&gt;&lt;span style=&quot;font-family: &amp;#34;arial&amp;#34; ; color: rgb(0 , 0 , 0) ; font-style: normal ; font-size: 9.0000pt&quot;&gt;0.1503&lt;/span&gt;&lt;/p&gt;" style="shape=partialRectangle;html=1;whiteSpace=wrap;connectable=0;fillColor=none;top=0;left=0;bottom=0;right=0;overflow=hidden;pointerEvents=1;rounded=0;strokeColor=default;" vertex="1" parent="fps1EA-GcfaW138LZgcH-40">
          <mxGeometry x="60" width="60" height="40" as="geometry">
            <mxRectangle width="60" height="40" as="alternateBounds" />
          </mxGeometry>
        </mxCell>
        <mxCell id="fps1EA-GcfaW138LZgcH-43" value="3" style="shape=partialRectangle;html=1;whiteSpace=wrap;connectable=0;fillColor=none;top=0;left=0;bottom=0;right=0;overflow=hidden;pointerEvents=1;rounded=0;strokeColor=default;" vertex="1" parent="fps1EA-GcfaW138LZgcH-40">
          <mxGeometry x="120" width="40" height="40" as="geometry">
            <mxRectangle width="40" height="40" as="alternateBounds" />
          </mxGeometry>
        </mxCell>
        <mxCell id="fps1EA-GcfaW138LZgcH-70" style="shape=partialRectangle;html=1;whiteSpace=wrap;connectable=0;fillColor=none;top=0;left=0;bottom=0;right=0;overflow=hidden;pointerEvents=1;rounded=0;strokeColor=default;" vertex="1" parent="fps1EA-GcfaW138LZgcH-40">
          <mxGeometry x="160" width="40" height="40" as="geometry">
            <mxRectangle width="40" height="40" as="alternateBounds" />
          </mxGeometry>
        </mxCell>
        <mxCell id="fps1EA-GcfaW138LZgcH-129" style="shape=partialRectangle;html=1;whiteSpace=wrap;connectable=0;fillColor=none;top=0;left=0;bottom=0;right=0;overflow=hidden;pointerEvents=1;rounded=0;strokeColor=default;" vertex="1" parent="fps1EA-GcfaW138LZgcH-40">
          <mxGeometry x="200" width="40" height="40" as="geometry">
            <mxRectangle width="40" height="40" as="alternateBounds" />
          </mxGeometry>
        </mxCell>
        <mxCell id="fps1EA-GcfaW138LZgcH-121" style="shape=partialRectangle;html=1;whiteSpace=wrap;connectable=0;fillColor=none;top=0;left=0;bottom=0;right=0;overflow=hidden;pointerEvents=1;rounded=0;strokeColor=default;" vertex="1" parent="fps1EA-GcfaW138LZgcH-40">
          <mxGeometry x="240" width="40" height="40" as="geometry">
            <mxRectangle width="40" height="40" as="alternateBounds" />
          </mxGeometry>
        </mxCell>
        <mxCell id="fps1EA-GcfaW138LZgcH-113" style="shape=partialRectangle;html=1;whiteSpace=wrap;connectable=0;fillColor=none;top=0;left=0;bottom=0;right=0;overflow=hidden;pointerEvents=1;rounded=0;strokeColor=default;" vertex="1" parent="fps1EA-GcfaW138LZgcH-40">
          <mxGeometry x="280" width="40" height="40" as="geometry">
            <mxRectangle width="40" height="40" as="alternateBounds" />
          </mxGeometry>
        </mxCell>
        <mxCell id="fps1EA-GcfaW138LZgcH-105" style="shape=partialRectangle;html=1;whiteSpace=wrap;connectable=0;fillColor=none;top=0;left=0;bottom=0;right=0;overflow=hidden;pointerEvents=1;rounded=0;strokeColor=default;" vertex="1" parent="fps1EA-GcfaW138LZgcH-40">
          <mxGeometry x="320" width="40" height="40" as="geometry">
            <mxRectangle width="40" height="40" as="alternateBounds" />
          </mxGeometry>
        </mxCell>
        <mxCell id="fps1EA-GcfaW138LZgcH-149" style="shape=partialRectangle;html=1;whiteSpace=wrap;connectable=0;fillColor=none;top=0;left=0;bottom=0;right=0;overflow=hidden;pointerEvents=1;rounded=0;strokeColor=default;" vertex="1" parent="fps1EA-GcfaW138LZgcH-40">
          <mxGeometry x="360" width="40" height="40" as="geometry">
            <mxRectangle width="40" height="40" as="alternateBounds" />
          </mxGeometry>
        </mxCell>
        <mxCell id="fps1EA-GcfaW138LZgcH-173" style="shape=partialRectangle;html=1;whiteSpace=wrap;connectable=0;fillColor=none;top=0;left=0;bottom=0;right=0;overflow=hidden;pointerEvents=1;rounded=0;strokeColor=default;" vertex="1" parent="fps1EA-GcfaW138LZgcH-40">
          <mxGeometry x="400" width="40" height="40" as="geometry">
            <mxRectangle width="40" height="40" as="alternateBounds" />
          </mxGeometry>
        </mxCell>
        <mxCell id="fps1EA-GcfaW138LZgcH-182" style="shape=partialRectangle;html=1;whiteSpace=wrap;connectable=0;fillColor=none;top=0;left=0;bottom=0;right=0;overflow=hidden;pointerEvents=1;rounded=0;strokeColor=default;" vertex="1" parent="fps1EA-GcfaW138LZgcH-40">
          <mxGeometry x="440" width="40" height="40" as="geometry">
            <mxRectangle width="40" height="40" as="alternateBounds" />
          </mxGeometry>
        </mxCell>
        <mxCell id="fps1EA-GcfaW138LZgcH-191" style="shape=partialRectangle;html=1;whiteSpace=wrap;connectable=0;fillColor=none;top=0;left=0;bottom=0;right=0;overflow=hidden;pointerEvents=1;rounded=0;strokeColor=default;" vertex="1" parent="fps1EA-GcfaW138LZgcH-40">
          <mxGeometry x="480" width="40" height="40" as="geometry">
            <mxRectangle width="40" height="40" as="alternateBounds" />
          </mxGeometry>
        </mxCell>
        <mxCell id="fps1EA-GcfaW138LZgcH-200" style="shape=partialRectangle;html=1;whiteSpace=wrap;connectable=0;fillColor=none;top=0;left=0;bottom=0;right=0;overflow=hidden;pointerEvents=1;rounded=0;strokeColor=default;" vertex="1" parent="fps1EA-GcfaW138LZgcH-40">
          <mxGeometry x="520" width="40" height="40" as="geometry">
            <mxRectangle width="40" height="40" as="alternateBounds" />
          </mxGeometry>
        </mxCell>
        <mxCell id="fps1EA-GcfaW138LZgcH-209" style="shape=partialRectangle;html=1;whiteSpace=wrap;connectable=0;fillColor=none;top=0;left=0;bottom=0;right=0;overflow=hidden;pointerEvents=1;rounded=0;strokeColor=default;" vertex="1" parent="fps1EA-GcfaW138LZgcH-40">
          <mxGeometry x="560" width="40" height="40" as="geometry">
            <mxRectangle width="40" height="40" as="alternateBounds" />
          </mxGeometry>
        </mxCell>
        <mxCell id="fps1EA-GcfaW138LZgcH-218" style="shape=partialRectangle;html=1;whiteSpace=wrap;connectable=0;fillColor=none;top=0;left=0;bottom=0;right=0;overflow=hidden;pointerEvents=1;rounded=0;strokeColor=default;" vertex="1" parent="fps1EA-GcfaW138LZgcH-40">
          <mxGeometry x="600" width="40" height="40" as="geometry">
            <mxRectangle width="40" height="40" as="alternateBounds" />
          </mxGeometry>
        </mxCell>
        <mxCell id="fps1EA-GcfaW138LZgcH-227" style="shape=partialRectangle;html=1;whiteSpace=wrap;connectable=0;fillColor=none;top=0;left=0;bottom=0;right=0;overflow=hidden;pointerEvents=1;rounded=0;strokeColor=default;" vertex="1" parent="fps1EA-GcfaW138LZgcH-40">
          <mxGeometry x="640" width="40" height="40" as="geometry">
            <mxRectangle width="40" height="40" as="alternateBounds" />
          </mxGeometry>
        </mxCell>
        <mxCell id="fps1EA-GcfaW138LZgcH-236" style="shape=partialRectangle;html=1;whiteSpace=wrap;connectable=0;fillColor=none;top=0;left=0;bottom=0;right=0;overflow=hidden;pointerEvents=1;rounded=0;strokeColor=default;" vertex="1" parent="fps1EA-GcfaW138LZgcH-40">
          <mxGeometry x="680" width="40" height="40" as="geometry">
            <mxRectangle width="40" height="40" as="alternateBounds" />
          </mxGeometry>
        </mxCell>
        <mxCell id="fps1EA-GcfaW138LZgcH-245" style="shape=partialRectangle;html=1;whiteSpace=wrap;connectable=0;fillColor=none;top=0;left=0;bottom=0;right=0;overflow=hidden;pointerEvents=1;rounded=0;strokeColor=default;" vertex="1" parent="fps1EA-GcfaW138LZgcH-40">
          <mxGeometry x="720" width="40" height="40" as="geometry">
            <mxRectangle width="40" height="40" as="alternateBounds" />
          </mxGeometry>
        </mxCell>
        <mxCell id="fps1EA-GcfaW138LZgcH-254" style="shape=partialRectangle;html=1;whiteSpace=wrap;connectable=0;fillColor=none;top=0;left=0;bottom=0;right=0;overflow=hidden;pointerEvents=1;rounded=0;strokeColor=default;" vertex="1" parent="fps1EA-GcfaW138LZgcH-40">
          <mxGeometry x="760" width="40" height="40" as="geometry">
            <mxRectangle width="40" height="40" as="alternateBounds" />
          </mxGeometry>
        </mxCell>
        <mxCell id="fps1EA-GcfaW138LZgcH-263" style="shape=partialRectangle;html=1;whiteSpace=wrap;connectable=0;fillColor=none;top=0;left=0;bottom=0;right=0;overflow=hidden;pointerEvents=1;rounded=0;strokeColor=default;" vertex="1" parent="fps1EA-GcfaW138LZgcH-40">
          <mxGeometry x="800" width="40" height="40" as="geometry">
            <mxRectangle width="40" height="40" as="alternateBounds" />
          </mxGeometry>
        </mxCell>
        <mxCell id="fps1EA-GcfaW138LZgcH-44" value="" style="shape=partialRectangle;html=1;whiteSpace=wrap;collapsible=0;dropTarget=0;pointerEvents=0;fillColor=none;top=0;left=0;bottom=0;right=0;points=[[0,0.5],[1,0.5]];portConstraint=eastwest;rounded=0;strokeColor=default;" vertex="1" parent="fps1EA-GcfaW138LZgcH-23">
          <mxGeometry y="240" width="840" height="40" as="geometry" />
        </mxCell>
        <mxCell id="fps1EA-GcfaW138LZgcH-45" value="&lt;p class=&quot;MsoNormal&quot; style=&quot;text-align: justify ; vertical-align: middle&quot; align=&quot;justify&quot;&gt;&lt;span class=&quot;15&quot; style=&quot;color: rgb(0 , 0 , 0) ; font-style: normal ; font-size: 9.0000pt&quot;&gt;&lt;font face=&quot;Calibri&quot;&gt;CN5&lt;/font&gt;&lt;/span&gt;&lt;/p&gt;" style="shape=partialRectangle;html=1;whiteSpace=wrap;connectable=0;fillColor=none;top=0;left=0;bottom=0;right=0;overflow=hidden;pointerEvents=1;rounded=0;strokeColor=default;" vertex="1" parent="fps1EA-GcfaW138LZgcH-44">
          <mxGeometry width="60" height="40" as="geometry">
            <mxRectangle width="60" height="40" as="alternateBounds" />
          </mxGeometry>
        </mxCell>
        <mxCell id="fps1EA-GcfaW138LZgcH-46" value="&lt;p class=&quot;MsoNormal&quot; style=&quot;text-align: right ; vertical-align: bottom&quot; align=&quot;right&quot;&gt;&lt;span style=&quot;font-family: &amp;#34;arial&amp;#34; ; color: rgb(0 , 0 , 0) ; font-style: normal ; font-size: 9.0000pt&quot;&gt;0.1635&lt;/span&gt;&lt;/p&gt;" style="shape=partialRectangle;html=1;whiteSpace=wrap;connectable=0;fillColor=none;top=0;left=0;bottom=0;right=0;overflow=hidden;pointerEvents=1;rounded=0;strokeColor=default;" vertex="1" parent="fps1EA-GcfaW138LZgcH-44">
          <mxGeometry x="60" width="60" height="40" as="geometry">
            <mxRectangle width="60" height="40" as="alternateBounds" />
          </mxGeometry>
        </mxCell>
        <mxCell id="fps1EA-GcfaW138LZgcH-47" value="" style="shape=partialRectangle;html=1;whiteSpace=wrap;connectable=0;fillColor=none;top=0;left=0;bottom=0;right=0;overflow=hidden;pointerEvents=1;rounded=0;strokeColor=default;" vertex="1" parent="fps1EA-GcfaW138LZgcH-44">
          <mxGeometry x="120" width="40" height="40" as="geometry">
            <mxRectangle width="40" height="40" as="alternateBounds" />
          </mxGeometry>
        </mxCell>
        <mxCell id="fps1EA-GcfaW138LZgcH-71" style="shape=partialRectangle;html=1;whiteSpace=wrap;connectable=0;fillColor=none;top=0;left=0;bottom=0;right=0;overflow=hidden;pointerEvents=1;rounded=0;strokeColor=default;" vertex="1" parent="fps1EA-GcfaW138LZgcH-44">
          <mxGeometry x="160" width="40" height="40" as="geometry">
            <mxRectangle width="40" height="40" as="alternateBounds" />
          </mxGeometry>
        </mxCell>
        <mxCell id="fps1EA-GcfaW138LZgcH-130" style="shape=partialRectangle;html=1;whiteSpace=wrap;connectable=0;fillColor=none;top=0;left=0;bottom=0;right=0;overflow=hidden;pointerEvents=1;rounded=0;strokeColor=default;" vertex="1" parent="fps1EA-GcfaW138LZgcH-44">
          <mxGeometry x="200" width="40" height="40" as="geometry">
            <mxRectangle width="40" height="40" as="alternateBounds" />
          </mxGeometry>
        </mxCell>
        <mxCell id="fps1EA-GcfaW138LZgcH-122" style="shape=partialRectangle;html=1;whiteSpace=wrap;connectable=0;fillColor=none;top=0;left=0;bottom=0;right=0;overflow=hidden;pointerEvents=1;rounded=0;strokeColor=default;" vertex="1" parent="fps1EA-GcfaW138LZgcH-44">
          <mxGeometry x="240" width="40" height="40" as="geometry">
            <mxRectangle width="40" height="40" as="alternateBounds" />
          </mxGeometry>
        </mxCell>
        <mxCell id="fps1EA-GcfaW138LZgcH-114" style="shape=partialRectangle;html=1;whiteSpace=wrap;connectable=0;fillColor=none;top=0;left=0;bottom=0;right=0;overflow=hidden;pointerEvents=1;rounded=0;strokeColor=default;" vertex="1" parent="fps1EA-GcfaW138LZgcH-44">
          <mxGeometry x="280" width="40" height="40" as="geometry">
            <mxRectangle width="40" height="40" as="alternateBounds" />
          </mxGeometry>
        </mxCell>
        <mxCell id="fps1EA-GcfaW138LZgcH-106" style="shape=partialRectangle;html=1;whiteSpace=wrap;connectable=0;fillColor=none;top=0;left=0;bottom=0;right=0;overflow=hidden;pointerEvents=1;rounded=0;strokeColor=default;" vertex="1" parent="fps1EA-GcfaW138LZgcH-44">
          <mxGeometry x="320" width="40" height="40" as="geometry">
            <mxRectangle width="40" height="40" as="alternateBounds" />
          </mxGeometry>
        </mxCell>
        <mxCell id="fps1EA-GcfaW138LZgcH-150" style="shape=partialRectangle;html=1;whiteSpace=wrap;connectable=0;fillColor=none;top=0;left=0;bottom=0;right=0;overflow=hidden;pointerEvents=1;rounded=0;strokeColor=default;" vertex="1" parent="fps1EA-GcfaW138LZgcH-44">
          <mxGeometry x="360" width="40" height="40" as="geometry">
            <mxRectangle width="40" height="40" as="alternateBounds" />
          </mxGeometry>
        </mxCell>
        <mxCell id="fps1EA-GcfaW138LZgcH-174" style="shape=partialRectangle;html=1;whiteSpace=wrap;connectable=0;fillColor=none;top=0;left=0;bottom=0;right=0;overflow=hidden;pointerEvents=1;rounded=0;strokeColor=default;" vertex="1" parent="fps1EA-GcfaW138LZgcH-44">
          <mxGeometry x="400" width="40" height="40" as="geometry">
            <mxRectangle width="40" height="40" as="alternateBounds" />
          </mxGeometry>
        </mxCell>
        <mxCell id="fps1EA-GcfaW138LZgcH-183" style="shape=partialRectangle;html=1;whiteSpace=wrap;connectable=0;fillColor=none;top=0;left=0;bottom=0;right=0;overflow=hidden;pointerEvents=1;rounded=0;strokeColor=default;" vertex="1" parent="fps1EA-GcfaW138LZgcH-44">
          <mxGeometry x="440" width="40" height="40" as="geometry">
            <mxRectangle width="40" height="40" as="alternateBounds" />
          </mxGeometry>
        </mxCell>
        <mxCell id="fps1EA-GcfaW138LZgcH-192" style="shape=partialRectangle;html=1;whiteSpace=wrap;connectable=0;fillColor=none;top=0;left=0;bottom=0;right=0;overflow=hidden;pointerEvents=1;rounded=0;strokeColor=default;" vertex="1" parent="fps1EA-GcfaW138LZgcH-44">
          <mxGeometry x="480" width="40" height="40" as="geometry">
            <mxRectangle width="40" height="40" as="alternateBounds" />
          </mxGeometry>
        </mxCell>
        <mxCell id="fps1EA-GcfaW138LZgcH-201" style="shape=partialRectangle;html=1;whiteSpace=wrap;connectable=0;fillColor=none;top=0;left=0;bottom=0;right=0;overflow=hidden;pointerEvents=1;rounded=0;strokeColor=default;" vertex="1" parent="fps1EA-GcfaW138LZgcH-44">
          <mxGeometry x="520" width="40" height="40" as="geometry">
            <mxRectangle width="40" height="40" as="alternateBounds" />
          </mxGeometry>
        </mxCell>
        <mxCell id="fps1EA-GcfaW138LZgcH-210" style="shape=partialRectangle;html=1;whiteSpace=wrap;connectable=0;fillColor=none;top=0;left=0;bottom=0;right=0;overflow=hidden;pointerEvents=1;rounded=0;strokeColor=default;" vertex="1" parent="fps1EA-GcfaW138LZgcH-44">
          <mxGeometry x="560" width="40" height="40" as="geometry">
            <mxRectangle width="40" height="40" as="alternateBounds" />
          </mxGeometry>
        </mxCell>
        <mxCell id="fps1EA-GcfaW138LZgcH-219" style="shape=partialRectangle;html=1;whiteSpace=wrap;connectable=0;fillColor=none;top=0;left=0;bottom=0;right=0;overflow=hidden;pointerEvents=1;rounded=0;strokeColor=default;" vertex="1" parent="fps1EA-GcfaW138LZgcH-44">
          <mxGeometry x="600" width="40" height="40" as="geometry">
            <mxRectangle width="40" height="40" as="alternateBounds" />
          </mxGeometry>
        </mxCell>
        <mxCell id="fps1EA-GcfaW138LZgcH-228" style="shape=partialRectangle;html=1;whiteSpace=wrap;connectable=0;fillColor=none;top=0;left=0;bottom=0;right=0;overflow=hidden;pointerEvents=1;rounded=0;strokeColor=default;" vertex="1" parent="fps1EA-GcfaW138LZgcH-44">
          <mxGeometry x="640" width="40" height="40" as="geometry">
            <mxRectangle width="40" height="40" as="alternateBounds" />
          </mxGeometry>
        </mxCell>
        <mxCell id="fps1EA-GcfaW138LZgcH-237" style="shape=partialRectangle;html=1;whiteSpace=wrap;connectable=0;fillColor=none;top=0;left=0;bottom=0;right=0;overflow=hidden;pointerEvents=1;rounded=0;strokeColor=default;" vertex="1" parent="fps1EA-GcfaW138LZgcH-44">
          <mxGeometry x="680" width="40" height="40" as="geometry">
            <mxRectangle width="40" height="40" as="alternateBounds" />
          </mxGeometry>
        </mxCell>
        <mxCell id="fps1EA-GcfaW138LZgcH-246" style="shape=partialRectangle;html=1;whiteSpace=wrap;connectable=0;fillColor=none;top=0;left=0;bottom=0;right=0;overflow=hidden;pointerEvents=1;rounded=0;strokeColor=default;" vertex="1" parent="fps1EA-GcfaW138LZgcH-44">
          <mxGeometry x="720" width="40" height="40" as="geometry">
            <mxRectangle width="40" height="40" as="alternateBounds" />
          </mxGeometry>
        </mxCell>
        <mxCell id="fps1EA-GcfaW138LZgcH-255" style="shape=partialRectangle;html=1;whiteSpace=wrap;connectable=0;fillColor=none;top=0;left=0;bottom=0;right=0;overflow=hidden;pointerEvents=1;rounded=0;strokeColor=default;" vertex="1" parent="fps1EA-GcfaW138LZgcH-44">
          <mxGeometry x="760" width="40" height="40" as="geometry">
            <mxRectangle width="40" height="40" as="alternateBounds" />
          </mxGeometry>
        </mxCell>
        <mxCell id="fps1EA-GcfaW138LZgcH-264" style="shape=partialRectangle;html=1;whiteSpace=wrap;connectable=0;fillColor=none;top=0;left=0;bottom=0;right=0;overflow=hidden;pointerEvents=1;rounded=0;strokeColor=default;" vertex="1" parent="fps1EA-GcfaW138LZgcH-44">
          <mxGeometry x="800" width="40" height="40" as="geometry">
            <mxRectangle width="40" height="40" as="alternateBounds" />
          </mxGeometry>
        </mxCell>
        <mxCell id="fps1EA-GcfaW138LZgcH-48" value="" style="shape=partialRectangle;html=1;whiteSpace=wrap;collapsible=0;dropTarget=0;pointerEvents=0;fillColor=none;top=0;left=0;bottom=0;right=0;points=[[0,0.5],[1,0.5]];portConstraint=eastwest;rounded=0;strokeColor=default;" vertex="1" parent="fps1EA-GcfaW138LZgcH-23">
          <mxGeometry y="280" width="840" height="40" as="geometry" />
        </mxCell>
        <mxCell id="fps1EA-GcfaW138LZgcH-49" value="&lt;p class=&quot;MsoNormal&quot; style=&quot;text-align: justify ; vertical-align: middle&quot; align=&quot;justify&quot;&gt;&lt;span class=&quot;15&quot; style=&quot;color: rgb(0 , 0 , 0) ; font-style: normal ; font-size: 9.0000pt&quot;&gt;&lt;font face=&quot;Calibri&quot;&gt;CN6&lt;/font&gt;&lt;/span&gt;&lt;/p&gt;" style="shape=partialRectangle;html=1;whiteSpace=wrap;connectable=0;fillColor=none;top=0;left=0;bottom=0;right=0;overflow=hidden;pointerEvents=1;rounded=0;strokeColor=default;" vertex="1" parent="fps1EA-GcfaW138LZgcH-48">
          <mxGeometry width="60" height="40" as="geometry">
            <mxRectangle width="60" height="40" as="alternateBounds" />
          </mxGeometry>
        </mxCell>
        <mxCell id="fps1EA-GcfaW138LZgcH-50" value="&lt;p class=&quot;MsoNormal&quot; style=&quot;text-align: right ; vertical-align: bottom&quot; align=&quot;right&quot;&gt;&lt;span style=&quot;font-family: &amp;#34;arial&amp;#34; ; color: rgb(0 , 0 , 0) ; font-style: normal ; font-size: 9.0000pt&quot;&gt;0.0979&lt;/span&gt;&lt;/p&gt;" style="shape=partialRectangle;html=1;whiteSpace=wrap;connectable=0;fillColor=none;top=0;left=0;bottom=0;right=0;overflow=hidden;pointerEvents=1;rounded=0;strokeColor=default;" vertex="1" parent="fps1EA-GcfaW138LZgcH-48">
          <mxGeometry x="60" width="60" height="40" as="geometry">
            <mxRectangle width="60" height="40" as="alternateBounds" />
          </mxGeometry>
        </mxCell>
        <mxCell id="fps1EA-GcfaW138LZgcH-51" value="3" style="shape=partialRectangle;html=1;whiteSpace=wrap;connectable=0;fillColor=none;top=0;left=0;bottom=0;right=0;overflow=hidden;pointerEvents=1;rounded=0;strokeColor=default;" vertex="1" parent="fps1EA-GcfaW138LZgcH-48">
          <mxGeometry x="120" width="40" height="40" as="geometry">
            <mxRectangle width="40" height="40" as="alternateBounds" />
          </mxGeometry>
        </mxCell>
        <mxCell id="fps1EA-GcfaW138LZgcH-72" style="shape=partialRectangle;html=1;whiteSpace=wrap;connectable=0;fillColor=none;top=0;left=0;bottom=0;right=0;overflow=hidden;pointerEvents=1;rounded=0;strokeColor=default;" vertex="1" parent="fps1EA-GcfaW138LZgcH-48">
          <mxGeometry x="160" width="40" height="40" as="geometry">
            <mxRectangle width="40" height="40" as="alternateBounds" />
          </mxGeometry>
        </mxCell>
        <mxCell id="fps1EA-GcfaW138LZgcH-131" style="shape=partialRectangle;html=1;whiteSpace=wrap;connectable=0;fillColor=none;top=0;left=0;bottom=0;right=0;overflow=hidden;pointerEvents=1;rounded=0;strokeColor=default;" vertex="1" parent="fps1EA-GcfaW138LZgcH-48">
          <mxGeometry x="200" width="40" height="40" as="geometry">
            <mxRectangle width="40" height="40" as="alternateBounds" />
          </mxGeometry>
        </mxCell>
        <mxCell id="fps1EA-GcfaW138LZgcH-123" style="shape=partialRectangle;html=1;whiteSpace=wrap;connectable=0;fillColor=none;top=0;left=0;bottom=0;right=0;overflow=hidden;pointerEvents=1;rounded=0;strokeColor=default;" vertex="1" parent="fps1EA-GcfaW138LZgcH-48">
          <mxGeometry x="240" width="40" height="40" as="geometry">
            <mxRectangle width="40" height="40" as="alternateBounds" />
          </mxGeometry>
        </mxCell>
        <mxCell id="fps1EA-GcfaW138LZgcH-115" style="shape=partialRectangle;html=1;whiteSpace=wrap;connectable=0;fillColor=none;top=0;left=0;bottom=0;right=0;overflow=hidden;pointerEvents=1;rounded=0;strokeColor=default;" vertex="1" parent="fps1EA-GcfaW138LZgcH-48">
          <mxGeometry x="280" width="40" height="40" as="geometry">
            <mxRectangle width="40" height="40" as="alternateBounds" />
          </mxGeometry>
        </mxCell>
        <mxCell id="fps1EA-GcfaW138LZgcH-107" style="shape=partialRectangle;html=1;whiteSpace=wrap;connectable=0;fillColor=none;top=0;left=0;bottom=0;right=0;overflow=hidden;pointerEvents=1;rounded=0;strokeColor=default;" vertex="1" parent="fps1EA-GcfaW138LZgcH-48">
          <mxGeometry x="320" width="40" height="40" as="geometry">
            <mxRectangle width="40" height="40" as="alternateBounds" />
          </mxGeometry>
        </mxCell>
        <mxCell id="fps1EA-GcfaW138LZgcH-151" style="shape=partialRectangle;html=1;whiteSpace=wrap;connectable=0;fillColor=none;top=0;left=0;bottom=0;right=0;overflow=hidden;pointerEvents=1;rounded=0;strokeColor=default;" vertex="1" parent="fps1EA-GcfaW138LZgcH-48">
          <mxGeometry x="360" width="40" height="40" as="geometry">
            <mxRectangle width="40" height="40" as="alternateBounds" />
          </mxGeometry>
        </mxCell>
        <mxCell id="fps1EA-GcfaW138LZgcH-175" style="shape=partialRectangle;html=1;whiteSpace=wrap;connectable=0;fillColor=none;top=0;left=0;bottom=0;right=0;overflow=hidden;pointerEvents=1;rounded=0;strokeColor=default;" vertex="1" parent="fps1EA-GcfaW138LZgcH-48">
          <mxGeometry x="400" width="40" height="40" as="geometry">
            <mxRectangle width="40" height="40" as="alternateBounds" />
          </mxGeometry>
        </mxCell>
        <mxCell id="fps1EA-GcfaW138LZgcH-184" style="shape=partialRectangle;html=1;whiteSpace=wrap;connectable=0;fillColor=none;top=0;left=0;bottom=0;right=0;overflow=hidden;pointerEvents=1;rounded=0;strokeColor=default;" vertex="1" parent="fps1EA-GcfaW138LZgcH-48">
          <mxGeometry x="440" width="40" height="40" as="geometry">
            <mxRectangle width="40" height="40" as="alternateBounds" />
          </mxGeometry>
        </mxCell>
        <mxCell id="fps1EA-GcfaW138LZgcH-193" style="shape=partialRectangle;html=1;whiteSpace=wrap;connectable=0;fillColor=none;top=0;left=0;bottom=0;right=0;overflow=hidden;pointerEvents=1;rounded=0;strokeColor=default;" vertex="1" parent="fps1EA-GcfaW138LZgcH-48">
          <mxGeometry x="480" width="40" height="40" as="geometry">
            <mxRectangle width="40" height="40" as="alternateBounds" />
          </mxGeometry>
        </mxCell>
        <mxCell id="fps1EA-GcfaW138LZgcH-202" style="shape=partialRectangle;html=1;whiteSpace=wrap;connectable=0;fillColor=none;top=0;left=0;bottom=0;right=0;overflow=hidden;pointerEvents=1;rounded=0;strokeColor=default;" vertex="1" parent="fps1EA-GcfaW138LZgcH-48">
          <mxGeometry x="520" width="40" height="40" as="geometry">
            <mxRectangle width="40" height="40" as="alternateBounds" />
          </mxGeometry>
        </mxCell>
        <mxCell id="fps1EA-GcfaW138LZgcH-211" style="shape=partialRectangle;html=1;whiteSpace=wrap;connectable=0;fillColor=none;top=0;left=0;bottom=0;right=0;overflow=hidden;pointerEvents=1;rounded=0;strokeColor=default;" vertex="1" parent="fps1EA-GcfaW138LZgcH-48">
          <mxGeometry x="560" width="40" height="40" as="geometry">
            <mxRectangle width="40" height="40" as="alternateBounds" />
          </mxGeometry>
        </mxCell>
        <mxCell id="fps1EA-GcfaW138LZgcH-220" style="shape=partialRectangle;html=1;whiteSpace=wrap;connectable=0;fillColor=none;top=0;left=0;bottom=0;right=0;overflow=hidden;pointerEvents=1;rounded=0;strokeColor=default;" vertex="1" parent="fps1EA-GcfaW138LZgcH-48">
          <mxGeometry x="600" width="40" height="40" as="geometry">
            <mxRectangle width="40" height="40" as="alternateBounds" />
          </mxGeometry>
        </mxCell>
        <mxCell id="fps1EA-GcfaW138LZgcH-229" style="shape=partialRectangle;html=1;whiteSpace=wrap;connectable=0;fillColor=none;top=0;left=0;bottom=0;right=0;overflow=hidden;pointerEvents=1;rounded=0;strokeColor=default;" vertex="1" parent="fps1EA-GcfaW138LZgcH-48">
          <mxGeometry x="640" width="40" height="40" as="geometry">
            <mxRectangle width="40" height="40" as="alternateBounds" />
          </mxGeometry>
        </mxCell>
        <mxCell id="fps1EA-GcfaW138LZgcH-238" style="shape=partialRectangle;html=1;whiteSpace=wrap;connectable=0;fillColor=none;top=0;left=0;bottom=0;right=0;overflow=hidden;pointerEvents=1;rounded=0;strokeColor=default;" vertex="1" parent="fps1EA-GcfaW138LZgcH-48">
          <mxGeometry x="680" width="40" height="40" as="geometry">
            <mxRectangle width="40" height="40" as="alternateBounds" />
          </mxGeometry>
        </mxCell>
        <mxCell id="fps1EA-GcfaW138LZgcH-247" style="shape=partialRectangle;html=1;whiteSpace=wrap;connectable=0;fillColor=none;top=0;left=0;bottom=0;right=0;overflow=hidden;pointerEvents=1;rounded=0;strokeColor=default;" vertex="1" parent="fps1EA-GcfaW138LZgcH-48">
          <mxGeometry x="720" width="40" height="40" as="geometry">
            <mxRectangle width="40" height="40" as="alternateBounds" />
          </mxGeometry>
        </mxCell>
        <mxCell id="fps1EA-GcfaW138LZgcH-256" style="shape=partialRectangle;html=1;whiteSpace=wrap;connectable=0;fillColor=none;top=0;left=0;bottom=0;right=0;overflow=hidden;pointerEvents=1;rounded=0;strokeColor=default;" vertex="1" parent="fps1EA-GcfaW138LZgcH-48">
          <mxGeometry x="760" width="40" height="40" as="geometry">
            <mxRectangle width="40" height="40" as="alternateBounds" />
          </mxGeometry>
        </mxCell>
        <mxCell id="fps1EA-GcfaW138LZgcH-265" style="shape=partialRectangle;html=1;whiteSpace=wrap;connectable=0;fillColor=none;top=0;left=0;bottom=0;right=0;overflow=hidden;pointerEvents=1;rounded=0;strokeColor=default;" vertex="1" parent="fps1EA-GcfaW138LZgcH-48">
          <mxGeometry x="800" width="40" height="40" as="geometry">
            <mxRectangle width="40" height="40" as="alternateBounds" />
          </mxGeometry>
        </mxCell>
        <mxCell id="fps1EA-GcfaW138LZgcH-52" value="" style="shape=partialRectangle;html=1;whiteSpace=wrap;collapsible=0;dropTarget=0;pointerEvents=0;fillColor=none;top=0;left=0;bottom=0;right=0;points=[[0,0.5],[1,0.5]];portConstraint=eastwest;rounded=0;strokeColor=default;" vertex="1" parent="fps1EA-GcfaW138LZgcH-23">
          <mxGeometry y="320" width="840" height="40" as="geometry" />
        </mxCell>
        <mxCell id="fps1EA-GcfaW138LZgcH-53" value="&lt;p class=&quot;MsoNormal&quot; style=&quot;text-align: justify ; vertical-align: middle&quot; align=&quot;justify&quot;&gt;&lt;span class=&quot;15&quot; style=&quot;color: rgb(0 , 0 , 0) ; font-style: normal ; font-size: 9.0000pt&quot;&gt;&lt;font face=&quot;Calibri&quot;&gt;CN6&lt;/font&gt;&lt;/span&gt;&lt;/p&gt;" style="shape=partialRectangle;html=1;whiteSpace=wrap;connectable=0;fillColor=none;top=0;left=0;bottom=0;right=0;overflow=hidden;pointerEvents=1;rounded=0;strokeColor=default;" vertex="1" parent="fps1EA-GcfaW138LZgcH-52">
          <mxGeometry width="60" height="40" as="geometry">
            <mxRectangle width="60" height="40" as="alternateBounds" />
          </mxGeometry>
        </mxCell>
        <mxCell id="fps1EA-GcfaW138LZgcH-54" value="&lt;p class=&quot;MsoNormal&quot; style=&quot;text-align: right ; vertical-align: bottom&quot; align=&quot;right&quot;&gt;&lt;span style=&quot;font-family: &amp;#34;arial&amp;#34; ; color: rgb(0 , 0 , 0) ; font-style: normal ; font-size: 9.0000pt&quot;&gt;0.0979&lt;/span&gt;&lt;/p&gt;" style="shape=partialRectangle;html=1;whiteSpace=wrap;connectable=0;fillColor=none;top=0;left=0;bottom=0;right=0;overflow=hidden;pointerEvents=1;rounded=0;strokeColor=default;" vertex="1" parent="fps1EA-GcfaW138LZgcH-52">
          <mxGeometry x="60" width="60" height="40" as="geometry">
            <mxRectangle width="60" height="40" as="alternateBounds" />
          </mxGeometry>
        </mxCell>
        <mxCell id="fps1EA-GcfaW138LZgcH-55" value="" style="shape=partialRectangle;html=1;whiteSpace=wrap;connectable=0;fillColor=none;top=0;left=0;bottom=0;right=0;overflow=hidden;pointerEvents=1;rounded=0;strokeColor=default;" vertex="1" parent="fps1EA-GcfaW138LZgcH-52">
          <mxGeometry x="120" width="40" height="40" as="geometry">
            <mxRectangle width="40" height="40" as="alternateBounds" />
          </mxGeometry>
        </mxCell>
        <mxCell id="fps1EA-GcfaW138LZgcH-73" style="shape=partialRectangle;html=1;whiteSpace=wrap;connectable=0;fillColor=none;top=0;left=0;bottom=0;right=0;overflow=hidden;pointerEvents=1;rounded=0;strokeColor=default;" vertex="1" parent="fps1EA-GcfaW138LZgcH-52">
          <mxGeometry x="160" width="40" height="40" as="geometry">
            <mxRectangle width="40" height="40" as="alternateBounds" />
          </mxGeometry>
        </mxCell>
        <mxCell id="fps1EA-GcfaW138LZgcH-132" style="shape=partialRectangle;html=1;whiteSpace=wrap;connectable=0;fillColor=none;top=0;left=0;bottom=0;right=0;overflow=hidden;pointerEvents=1;rounded=0;strokeColor=default;" vertex="1" parent="fps1EA-GcfaW138LZgcH-52">
          <mxGeometry x="200" width="40" height="40" as="geometry">
            <mxRectangle width="40" height="40" as="alternateBounds" />
          </mxGeometry>
        </mxCell>
        <mxCell id="fps1EA-GcfaW138LZgcH-124" style="shape=partialRectangle;html=1;whiteSpace=wrap;connectable=0;fillColor=none;top=0;left=0;bottom=0;right=0;overflow=hidden;pointerEvents=1;rounded=0;strokeColor=default;" vertex="1" parent="fps1EA-GcfaW138LZgcH-52">
          <mxGeometry x="240" width="40" height="40" as="geometry">
            <mxRectangle width="40" height="40" as="alternateBounds" />
          </mxGeometry>
        </mxCell>
        <mxCell id="fps1EA-GcfaW138LZgcH-116" style="shape=partialRectangle;html=1;whiteSpace=wrap;connectable=0;fillColor=none;top=0;left=0;bottom=0;right=0;overflow=hidden;pointerEvents=1;rounded=0;strokeColor=default;" vertex="1" parent="fps1EA-GcfaW138LZgcH-52">
          <mxGeometry x="280" width="40" height="40" as="geometry">
            <mxRectangle width="40" height="40" as="alternateBounds" />
          </mxGeometry>
        </mxCell>
        <mxCell id="fps1EA-GcfaW138LZgcH-108" style="shape=partialRectangle;html=1;whiteSpace=wrap;connectable=0;fillColor=none;top=0;left=0;bottom=0;right=0;overflow=hidden;pointerEvents=1;rounded=0;strokeColor=default;" vertex="1" parent="fps1EA-GcfaW138LZgcH-52">
          <mxGeometry x="320" width="40" height="40" as="geometry">
            <mxRectangle width="40" height="40" as="alternateBounds" />
          </mxGeometry>
        </mxCell>
        <mxCell id="fps1EA-GcfaW138LZgcH-152" style="shape=partialRectangle;html=1;whiteSpace=wrap;connectable=0;fillColor=none;top=0;left=0;bottom=0;right=0;overflow=hidden;pointerEvents=1;rounded=0;strokeColor=default;" vertex="1" parent="fps1EA-GcfaW138LZgcH-52">
          <mxGeometry x="360" width="40" height="40" as="geometry">
            <mxRectangle width="40" height="40" as="alternateBounds" />
          </mxGeometry>
        </mxCell>
        <mxCell id="fps1EA-GcfaW138LZgcH-176" style="shape=partialRectangle;html=1;whiteSpace=wrap;connectable=0;fillColor=none;top=0;left=0;bottom=0;right=0;overflow=hidden;pointerEvents=1;rounded=0;strokeColor=default;" vertex="1" parent="fps1EA-GcfaW138LZgcH-52">
          <mxGeometry x="400" width="40" height="40" as="geometry">
            <mxRectangle width="40" height="40" as="alternateBounds" />
          </mxGeometry>
        </mxCell>
        <mxCell id="fps1EA-GcfaW138LZgcH-185" style="shape=partialRectangle;html=1;whiteSpace=wrap;connectable=0;fillColor=none;top=0;left=0;bottom=0;right=0;overflow=hidden;pointerEvents=1;rounded=0;strokeColor=default;" vertex="1" parent="fps1EA-GcfaW138LZgcH-52">
          <mxGeometry x="440" width="40" height="40" as="geometry">
            <mxRectangle width="40" height="40" as="alternateBounds" />
          </mxGeometry>
        </mxCell>
        <mxCell id="fps1EA-GcfaW138LZgcH-194" style="shape=partialRectangle;html=1;whiteSpace=wrap;connectable=0;fillColor=none;top=0;left=0;bottom=0;right=0;overflow=hidden;pointerEvents=1;rounded=0;strokeColor=default;" vertex="1" parent="fps1EA-GcfaW138LZgcH-52">
          <mxGeometry x="480" width="40" height="40" as="geometry">
            <mxRectangle width="40" height="40" as="alternateBounds" />
          </mxGeometry>
        </mxCell>
        <mxCell id="fps1EA-GcfaW138LZgcH-203" style="shape=partialRectangle;html=1;whiteSpace=wrap;connectable=0;fillColor=none;top=0;left=0;bottom=0;right=0;overflow=hidden;pointerEvents=1;rounded=0;strokeColor=default;" vertex="1" parent="fps1EA-GcfaW138LZgcH-52">
          <mxGeometry x="520" width="40" height="40" as="geometry">
            <mxRectangle width="40" height="40" as="alternateBounds" />
          </mxGeometry>
        </mxCell>
        <mxCell id="fps1EA-GcfaW138LZgcH-212" style="shape=partialRectangle;html=1;whiteSpace=wrap;connectable=0;fillColor=none;top=0;left=0;bottom=0;right=0;overflow=hidden;pointerEvents=1;rounded=0;strokeColor=default;" vertex="1" parent="fps1EA-GcfaW138LZgcH-52">
          <mxGeometry x="560" width="40" height="40" as="geometry">
            <mxRectangle width="40" height="40" as="alternateBounds" />
          </mxGeometry>
        </mxCell>
        <mxCell id="fps1EA-GcfaW138LZgcH-221" style="shape=partialRectangle;html=1;whiteSpace=wrap;connectable=0;fillColor=none;top=0;left=0;bottom=0;right=0;overflow=hidden;pointerEvents=1;rounded=0;strokeColor=default;" vertex="1" parent="fps1EA-GcfaW138LZgcH-52">
          <mxGeometry x="600" width="40" height="40" as="geometry">
            <mxRectangle width="40" height="40" as="alternateBounds" />
          </mxGeometry>
        </mxCell>
        <mxCell id="fps1EA-GcfaW138LZgcH-230" style="shape=partialRectangle;html=1;whiteSpace=wrap;connectable=0;fillColor=none;top=0;left=0;bottom=0;right=0;overflow=hidden;pointerEvents=1;rounded=0;strokeColor=default;" vertex="1" parent="fps1EA-GcfaW138LZgcH-52">
          <mxGeometry x="640" width="40" height="40" as="geometry">
            <mxRectangle width="40" height="40" as="alternateBounds" />
          </mxGeometry>
        </mxCell>
        <mxCell id="fps1EA-GcfaW138LZgcH-239" style="shape=partialRectangle;html=1;whiteSpace=wrap;connectable=0;fillColor=none;top=0;left=0;bottom=0;right=0;overflow=hidden;pointerEvents=1;rounded=0;strokeColor=default;" vertex="1" parent="fps1EA-GcfaW138LZgcH-52">
          <mxGeometry x="680" width="40" height="40" as="geometry">
            <mxRectangle width="40" height="40" as="alternateBounds" />
          </mxGeometry>
        </mxCell>
        <mxCell id="fps1EA-GcfaW138LZgcH-248" style="shape=partialRectangle;html=1;whiteSpace=wrap;connectable=0;fillColor=none;top=0;left=0;bottom=0;right=0;overflow=hidden;pointerEvents=1;rounded=0;strokeColor=default;" vertex="1" parent="fps1EA-GcfaW138LZgcH-52">
          <mxGeometry x="720" width="40" height="40" as="geometry">
            <mxRectangle width="40" height="40" as="alternateBounds" />
          </mxGeometry>
        </mxCell>
        <mxCell id="fps1EA-GcfaW138LZgcH-257" style="shape=partialRectangle;html=1;whiteSpace=wrap;connectable=0;fillColor=none;top=0;left=0;bottom=0;right=0;overflow=hidden;pointerEvents=1;rounded=0;strokeColor=default;" vertex="1" parent="fps1EA-GcfaW138LZgcH-52">
          <mxGeometry x="760" width="40" height="40" as="geometry">
            <mxRectangle width="40" height="40" as="alternateBounds" />
          </mxGeometry>
        </mxCell>
        <mxCell id="fps1EA-GcfaW138LZgcH-266" style="shape=partialRectangle;html=1;whiteSpace=wrap;connectable=0;fillColor=none;top=0;left=0;bottom=0;right=0;overflow=hidden;pointerEvents=1;rounded=0;strokeColor=default;" vertex="1" parent="fps1EA-GcfaW138LZgcH-52">
          <mxGeometry x="800" width="40" height="40" as="geometry">
            <mxRectangle width="40" height="40" as="alternateBounds" />
          </mxGeometry>
        </mxCell>
        <mxCell id="fps1EA-GcfaW138LZgcH-61" value="Scores" style="rounded=0;whiteSpace=wrap;html=1;" vertex="1" parent="1">
          <mxGeometry x="260" y="660" width="120" height="40" as="geometry" />
        </mxCell>
        <mxCell id="fps1EA-GcfaW138LZgcH-74" value="" style="rounded=0;whiteSpace=wrap;html=1;" vertex="1" parent="1">
          <mxGeometry x="260" y="340" width="120" height="80" as="geometry" />
        </mxCell>
        <mxCell id="fps1EA-GcfaW138LZgcH-75" value="" style="endArrow=none;html=1;rounded=0;entryX=0;entryY=0;entryDx=0;entryDy=0;exitX=0.5;exitY=1;exitDx=0;exitDy=0;" edge="1" parent="1" source="fps1EA-GcfaW138LZgcH-74" target="fps1EA-GcfaW138LZgcH-74">
          <mxGeometry width="50" height="50" relative="1" as="geometry">
            <mxPoint x="290" y="410" as="sourcePoint" />
            <mxPoint x="340" y="360" as="targetPoint" />
          </mxGeometry>
        </mxCell>
        <mxCell id="fps1EA-GcfaW138LZgcH-76" value="CNs" style="text;html=1;strokeColor=none;fillColor=none;align=center;verticalAlign=middle;whiteSpace=wrap;rounded=0;" vertex="1" parent="1">
          <mxGeometry x="250" y="390" width="60" height="30" as="geometry" />
        </mxCell>
        <mxCell id="fps1EA-GcfaW138LZgcH-98" value="" style="endArrow=none;html=1;rounded=0;entryX=-0.001;entryY=0.017;entryDx=0;entryDy=0;exitX=1;exitY=1;exitDx=0;exitDy=0;entryPerimeter=0;" edge="1" parent="1" source="fps1EA-GcfaW138LZgcH-74" target="fps1EA-GcfaW138LZgcH-133">
          <mxGeometry width="50" height="50" relative="1" as="geometry">
            <mxPoint x="330" y="390" as="sourcePoint" />
            <mxPoint x="270" y="350" as="targetPoint" />
          </mxGeometry>
        </mxCell>
        <mxCell id="fps1EA-GcfaW138LZgcH-99" value="w" style="text;html=1;strokeColor=none;fillColor=none;align=center;verticalAlign=middle;whiteSpace=wrap;rounded=0;" vertex="1" parent="1">
          <mxGeometry x="320" y="400" width="20" height="10" as="geometry" />
        </mxCell>
        <mxCell id="fps1EA-GcfaW138LZgcH-100" value="PDEs" style="text;html=1;strokeColor=none;fillColor=none;align=center;verticalAlign=middle;whiteSpace=wrap;rounded=0;" vertex="1" parent="1">
          <mxGeometry x="340" y="360" width="20" height="10" as="geometry" />
        </mxCell>
        <mxCell id="fps1EA-GcfaW138LZgcH-153" value="Button" style="rounded=0;whiteSpace=wrap;html=1;" vertex="1" parent="1">
          <mxGeometry x="380" y="340" width="280" height="40" as="geometry" />
        </mxCell>
        <mxCell id="fps1EA-GcfaW138LZgcH-267" value="Button" style="rounded=0;whiteSpace=wrap;html=1;" vertex="1" parent="1">
          <mxGeometry x="660" y="340" width="120" height="40" as="geometry" />
        </mxCell>
      </root>
    </mxGraphModel>
  </diagram>
</mxfile>
